<svg xmlns="http://www.w3.org/2000/svg" xmlns:xlink="http://www.w3.org/1999/xlink" width="700" height="500">
<defs>
<style type="text/css"><![CDATA[
  .borderLine {
	   stroke: none;
	   fill-opacity:  0.4 ;
  }
  .outLine {
	   stroke-width:  1 ;
	   fill: none;
  }
  .circle {
	   stroke: #888888;
	   stroke-width: 0.5;
	   fill: none;
    pointer-events: all;
  }
  .nLabel {
	   font-family: Arial;
    pointer-events: none;
	   font-size: 10px;
	   text-anchor: middle;
	   alignment-baseline: central;
  }
  .belong {
	   font-family: Arial;
    pointer-events: none;
	   font-size: 5px;
	   text-anchor: middle;
	   alignment-baseline: central;
  }
  .legend {
    font-family: Arial;
    font-size: 15px;
  }
  #legendBox {
    display:  inline ;
  }
  .p0{
    stroke: none;
    fill: #e6194b;
  }
  .q0{
    fill: none;
    stroke: #e6194b;
  }
  .p1{
    stroke: none;
    fill: #3cb44b;
  }
  .q1{
    fill: none;
    stroke: #3cb44b;
  }
  .p2{
    stroke: none;
    fill: #ffe119;
  }
  .q2{
    fill: none;
    stroke: #ffe119;
  }
  .p3{
    stroke: none;
    fill: #0082c8;
  }
  .q3{
    fill: none;
    stroke: #0082c8;
  }
]]>
</style>
<symbol id="bl0">
<path d="M 326.77 374.14 L 325.68 378.31 L 324.48 382.44 L 323.16 386.54 L 321.72 390.59 L 320.18 394.61 L 318.52 398.58 L 316.75 402.51 L 314.87 406.37 L 312.88 410.19 L 310.78 413.95 L 308.57 417.64 L 306.27 421.28 L 303.86 424.84 L 301.35 428.34 L 298.75 431.76 L 296.04 435.11 L 293.24 438.38 L 290.36 441.57 L 287.38 444.68 L 284.32 447.70 L 281.17 450.63 L 277.94 453.48 L 274.63 456.23 L 271.25 458.89 L 267.79 461.45 L 264.26 463.91 L 260.66 466.27 L 257.00 468.52 L 253.27 470.68 L 249.48 472.72 L 245.64 474.66 L 241.74 476.49 L 237.80 478.21 L 233.81 479.81 L 229.77 481.30 L 225.70 482.68 L 221.58 483.94 L 217.43 485.08 L 213.25 486.11 L 209.05 487.01 L 204.82 487.80 L 200.57 488.48 L 196.30 489.02 L 192.02 489.45 L 187.73 489.76 L 183.43 489.94 L 179.13 490.00 L 174.82 489.94 L 170.53 489.76 L 166.23 489.46 L 161.95 489.04 L 157.68 488.49 L 153.43 487.83 L 149.20 487.04 L 144.99 486.14 L 140.81 485.11 L 136.66 483.98 L 132.55 482.72 L 128.47 481.34 L 124.43 479.86 L 120.44 478.25 L 116.49 476.54 L 112.59 474.72 L 108.75 472.78 L 104.96 470.74 L 101.23 468.59 L 97.56 466.34 L 93.96 463.98 L 90.42 461.53 L 86.96 458.97 L 83.57 456.32 L 80.26 453.57 L 77.02 450.73 L 73.87 447.80 L 70.80 444.79 L 67.82 441.68 L 64.92 438.49 L 62.12 435.23 L 59.41 431.88 L 56.79 428.45 L 54.28 424.96 L 51.86 421.40 L 49.55 417.77 L 47.33 414.08 L 45.23 410.32 L 43.23 406.51 L 41.34 402.65 L 39.56 398.72 L 37.89 394.75 L 36.34 390.74 L 34.89 386.68 L 33.57 382.59 L 32.35 378.46 L 31.26 374.29 L 30.29 370.10 L 29.43 365.88 L 28.70 361.64 L 28.08 357.38 L 27.58 353.10 L 27.21 348.81 L 26.95 344.52 L 26.82 340.22 L 26.81 335.91 L 26.93 331.61 L 27.16 327.31 L 27.51 323.02 L 27.99 318.75 L 28.58 314.48 L 29.30 310.24 L 30.14 306.02 L 31.09 301.82 L 32.17 297.65 L 33.36 293.52 L 34.67 289.42 L 36.09 285.36 L 37.63 281.34 L 39.28 277.37 L 41.04 273.44 L 42.91 269.57 L 44.89 265.75 L 46.98 261.98 L 49.17 258.28 L 51.47 254.64 L 53.87 251.07 L 56.37 247.57 L 58.97 244.14 L 61.67 240.78 L 64.46 237.51 L 67.33 234.31 L 70.30 231.19 L 73.36 228.16 L 76.50 225.22 L 79.73 222.36 L 83.03 219.61 L 86.40 216.94 L 89.86 214.38 L 93.38 211.90 L 96.97 209.53 L 100.64 207.27 L 104.36 205.11 L 108.13 203.05 L 111.97 201.10 L 115.87 199.27 L 119.80 197.54 L 123.79 195.93 L 127.83 194.43 L 131.90 193.04 L 136.01 191.77 L 140.16 190.61 L 144.33 189.57 L 148.54 188.66 L 152.77 187.86 L 157.02 187.18 L 161.29 186.62 L 165.57 186.18 L 169.86 185.87 L 174.16 185.68 L 178.47 185.60 L 182.77 185.65 L 187.08 185.83 L 191.37 186.12 L 195.66 186.53 L 199.93 187.07 L 204.18 187.73 L 208.42 188.50 L 212.63 189.40 L 216.82 190.42 L 220.98 191.55 L 225.10 192.80 L 229.18 194.17 L 233.23 195.64 L 237.23 197.23 L 241.20 198.91 L 245.13 200.68 L 249.03 202.52 L 252.90 204.40 L 256.76 206.31 L 260.62 208.24 L 264.48 210.16 L 268.34 212.09 L 272.20 214.01 L 276.06 215.94 L 279.92 217.87 L 283.78 219.79 L 287.65 221.69 L 291.54 223.53 L 295.46 225.23 L 299.43 226.62 L 303.48 227.48 L 307.59 227.68 L 311.74 227.30 L 315.88 226.52 L 319.96 225.49 L 324.00 224.36 L 328.06 223.29 L 332.15 222.40 L 336.28 221.81 L 340.42 221.64 L 344.53 222.00 L 348.55 222.90 L 352.40 224.35 L 356.03 226.38 L 359.36 228.98 L 362.37 232.14 L 364.96 235.83 L 367.07 239.91 L 368.59 244.17 L 369.44 248.47 L 369.63 252.73 L 369.18 256.90 L 368.11 260.93 L 366.49 264.77 L 364.38 268.37 L 361.83 271.71 L 358.96 274.84 L 355.93 277.87 L 352.87 280.88 L 349.85 283.95 L 346.97 287.14 L 344.30 290.52 L 341.91 294.10 L 339.90 297.88 L 338.29 301.86 L 337.05 305.99 L 336.09 310.20 L 335.33 314.46 L 334.71 318.73 L 334.16 323.01 L 333.63 327.29 L 333.12 331.56 L 332.61 335.84 L 332.10 340.13 L 331.59 344.41 L 331.07 348.69 L 330.54 352.96 L 329.97 357.23 L 329.33 361.49 L 328.58 365.73 L 327.73 369.95 Z" />
</symbol>
<symbol id="bl1">
<path d="M 362.02 157.64 L 360.63 159.89 L 359.24 162.14 L 357.85 164.39 L 356.46 166.64 L 355.06 168.89 L 353.67 171.14 L 352.28 173.39 L 350.89 175.63 L 349.50 177.88 L 348.12 180.13 L 346.73 182.38 L 345.35 184.64 L 343.96 186.89 L 342.57 189.14 L 341.18 191.40 L 339.79 193.65 L 338.40 195.90 L 337.01 198.15 L 335.62 200.40 L 334.23 202.66 L 332.84 204.90 L 331.45 207.15 L 330.06 209.40 L 328.65 211.64 L 327.24 213.88 L 325.79 216.10 L 324.27 218.27 L 322.64 220.37 L 320.88 222.33 L 318.94 224.11 L 316.82 225.64 L 314.52 226.90 L 312.09 227.85 L 309.56 228.47 L 306.96 228.75 L 304.35 228.71 L 301.77 228.31 L 299.25 227.59 L 296.84 226.57 L 294.56 225.27 L 292.39 223.75 L 290.32 222.08 L 288.32 220.33 L 286.37 218.52 L 284.45 216.70 L 282.53 214.86 L 280.62 213.03 L 278.71 211.19 L 276.80 209.36 L 274.88 207.53 L 272.97 205.69 L 271.06 203.86 L 269.14 202.02 L 267.23 200.19 L 265.32 198.35 L 263.41 196.51 L 261.50 194.67 L 259.60 192.83 L 257.69 190.99 L 255.78 189.15 L 253.87 187.31 L 251.96 185.48 L 250.05 183.64 L 248.13 181.80 L 246.22 179.96 L 244.31 178.13 L 242.40 176.30 L 240.48 174.46 L 238.58 172.62 L 236.67 170.79 L 234.77 168.95 L 232.86 167.10 L 230.97 165.25 L 229.09 163.38 L 227.25 161.48 L 225.46 159.53 L 223.72 157.54 L 222.04 155.49 L 220.43 153.39 L 218.87 151.24 L 217.38 149.06 L 215.96 146.83 L 214.60 144.56 L 213.31 142.25 L 212.09 139.91 L 210.94 137.53 L 209.85 135.11 L 208.84 132.66 L 207.91 130.19 L 207.04 127.69 L 206.25 125.17 L 205.54 122.62 L 204.90 120.06 L 204.34 117.47 L 203.85 114.87 L 203.44 112.26 L 203.11 109.64 L 202.86 107.01 L 202.68 104.37 L 202.58 101.73 L 202.56 99.08 L 202.61 96.44 L 202.75 93.80 L 202.96 91.16 L 203.25 88.54 L 203.62 85.92 L 204.06 83.31 L 204.58 80.72 L 205.18 78.15 L 205.85 75.59 L 206.60 73.06 L 207.43 70.55 L 208.32 68.06 L 209.29 65.60 L 210.34 63.17 L 211.45 60.77 L 212.63 58.40 L 213.88 56.08 L 215.20 53.79 L 216.58 51.53 L 218.03 49.33 L 219.55 47.16 L 221.13 45.04 L 222.78 42.98 L 224.48 40.95 L 226.24 38.98 L 228.05 37.06 L 229.93 35.20 L 231.85 33.38 L 233.84 31.63 L 235.87 29.94 L 237.95 28.31 L 240.08 26.75 L 242.25 25.24 L 244.46 23.79 L 246.72 22.42 L 249.02 21.11 L 251.35 19.88 L 253.72 18.71 L 256.13 17.61 L 258.56 16.57 L 261.03 15.62 L 263.52 14.73 L 266.03 13.92 L 268.57 13.18 L 271.13 12.52 L 273.71 11.94 L 276.31 11.43 L 278.91 11.00 L 281.53 10.65 L 284.16 10.37 L 286.80 10.17 L 289.44 10.04 L 292.08 10.00 L 294.72 10.03 L 297.36 10.14 L 300.00 10.33 L 302.63 10.59 L 305.25 10.94 L 307.85 11.36 L 310.45 11.85 L 313.03 12.43 L 315.59 13.08 L 318.13 13.81 L 320.65 14.60 L 323.15 15.47 L 325.61 16.42 L 328.05 17.43 L 330.46 18.52 L 332.83 19.68 L 335.17 20.91 L 337.47 22.21 L 339.73 23.57 L 341.96 25.00 L 344.14 26.49 L 346.27 28.06 L 348.36 29.67 L 350.39 31.35 L 352.38 33.09 L 354.31 34.89 L 356.19 36.75 L 358.02 38.66 L 359.79 40.62 L 361.49 42.63 L 363.14 44.69 L 364.74 46.80 L 366.26 48.95 L 367.72 51.15 L 369.12 53.39 L 370.45 55.67 L 371.71 57.99 L 372.91 60.35 L 374.02 62.74 L 375.08 65.17 L 376.06 67.62 L 376.96 70.10 L 377.80 72.60 L 378.56 75.13 L 379.25 77.68 L 379.86 80.25 L 380.39 82.84 L 380.85 85.43 L 381.23 88.05 L 381.53 90.67 L 381.76 93.30 L 381.91 95.93 L 381.98 98.58 L 381.97 101.22 L 381.88 103.86 L 381.72 106.49 L 381.48 109.12 L 381.16 111.74 L 380.77 114.35 L 380.29 116.95 L 379.74 119.54 L 379.13 122.10 L 378.42 124.64 L 377.65 127.17 L 376.80 129.68 L 375.88 132.15 L 374.89 134.59 L 373.83 137.01 L 372.69 139.39 L 371.49 141.75 L 370.23 144.07 L 368.92 146.36 L 367.56 148.63 L 366.18 150.88 L 364.80 153.13 L 363.41 155.38 Z" />
</symbol>
<symbol id="bl2">
<path d="M 466.25 238.76 L 465.33 240.38 L 464.35 241.98 L 463.32 243.55 L 462.24 245.07 L 461.11 246.56 L 459.93 248.01 L 458.70 249.41 L 457.43 250.78 L 456.12 252.12 L 454.77 253.39 L 453.36 254.63 L 451.93 255.83 L 450.44 256.97 L 448.93 258.07 L 447.38 259.11 L 445.80 260.10 L 444.18 261.04 L 442.54 261.93 L 440.86 262.75 L 439.16 263.53 L 437.44 264.25 L 435.69 264.90 L 433.92 265.51 L 432.13 266.06 L 430.33 266.55 L 428.51 266.99 L 426.68 267.38 L 424.84 267.74 L 423.00 268.07 L 421.16 268.38 L 419.32 268.68 L 417.47 268.99 L 415.63 269.29 L 413.78 269.60 L 411.93 269.90 L 410.08 270.21 L 408.23 270.51 L 406.39 270.82 L 404.54 271.12 L 402.69 271.43 L 400.84 271.73 L 398.99 272.04 L 397.15 272.35 L 395.30 272.65 L 393.46 272.96 L 391.62 273.26 L 389.77 273.56 L 387.93 273.87 L 386.09 274.17 L 384.24 274.48 L 382.39 274.79 L 380.54 275.09 L 378.69 275.40 L 376.84 275.70 L 375.00 276.01 L 373.15 276.31 L 371.30 276.62 L 369.45 276.93 L 367.60 277.24 L 365.76 277.57 L 363.92 277.92 L 362.08 278.27 L 360.24 278.63 L 358.40 279.00 L 356.56 279.37 L 354.72 279.74 L 352.88 280.11 L 351.05 280.48 L 349.21 280.84 L 347.37 281.18 L 345.53 281.49 L 343.68 281.72 L 341.83 281.86 L 339.97 281.90 L 338.10 281.82 L 336.25 281.63 L 334.41 281.33 L 332.60 280.92 L 330.82 280.40 L 329.06 279.77 L 327.35 279.04 L 325.69 278.20 L 324.07 277.27 L 322.52 276.24 L 321.04 275.11 L 319.63 273.90 L 318.29 272.60 L 317.04 271.22 L 315.87 269.75 L 314.78 268.19 L 313.78 266.56 L 312.87 264.86 L 312.06 263.13 L 311.37 261.37 L 310.79 259.58 L 310.32 257.78 L 309.98 255.95 L 309.74 254.11 L 309.62 252.25 L 309.61 250.40 L 309.72 248.54 L 309.94 246.70 L 310.27 244.87 L 310.71 243.06 L 311.25 241.28 L 311.91 239.54 L 312.67 237.85 L 313.53 236.20 L 314.49 234.61 L 315.54 233.07 L 316.68 231.60 L 317.89 230.19 L 319.16 228.82 L 320.46 227.48 L 321.77 226.15 L 323.09 224.82 L 324.41 223.49 L 325.73 222.17 L 327.05 220.84 L 328.37 219.51 L 329.69 218.19 L 331.01 216.87 L 332.33 215.54 L 333.65 214.22 L 334.97 212.89 L 336.29 211.57 L 337.61 210.25 L 338.93 208.93 L 340.26 207.61 L 341.57 206.29 L 342.89 204.96 L 344.21 203.64 L 345.53 202.32 L 346.85 200.99 L 348.16 199.67 L 349.48 198.34 L 350.79 197.02 L 352.11 195.70 L 353.43 194.37 L 354.75 193.04 L 356.07 191.72 L 357.39 190.40 L 358.71 189.08 L 360.03 187.75 L 361.35 186.43 L 362.67 185.10 L 363.99 183.78 L 365.31 182.45 L 366.63 181.13 L 367.95 179.80 L 369.28 178.48 L 370.60 177.16 L 371.92 175.85 L 373.24 174.53 L 374.57 173.22 L 375.91 171.92 L 377.27 170.64 L 378.66 169.38 L 380.07 168.16 L 381.53 166.99 L 383.01 165.86 L 384.53 164.78 L 386.09 163.75 L 387.69 162.78 L 389.31 161.85 L 390.96 160.98 L 392.64 160.16 L 394.35 159.40 L 396.08 158.70 L 397.83 158.06 L 399.60 157.47 L 401.40 156.95 L 403.20 156.48 L 405.02 156.07 L 406.86 155.72 L 408.71 155.43 L 410.56 155.20 L 412.42 155.04 L 414.29 154.94 L 416.15 154.89 L 418.02 154.91 L 419.89 154.99 L 421.76 155.13 L 423.61 155.34 L 425.46 155.60 L 427.30 155.92 L 429.13 156.31 L 430.94 156.76 L 432.74 157.26 L 434.52 157.83 L 436.28 158.45 L 438.02 159.13 L 439.74 159.87 L 441.43 160.66 L 443.09 161.51 L 444.72 162.41 L 446.33 163.37 L 447.91 164.38 L 449.45 165.44 L 450.95 166.55 L 452.41 167.71 L 453.84 168.92 L 455.22 170.18 L 456.57 171.48 L 457.87 172.82 L 459.13 174.20 L 460.34 175.62 L 461.50 177.09 L 462.61 178.60 L 463.67 180.13 L 464.68 181.71 L 465.64 183.31 L 466.55 184.95 L 467.39 186.61 L 468.19 188.30 L 468.94 190.02 L 469.62 191.76 L 470.24 193.52 L 470.81 195.30 L 471.32 197.10 L 471.76 198.91 L 472.15 200.74 L 472.47 202.58 L 472.74 204.43 L 472.94 206.29 L 473.08 208.15 L 473.17 210.02 L 473.19 211.89 L 473.15 213.76 L 473.05 215.62 L 472.88 217.48 L 472.66 219.34 L 472.37 221.19 L 472.03 223.03 L 471.62 224.85 L 471.15 226.66 L 470.63 228.45 L 470.04 230.22 L 469.39 231.98 L 468.69 233.72 L 467.93 235.43 L 467.11 237.11 Z" />
</symbol>
<symbol id="bl3">
<path d="M 390.78 284.33 L 392.31 285.54 L 393.77 286.83 L 395.16 288.21 L 396.46 289.67 L 397.68 291.19 L 398.81 292.78 L 399.84 294.44 L 400.79 296.14 L 401.63 297.90 L 402.37 299.71 L 403.01 301.56 L 403.54 303.43 L 403.96 305.34 L 404.28 307.26 L 404.49 309.20 L 404.58 311.15 L 404.57 313.10 L 404.44 315.05 L 404.21 316.99 L 403.86 318.90 L 403.41 320.80 L 402.84 322.67 L 402.18 324.50 L 401.41 326.29 L 400.54 328.04 L 399.57 329.74 L 398.51 331.37 L 397.35 332.95 L 396.11 334.46 L 394.79 335.89 L 393.38 337.24 L 391.90 338.52 L 390.35 339.71 L 388.74 340.81 L 387.06 341.82 L 385.34 342.73 L 383.56 343.53 L 381.74 344.24 L 379.89 344.84 L 378.00 345.34 L 376.09 345.72 L 374.16 346.00 L 372.21 346.17 L 370.26 346.23 L 368.31 346.18 L 366.36 346.01 L 364.43 345.74 L 362.52 345.35 L 360.63 344.86 L 358.77 344.26 L 356.95 343.56 L 355.17 342.76 L 353.44 341.85 L 351.77 340.85 L 350.15 339.76 L 348.60 338.57 L 347.11 337.30 L 345.71 335.95 L 344.38 334.52 L 343.14 333.01 L 341.98 331.44 L 340.91 329.81 L 339.93 328.12 L 339.03 326.39 L 338.20 324.61 L 337.41 322.82 L 336.65 321.02 L 335.90 319.21 L 335.17 317.40 L 334.43 315.58 L 333.69 313.76 L 332.95 311.94 L 332.22 310.13 L 331.48 308.31 L 330.75 306.49 L 330.01 304.67 L 329.27 302.86 L 328.54 301.04 L 327.80 299.23 L 327.06 297.42 L 326.32 295.61 L 325.59 293.80 L 324.85 291.98 L 324.11 290.16 L 323.38 288.35 L 322.64 286.53 L 321.90 284.71 L 321.16 282.90 L 320.42 281.08 L 319.66 279.28 L 318.88 277.48 L 318.09 275.69 L 317.27 273.91 L 316.43 272.13 L 315.56 270.37 L 314.65 268.59 L 313.72 266.81 L 312.78 265.03 L 311.84 263.28 L 310.91 261.54 L 309.99 259.82 L 309.06 258.12 L 308.14 256.42 L 307.23 254.73 L 306.31 253.03 L 305.40 251.33 L 304.49 249.63 L 303.57 247.93 L 302.66 246.23 L 301.75 244.53 L 300.83 242.83 L 299.92 241.13 L 299.01 239.44 L 298.10 237.74 L 297.19 236.04 L 296.27 234.34 L 295.36 232.64 L 294.44 230.94 L 293.52 229.24 L 292.60 227.54 L 291.69 225.84 L 290.77 224.14 L 289.87 222.44 L 288.98 220.72 L 288.13 219.00 L 287.37 217.23 L 286.73 215.43 L 286.22 213.58 L 285.87 211.70 L 285.70 209.79 L 285.70 207.88 L 285.87 205.98 L 286.22 204.10 L 286.75 202.26 L 287.45 200.48 L 288.31 198.78 L 289.33 197.16 L 290.49 195.64 L 291.80 194.24 L 293.23 192.98 L 294.79 191.85 L 296.47 190.89 L 298.29 190.09 L 300.25 189.45 L 302.35 188.99 L 304.52 188.71 L 306.65 188.61 L 308.68 188.71 L 310.61 188.99 L 312.45 189.46 L 314.20 190.11 L 315.88 190.92 L 317.48 191.89 L 318.97 193.00 L 320.36 194.25 L 321.63 195.61 L 322.77 197.09 L 323.77 198.67 L 324.62 200.33 L 325.31 202.06 L 325.85 203.85 L 326.22 205.67 L 326.42 207.52 L 326.45 209.39 L 326.31 211.25 L 326.00 213.10 L 325.53 214.90 L 324.90 216.67 L 324.14 218.38 L 323.26 220.04 L 322.32 221.67 L 321.35 223.29 L 320.36 224.89 L 319.36 226.49 L 318.35 228.08 L 317.34 229.68 L 316.34 231.28 L 315.36 232.90 L 314.39 234.51 L 313.48 236.16 L 312.65 237.85 L 311.90 239.58 L 311.24 241.34 L 310.69 243.14 L 310.25 244.97 L 309.92 246.82 L 309.71 248.68 L 309.62 250.56 L 309.63 252.43 L 309.77 254.31 L 310.02 256.17 L 310.38 258.02 L 310.87 259.84 L 311.48 261.64 L 312.20 263.42 L 313.04 265.18 L 313.99 266.91 L 315.04 268.57 L 316.20 270.16 L 317.45 271.66 L 318.79 273.08 L 320.23 274.40 L 321.74 275.63 L 323.33 276.76 L 324.99 277.78 L 326.71 278.70 L 328.48 279.51 L 330.30 280.20 L 332.17 280.78 L 334.07 281.24 L 335.99 281.57 L 337.93 281.78 L 339.88 281.87 L 341.83 281.85 L 343.77 281.71 L 345.72 281.49 L 347.64 281.19 L 349.56 280.83 L 351.48 280.44 L 353.39 280.04 L 355.31 279.64 L 357.23 279.24 L 359.15 278.85 L 361.07 278.47 L 363.00 278.13 L 364.94 277.86 L 366.88 277.65 L 368.83 277.52 L 370.78 277.51 L 372.74 277.60 L 374.68 277.79 L 376.61 278.10 L 378.51 278.52 L 380.40 279.04 L 382.24 279.68 L 384.05 280.41 L 385.82 281.24 L 387.53 282.18 L 389.18 283.21 Z" />
</symbol>
</defs>
<!-- isDone: 0 -->
<rect width="700" height="500" style="fill:#fff;stroke-width:0" />
<use class="p0 borderLine" xlink:href="#bl0"/>
<use class="p1 borderLine" xlink:href="#bl1"/>
<use class="p2 borderLine" xlink:href="#bl2"/>
<use class="p3 borderLine" xlink:href="#bl3"/>
<use class="q0 outLine" xlink:href="#bl0"/>
<use class="q1 outLine" xlink:href="#bl1"/>
<use class="q2 outLine" xlink:href="#bl2"/>
<use class="q3 outLine" xlink:href="#bl3"/>
<circle onclick="fromCircle(8)" class="circle" cx="178.6943" cy="337.9999" r="145.7407" />
<text class="nLabel" x="178.69" y="333.00">111</text>
<text class="belong" x="178.69" y="343.00">(1)</text>
<circle onclick="fromCircle(4)" class="circle" cx="292.2336" cy="99.4953" r="82.9986" />
<text class="nLabel" x="292.23" y="94.50">36</text>
<text class="belong" x="292.23" y="104.50">(2)</text>
<circle onclick="fromCircle(5)" class="circle" cx="306.0426" cy="208.7789" r="13.8331" />
<text class="nLabel" x="306.04" y="203.78">1</text>
<text class="belong" x="306.04" y="213.78">(2, 4)</text>
<circle onclick="fromCircle(2)" class="circle" cx="416.6088" cy="211.5407" r="49.8759" />
<text class="nLabel" x="416.61" y="206.54">13</text>
<text class="belong" x="416.61" y="216.54">(3)</text>
<circle onclick="fromCircle(10)" class="circle" cx="340.2770" cy="251.2405" r="23.9596" />
<text class="nLabel" x="340.28" y="246.24">3</text>
<text class="belong" x="340.28" y="256.24">(1, 3)</text>
<circle onclick="fromCircle(1)" class="circle" cx="370.2559" cy="311.9269" r="27.6662" />
<text class="nLabel" x="370.26" y="306.93">4</text>
<text class="belong" x="370.26" y="316.93">(4)</text>
<g id="legendBox">
<rect class="p0 borderLine" x="500.00" y="50.00" width="30.00" height="15.00" />
<rect class="q0" x="500.00" y="50.00" width="30.00" height="15.00" />
<text class="legend" x="540.00" y="65.00">Male UP</text>
<rect class="p1 borderLine" x="500.00" y="90.00" width="30.00" height="15.00" />
<rect class="q1" x="500.00" y="90.00" width="30.00" height="15.00" />
<text class="legend" x="540.00" y="105.00">Male DOWN</text>
<rect class="p2 borderLine" x="500.00" y="130.00" width="30.00" height="15.00" />
<rect class="q2" x="500.00" y="130.00" width="30.00" height="15.00" />
<text class="legend" x="540.00" y="145.00">Female UP</text>
<rect class="p3 borderLine" x="500.00" y="170.00" width="30.00" height="15.00" />
<rect class="q3" x="500.00" y="170.00" width="30.00" height="15.00" />
<text class="legend" x="540.00" y="185.00">Female DOWN</text>
</g>
</svg>
