<svg xmlns="http://www.w3.org/2000/svg" xmlns:xlink="http://www.w3.org/1999/xlink" width="700" height="500">
<defs>
<style type="text/css"><![CDATA[
  .borderLine {
	   stroke: none;
	   fill-opacity:  0.4 ;
  }
  .outLine {
	   stroke-width:  1 ;
	   fill: none;
  }
  .circle {
	   stroke: #888888;
	   stroke-width: 0.5;
	   fill: none;
    pointer-events: all;
  }
  .nLabel {
	   font-family: Arial;
    pointer-events: none;
	   font-size: 10px;
	   text-anchor: middle;
	   alignment-baseline: central;
  }
  .belong {
	   font-family: Arial;
    pointer-events: none;
	   font-size: 5px;
	   text-anchor: middle;
	   alignment-baseline: central;
  }
  .legend {
    font-family: Arial;
    font-size: 15px;
  }
  #legendBox {
    display:  inline ;
  }
  .p0{
    stroke: none;
    fill: #e6194b;
  }
  .q0{
    fill: none;
    stroke: #e6194b;
  }
  .p1{
    stroke: none;
    fill: #3cb44b;
  }
  .q1{
    fill: none;
    stroke: #3cb44b;
  }
  .p2{
    stroke: none;
    fill: #ffe119;
  }
  .q2{
    fill: none;
    stroke: #ffe119;
  }
  .p3{
    stroke: none;
    fill: #0082c8;
  }
  .q3{
    fill: none;
    stroke: #0082c8;
  }
]]>
</style>
<symbol id="bl0">
<path d="M 307.87 369.85 L 305.39 371.73 L 302.99 373.73 L 300.70 375.84 L 298.50 378.05 L 296.42 380.37 L 294.44 382.78 L 292.58 385.28 L 290.84 387.86 L 289.22 390.53 L 287.73 393.26 L 286.36 396.07 L 285.13 398.92 L 284.04 401.84 L 283.07 404.80 L 282.23 407.81 L 281.49 410.84 L 280.80 413.89 L 280.10 416.94 L 279.36 419.98 L 278.53 422.99 L 277.61 425.97 L 276.59 428.93 L 275.46 431.84 L 274.23 434.71 L 272.89 437.53 L 271.46 440.30 L 269.92 443.02 L 268.29 445.69 L 266.56 448.29 L 264.73 450.83 L 262.82 453.29 L 260.82 455.69 L 258.73 458.02 L 256.56 460.26 L 254.31 462.42 L 251.98 464.50 L 249.58 466.50 L 247.10 468.41 L 244.56 470.23 L 241.96 471.95 L 239.29 473.57 L 236.57 475.10 L 233.79 476.53 L 230.96 477.85 L 228.09 479.08 L 225.17 480.19 L 222.22 481.21 L 219.23 482.11 L 216.21 482.90 L 213.16 483.59 L 210.09 484.16 L 207.00 484.63 L 203.89 484.97 L 200.78 485.21 L 197.66 485.33 L 194.53 485.34 L 191.41 485.24 L 188.29 485.02 L 185.18 484.68 L 182.09 484.24 L 179.02 483.68 L 175.96 483.02 L 172.94 482.24 L 169.94 481.35 L 166.98 480.36 L 164.05 479.26 L 161.17 478.05 L 158.33 476.74 L 155.54 475.32 L 152.81 473.81 L 150.13 472.20 L 147.52 470.49 L 144.97 468.69 L 142.48 466.80 L 140.06 464.81 L 137.72 462.75 L 135.45 460.59 L 133.26 458.36 L 131.16 456.04 L 129.14 453.66 L 127.21 451.20 L 125.37 448.68 L 123.62 446.08 L 121.97 443.43 L 120.42 440.71 L 118.96 437.94 L 117.61 435.13 L 116.36 432.26 L 115.21 429.35 L 114.17 426.40 L 113.24 423.42 L 112.41 420.40 L 111.70 417.36 L 111.10 414.29 L 110.61 411.20 L 110.23 408.10 L 109.97 404.98 L 109.82 401.86 L 109.78 398.73 L 109.86 395.61 L 110.05 392.49 L 110.35 389.37 L 110.77 386.27 L 111.30 383.19 L 111.94 380.13 L 112.69 377.09 L 113.55 374.09 L 114.52 371.12 L 115.60 368.18 L 116.78 365.29 L 118.07 362.44 L 119.46 359.64 L 120.95 356.89 L 122.54 354.20 L 124.23 351.56 L 126.02 348.99 L 127.89 346.49 L 129.86 344.06 L 131.91 341.70 L 134.04 339.41 L 136.26 337.21 L 138.56 335.09 L 140.93 333.05 L 143.37 331.10 L 145.89 329.24 L 148.47 327.47 L 151.12 325.80 L 153.82 324.22 L 156.58 322.75 L 159.39 321.38 L 162.24 320.10 L 165.15 318.94 L 168.09 317.88 L 171.07 316.93 L 174.08 316.08 L 177.12 315.35 L 180.19 314.73 L 183.27 314.22 L 186.37 313.82 L 189.49 313.53 L 192.61 313.36 L 195.74 313.31 L 198.87 313.36 L 201.99 313.53 L 205.11 313.82 L 208.21 314.22 L 211.30 314.72 L 214.37 315.35 L 217.41 316.08 L 220.43 316.92 L 223.41 317.87 L 226.36 318.93 L 229.27 320.09 L 232.14 321.35 L 234.98 322.67 L 237.79 324.06 L 240.60 325.45 L 243.42 326.82 L 246.28 328.10 L 249.19 329.25 L 252.15 330.24 L 255.16 331.07 L 258.22 331.72 L 261.31 332.19 L 264.41 332.48 L 267.53 332.59 L 270.66 332.52 L 273.77 332.27 L 276.86 331.84 L 279.92 331.23 L 282.95 330.44 L 285.92 329.48 L 288.83 328.34 L 291.67 327.05 L 294.42 325.58 L 297.09 323.97 L 299.67 322.19 L 302.13 320.27 L 304.48 318.22 L 306.72 316.04 L 308.84 313.74 L 310.87 311.35 L 312.82 308.91 L 314.74 306.44 L 316.69 304.01 L 318.75 301.69 L 320.95 299.51 L 323.32 297.53 L 325.85 295.77 L 328.53 294.25 L 331.35 292.98 L 334.26 291.99 L 337.26 291.27 L 340.32 290.84 L 343.39 290.70 L 346.47 290.85 L 349.53 291.30 L 352.53 292.04 L 355.47 293.09 L 358.33 294.45 L 361.12 296.13 L 363.79 298.12 L 366.31 300.37 L 368.58 302.81 L 370.56 305.41 L 372.24 308.12 L 373.61 310.94 L 374.68 313.86 L 375.45 316.86 L 375.94 319.92 L 376.13 323.01 L 376.03 326.11 L 375.63 329.19 L 374.95 332.21 L 373.98 335.15 L 372.74 338.00 L 371.24 340.70 L 369.49 343.26 L 367.50 345.64 L 365.30 347.82 L 362.90 349.78 L 360.33 351.51 L 357.61 352.99 L 354.76 354.22 L 351.80 355.19 L 348.78 355.94 L 345.70 356.52 L 342.61 357.01 L 339.51 357.48 L 336.42 358.00 L 333.35 358.59 L 330.32 359.31 L 327.32 360.16 L 324.36 361.15 L 321.45 362.27 L 318.60 363.53 L 315.81 364.92 L 313.09 366.44 L 310.44 368.08 Z" />
</symbol>
<symbol id="bl1">
<path d="M 319.25 236.64 L 319.52 240.50 L 319.78 244.37 L 320.04 248.23 L 320.30 252.10 L 320.55 255.97 L 320.81 259.84 L 321.05 263.71 L 321.27 267.58 L 321.44 271.46 L 321.53 275.33 L 321.49 279.20 L 321.26 283.06 L 320.79 286.88 L 320.06 290.67 L 319.07 294.39 L 317.82 298.04 L 316.30 301.58 L 314.54 305.01 L 312.53 308.30 L 310.29 311.44 L 307.84 314.41 L 305.17 317.20 L 302.31 319.79 L 299.27 322.16 L 296.06 324.31 L 292.71 326.23 L 289.23 327.89 L 285.64 329.30 L 281.96 330.45 L 278.21 331.33 L 274.40 331.94 L 270.55 332.27 L 266.69 332.32 L 262.84 332.10 L 259.02 331.59 L 255.24 330.82 L 251.53 329.77 L 247.90 328.46 L 244.38 326.90 L 240.97 325.09 L 237.69 323.05 L 234.53 320.82 L 231.50 318.42 L 228.57 315.89 L 225.68 313.29 L 222.83 310.65 L 219.98 308.01 L 217.14 305.36 L 214.29 302.71 L 211.45 300.06 L 208.61 297.41 L 205.77 294.75 L 202.93 292.10 L 200.09 289.45 L 197.25 286.80 L 194.41 284.15 L 191.57 281.50 L 188.73 278.85 L 185.90 276.20 L 183.06 273.55 L 180.22 270.90 L 177.38 268.25 L 174.54 265.60 L 171.70 262.95 L 168.86 260.30 L 166.03 257.65 L 163.19 255.00 L 160.35 252.35 L 157.51 249.70 L 154.67 247.05 L 151.84 244.41 L 149.00 241.76 L 146.16 239.11 L 143.33 236.46 L 140.49 233.81 L 137.66 231.17 L 134.82 228.52 L 131.99 225.87 L 129.15 223.23 L 126.32 220.58 L 123.49 217.92 L 120.67 215.26 L 117.87 212.58 L 115.11 209.86 L 112.40 207.09 L 109.76 204.25 L 107.20 201.34 L 104.73 198.36 L 102.36 195.30 L 100.09 192.16 L 97.93 188.95 L 95.88 185.66 L 93.94 182.32 L 92.11 178.91 L 90.39 175.44 L 88.80 171.91 L 87.32 168.33 L 85.97 164.70 L 84.73 161.03 L 83.62 157.32 L 82.64 153.58 L 81.77 149.80 L 81.04 146.00 L 80.44 142.18 L 79.96 138.34 L 79.61 134.49 L 79.39 130.62 L 79.30 126.75 L 79.34 122.88 L 79.50 119.01 L 79.80 115.15 L 80.23 111.30 L 80.78 107.47 L 81.46 103.66 L 82.27 99.87 L 83.21 96.11 L 84.27 92.39 L 85.46 88.71 L 86.76 85.06 L 88.19 81.46 L 89.74 77.91 L 91.40 74.41 L 93.18 70.97 L 95.08 67.60 L 97.08 64.29 L 99.20 61.04 L 101.42 57.87 L 103.75 54.78 L 106.18 51.76 L 108.71 48.83 L 111.33 45.98 L 114.05 43.22 L 116.86 40.56 L 119.76 37.99 L 122.74 35.51 L 125.80 33.14 L 128.94 30.88 L 132.15 28.71 L 135.44 26.66 L 138.79 24.72 L 142.20 22.89 L 145.67 21.17 L 149.20 19.57 L 152.77 18.09 L 156.40 16.73 L 160.07 15.49 L 163.77 14.38 L 167.52 13.39 L 171.29 12.52 L 175.09 11.78 L 178.91 11.17 L 182.75 10.68 L 186.60 10.32 L 190.47 10.10 L 194.34 10.00 L 198.21 10.03 L 202.08 10.19 L 205.94 10.48 L 209.78 10.90 L 213.61 11.44 L 217.42 12.12 L 221.21 12.91 L 224.96 13.84 L 228.69 14.89 L 232.37 16.06 L 236.02 17.35 L 239.62 18.77 L 243.17 20.31 L 246.66 21.96 L 250.10 23.73 L 253.48 25.61 L 256.80 27.60 L 260.04 29.71 L 263.21 31.92 L 266.31 34.23 L 269.32 36.65 L 272.26 39.17 L 275.11 41.78 L 277.86 44.49 L 280.53 47.28 L 283.11 50.17 L 285.58 53.14 L 287.96 56.18 L 290.23 59.31 L 292.39 62.51 L 294.45 65.78 L 296.40 69.13 L 298.23 72.53 L 299.95 75.99 L 301.55 79.51 L 303.04 83.07 L 304.40 86.69 L 305.64 90.35 L 306.76 94.05 L 307.76 97.78 L 308.63 101.55 L 309.38 105.34 L 310.01 109.15 L 310.52 112.99 L 310.95 116.83 L 311.31 120.69 L 311.62 124.55 L 311.91 128.41 L 312.18 132.27 L 312.45 136.13 L 312.71 139.99 L 312.97 143.86 L 313.23 147.72 L 313.49 151.58 L 313.75 155.45 L 314.01 159.31 L 314.28 163.18 L 314.54 167.04 L 314.80 170.90 L 315.06 174.77 L 315.33 178.64 L 315.59 182.50 L 315.85 186.37 L 316.11 190.23 L 316.38 194.10 L 316.64 197.96 L 316.90 201.83 L 317.16 205.70 L 317.42 209.56 L 317.69 213.43 L 317.95 217.30 L 318.21 221.16 L 318.47 225.03 L 318.73 228.90 L 318.99 232.77 Z" />
</symbol>
<symbol id="bl2">
<path d="M 405.55 304.17 L 404.61 305.23 L 403.68 306.28 L 402.74 307.33 L 401.80 308.38 L 400.86 309.43 L 399.92 310.48 L 398.98 311.54 L 398.04 312.59 L 397.09 313.65 L 396.15 314.70 L 395.20 315.76 L 394.26 316.82 L 393.32 317.87 L 392.38 318.93 L 391.44 319.99 L 390.50 321.04 L 389.56 322.10 L 388.62 323.15 L 387.68 324.20 L 386.74 325.26 L 385.79 326.31 L 384.85 327.36 L 383.91 328.42 L 382.97 329.48 L 382.03 330.53 L 381.08 331.59 L 380.14 332.65 L 379.20 333.70 L 378.25 334.76 L 377.31 335.82 L 376.38 336.87 L 375.44 337.93 L 374.50 338.99 L 373.55 340.04 L 372.61 341.09 L 371.66 342.15 L 370.71 343.20 L 369.76 344.25 L 368.79 345.28 L 367.81 346.30 L 366.80 347.29 L 365.76 348.26 L 364.69 349.18 L 363.58 350.05 L 362.44 350.89 L 361.26 351.67 L 360.05 352.40 L 358.82 353.08 L 357.55 353.71 L 356.26 354.28 L 354.95 354.80 L 353.61 355.26 L 352.26 355.67 L 350.89 356.02 L 349.50 356.30 L 348.11 356.53 L 346.71 356.70 L 345.30 356.81 L 343.89 356.86 L 342.48 356.86 L 341.07 356.79 L 339.67 356.67 L 338.29 356.49 L 336.91 356.24 L 335.54 355.94 L 334.18 355.59 L 332.85 355.18 L 331.53 354.71 L 330.23 354.19 L 328.95 353.61 L 327.70 352.98 L 326.48 352.30 L 325.29 351.56 L 324.13 350.78 L 323.00 349.95 L 321.91 349.08 L 320.86 348.16 L 319.84 347.19 L 318.87 346.19 L 317.94 345.14 L 317.06 344.06 L 316.22 342.94 L 315.42 341.78 L 314.68 340.59 L 313.99 339.38 L 313.35 338.13 L 312.76 336.86 L 312.23 335.57 L 311.75 334.25 L 311.32 332.92 L 310.96 331.56 L 310.65 330.20 L 310.39 328.82 L 310.20 327.43 L 310.06 326.04 L 309.98 324.64 L 309.97 323.24 L 310.00 321.84 L 310.10 320.44 L 310.26 319.05 L 310.48 317.67 L 310.75 316.29 L 311.08 314.93 L 311.47 313.59 L 311.91 312.25 L 312.41 310.94 L 312.96 309.66 L 313.56 308.39 L 314.22 307.16 L 314.93 305.95 L 315.69 304.77 L 316.49 303.62 L 317.34 302.50 L 318.21 301.40 L 319.11 300.32 L 320.03 299.26 L 320.97 298.21 L 321.90 297.16 L 322.83 296.12 L 323.76 295.07 L 324.70 294.02 L 325.63 292.97 L 326.56 291.92 L 327.50 290.88 L 328.44 289.83 L 329.37 288.79 L 330.31 287.75 L 331.25 286.70 L 332.19 285.66 L 333.12 284.61 L 334.06 283.56 L 335.00 282.51 L 335.93 281.46 L 336.87 280.41 L 337.81 279.37 L 338.75 278.32 L 339.68 277.27 L 340.62 276.22 L 341.55 275.17 L 342.49 274.13 L 343.42 273.08 L 344.36 272.04 L 345.29 270.99 L 346.23 269.95 L 347.16 268.90 L 348.10 267.85 L 349.04 266.81 L 349.98 265.76 L 350.91 264.71 L 351.85 263.66 L 352.79 262.61 L 353.72 261.56 L 354.66 260.52 L 355.60 259.47 L 356.54 258.43 L 357.48 257.38 L 358.42 256.34 L 359.36 255.29 L 360.29 254.25 L 361.24 253.21 L 362.19 252.18 L 363.18 251.18 L 364.19 250.20 L 365.22 249.25 L 366.29 248.35 L 367.40 247.49 L 368.55 246.68 L 369.72 245.92 L 370.93 245.20 L 372.16 244.54 L 373.43 243.93 L 374.71 243.37 L 376.02 242.87 L 377.35 242.42 L 378.70 242.04 L 380.06 241.70 L 381.44 241.42 L 382.82 241.21 L 384.22 241.05 L 385.61 240.94 L 387.01 240.90 L 388.42 240.92 L 389.82 240.99 L 391.21 241.13 L 392.60 241.32 L 393.99 241.57 L 395.35 241.88 L 396.71 242.25 L 398.05 242.67 L 399.37 243.16 L 400.66 243.69 L 401.94 244.28 L 403.19 244.92 L 404.41 245.61 L 405.61 246.36 L 406.77 247.15 L 407.89 248.00 L 408.98 248.89 L 410.02 249.82 L 411.03 250.79 L 412.00 251.81 L 412.92 252.87 L 413.80 253.97 L 414.64 255.10 L 415.42 256.27 L 416.16 257.47 L 416.84 258.70 L 417.47 259.95 L 418.04 261.24 L 418.57 262.54 L 419.04 263.87 L 419.45 265.21 L 419.80 266.58 L 420.10 267.95 L 420.34 269.34 L 420.52 270.73 L 420.64 272.13 L 420.70 273.54 L 420.70 274.94 L 420.65 276.35 L 420.53 277.75 L 420.35 279.15 L 420.12 280.54 L 419.83 281.91 L 419.48 283.28 L 419.07 284.62 L 418.60 285.95 L 418.09 287.26 L 417.51 288.55 L 416.89 289.81 L 416.21 291.04 L 415.47 292.24 L 414.69 293.41 L 413.87 294.56 L 413.01 295.67 L 412.11 296.76 L 411.19 297.83 L 410.26 298.89 L 409.32 299.95 L 408.38 301.00 L 407.44 302.06 L 406.50 303.12 Z" />
</symbol>
<symbol id="bl3">
<path d="M 407.10 395.79 L 408.34 398.67 L 409.45 401.59 L 410.42 404.57 L 411.24 407.59 L 411.92 410.64 L 412.46 413.72 L 412.85 416.83 L 413.10 419.95 L 413.20 423.08 L 413.15 426.21 L 412.95 429.34 L 412.61 432.45 L 412.11 435.53 L 411.48 438.60 L 410.70 441.63 L 409.78 444.62 L 408.72 447.56 L 407.52 450.45 L 406.18 453.29 L 404.72 456.05 L 403.12 458.75 L 401.40 461.36 L 399.56 463.89 L 397.60 466.34 L 395.53 468.68 L 393.35 470.93 L 391.07 473.08 L 388.69 475.11 L 386.21 477.03 L 383.65 478.83 L 381.01 480.50 L 378.29 482.05 L 375.50 483.47 L 372.65 484.76 L 369.74 485.91 L 366.77 486.93 L 363.76 487.80 L 360.72 488.53 L 357.65 489.12 L 354.55 489.56 L 351.43 489.85 L 348.30 490.00 L 345.17 490.00 L 342.04 489.85 L 338.93 489.56 L 335.83 489.12 L 332.76 488.53 L 329.72 487.80 L 326.71 486.93 L 323.75 485.91 L 320.84 484.76 L 317.98 483.47 L 315.20 482.05 L 312.48 480.50 L 309.83 478.83 L 307.27 477.03 L 304.80 475.11 L 302.42 473.08 L 300.14 470.93 L 297.97 468.69 L 295.90 466.34 L 293.94 463.90 L 292.10 461.36 L 290.39 458.75 L 288.80 456.05 L 287.33 453.29 L 286.00 450.46 L 284.81 447.56 L 283.75 444.62 L 282.83 441.62 L 282.05 438.59 L 281.42 435.53 L 280.94 432.44 L 280.59 429.32 L 280.40 426.20 L 280.34 423.07 L 280.42 419.93 L 280.61 416.80 L 280.88 413.67 L 281.20 410.55 L 281.48 407.42 L 281.69 404.28 L 281.80 401.15 L 281.81 398.01 L 281.70 394.87 L 281.47 391.74 L 281.14 388.62 L 280.69 385.51 L 280.13 382.42 L 279.45 379.35 L 278.66 376.31 L 277.76 373.30 L 276.76 370.32 L 275.64 367.39 L 274.42 364.49 L 273.10 361.65 L 271.67 358.85 L 270.14 356.11 L 268.51 353.42 L 266.78 350.80 L 264.96 348.24 L 263.05 345.74 L 261.05 343.32 L 258.96 340.98 L 256.79 338.71 L 254.53 336.52 L 252.20 334.42 L 249.80 332.39 L 247.33 330.45 L 244.81 328.56 L 242.25 326.73 L 239.69 324.90 L 237.14 323.05 L 234.66 321.13 L 232.27 319.10 L 229.99 316.95 L 227.83 314.67 L 225.82 312.28 L 223.94 309.77 L 222.21 307.16 L 220.64 304.45 L 219.24 301.65 L 217.99 298.78 L 216.92 295.84 L 216.02 292.83 L 215.29 289.79 L 214.75 286.70 L 214.38 283.59 L 214.19 280.46 L 214.20 277.33 L 214.38 274.21 L 214.74 271.10 L 215.29 268.02 L 216.01 264.97 L 216.91 261.97 L 217.99 259.02 L 219.23 256.15 L 220.63 253.35 L 222.21 250.64 L 223.93 248.02 L 225.81 245.51 L 227.83 243.12 L 230.00 240.85 L 232.31 238.72 L 234.79 236.72 L 237.43 234.85 L 240.26 233.09 L 243.26 231.46 L 246.38 229.97 L 249.52 228.66 L 252.64 227.56 L 255.73 226.67 L 258.81 225.99 L 261.89 225.52 L 264.98 225.24 L 268.08 225.15 L 271.17 225.24 L 274.26 225.52 L 277.32 225.97 L 280.35 226.60 L 283.35 227.41 L 286.29 228.38 L 289.17 229.52 L 291.98 230.83 L 294.71 232.29 L 297.35 233.92 L 299.89 235.69 L 302.33 237.60 L 304.65 239.65 L 306.84 241.84 L 308.92 244.14 L 310.85 246.56 L 312.64 249.09 L 314.28 251.72 L 315.77 254.43 L 317.10 257.23 L 318.26 260.10 L 319.26 263.04 L 320.09 266.02 L 320.74 269.05 L 321.22 272.11 L 321.52 275.19 L 321.64 278.28 L 321.58 281.38 L 321.35 284.47 L 320.93 287.54 L 320.34 290.59 L 319.59 293.59 L 318.67 296.56 L 317.61 299.48 L 316.44 302.37 L 315.22 305.24 L 314.01 308.13 L 312.89 311.04 L 311.94 314.00 L 311.22 317.01 L 310.76 320.07 L 310.59 323.15 L 310.70 326.24 L 311.11 329.31 L 311.80 332.32 L 312.78 335.25 L 314.02 338.08 L 315.52 340.78 L 317.28 343.32 L 319.26 345.69 L 321.46 347.86 L 323.85 349.81 L 326.42 351.53 L 329.13 353.01 L 331.97 354.22 L 334.92 355.17 L 337.93 355.87 L 341.00 356.36 L 344.11 356.68 L 347.24 356.94 L 350.36 357.20 L 353.49 357.52 L 356.59 357.94 L 359.68 358.49 L 362.73 359.17 L 365.76 360.00 L 368.74 360.96 L 371.67 362.07 L 374.55 363.30 L 377.36 364.68 L 380.11 366.19 L 382.78 367.82 L 385.37 369.58 L 387.88 371.45 L 390.29 373.44 L 392.61 375.55 L 394.83 377.76 L 396.94 380.07 L 398.93 382.48 L 400.81 384.98 L 402.58 387.57 L 404.21 390.24 L 405.72 392.98 Z" />
</symbol>
</defs>
<!-- isDone: 0 -->
<rect width="700" height="500" style="fill:#fff;stroke-width:0" />
<use class="p0 borderLine" xlink:href="#bl0"/>
<use class="p1 borderLine" xlink:href="#bl1"/>
<use class="p2 borderLine" xlink:href="#bl2"/>
<use class="p3 borderLine" xlink:href="#bl3"/>
<use class="q0 outLine" xlink:href="#bl0"/>
<use class="q1 outLine" xlink:href="#bl1"/>
<use class="q2 outLine" xlink:href="#bl2"/>
<use class="q3 outLine" xlink:href="#bl3"/>
<circle onclick="fromCircle(8)" class="circle" cx="195.6248" cy="399.5021" r="81.1537" />
<text class="nLabel" x="195.62" y="394.50">33</text>
<text class="belong" x="195.62" y="404.50">(1)</text>
<circle onclick="fromCircle(4)" class="circle" cx="194.9519" cy="125.3041" r="111.2365" />
<text class="nLabel" x="194.95" y="120.30">62</text>
<text class="belong" x="194.95" y="130.30">(2)</text>
<circle onclick="fromCircle(5)" class="circle" cx="267.8729" cy="278.8327" r="48.9375" />
<text class="nLabel" x="267.87" y="273.83">12</text>
<text class="belong" x="267.87" y="283.83">(2, 4)</text>
<circle onclick="fromCircle(2)" class="circle" cx="387.4466" cy="274.2497" r="28.2541" />
<text class="nLabel" x="387.45" y="269.25">4</text>
<text class="belong" x="387.45" y="279.25">(3)</text>
<circle onclick="fromCircle(10)" class="circle" cx="343.4247" cy="323.5053" r="28.2541" />
<text class="nLabel" x="343.42" y="318.51">4</text>
<text class="belong" x="343.42" y="328.51">(1, 3)</text>
<circle onclick="fromCircle(1)" class="circle" cx="346.8730" cy="423.8351" r="61.5784" />
<text class="nLabel" x="346.87" y="418.84">19</text>
<text class="belong" x="346.87" y="428.84">(4)</text>
<circle onclick="fromCircle(9)" class="circle" cx="289.9088" cy="350.7193" r="14.1270" />
<text class="nLabel" x="289.91" y="345.72">1</text>
<text class="belong" x="289.91" y="355.72">(1, 4)</text>
<g id="legendBox">
<rect class="p0 borderLine" x="500.00" y="50.00" width="30.00" height="15.00" />
<rect class="q0" x="500.00" y="50.00" width="30.00" height="15.00" />
<text class="legend" x="540.00" y="65.00">Male UP</text>
<rect class="p1 borderLine" x="500.00" y="90.00" width="30.00" height="15.00" />
<rect class="q1" x="500.00" y="90.00" width="30.00" height="15.00" />
<text class="legend" x="540.00" y="105.00">Male DOWN</text>
<rect class="p2 borderLine" x="500.00" y="130.00" width="30.00" height="15.00" />
<rect class="q2" x="500.00" y="130.00" width="30.00" height="15.00" />
<text class="legend" x="540.00" y="145.00">Female UP</text>
<rect class="p3 borderLine" x="500.00" y="170.00" width="30.00" height="15.00" />
<rect class="q3" x="500.00" y="170.00" width="30.00" height="15.00" />
<text class="legend" x="540.00" y="185.00">Female DOWN</text>
</g>
</svg>
