<svg xmlns="http://www.w3.org/2000/svg" xmlns:xlink="http://www.w3.org/1999/xlink" width="700" height="500">
<defs>
<style type="text/css"><![CDATA[
  .borderLine {
	   stroke: none;
	   fill-opacity:  0.4 ;
  }
  .outLine {
	   stroke-width:  1 ;
	   fill: none;
  }
  .circle {
	   stroke: #888888;
	   stroke-width: 0.5;
	   fill: none;
    pointer-events: all;
  }
  .nLabel {
	   font-family: Arial;
    pointer-events: none;
	   font-size: 10px;
	   text-anchor: middle;
	   alignment-baseline: central;
  }
  .belong {
	   font-family: Arial;
    pointer-events: none;
	   font-size: 5px;
	   text-anchor: middle;
	   alignment-baseline: central;
  }
  .legend {
    font-family: Arial;
    font-size: 15px;
  }
  #legendBox {
    display:  inline ;
  }
  .p0{
    stroke: none;
    fill: #e6194b;
  }
  .q0{
    fill: none;
    stroke: #e6194b;
  }
  .p1{
    stroke: none;
    fill: #3cb44b;
  }
  .q1{
    fill: none;
    stroke: #3cb44b;
  }
  .p2{
    stroke: none;
    fill: #ffe119;
  }
  .q2{
    fill: none;
    stroke: #ffe119;
  }
  .p3{
    stroke: none;
    fill: #0082c8;
  }
  .q3{
    fill: none;
    stroke: #0082c8;
  }
]]>
</style>
<symbol id="bl0">
<path d="M 289.27 271.27 L 286.43 271.85 L 283.60 272.49 L 280.80 273.20 L 278.01 273.98 L 275.24 274.83 L 272.50 275.75 L 269.78 276.75 L 267.09 277.82 L 264.42 278.95 L 261.79 280.16 L 259.19 281.44 L 256.63 282.78 L 254.10 284.19 L 251.61 285.68 L 249.15 287.23 L 246.74 288.85 L 244.36 290.53 L 242.05 292.25 L 239.79 294.02 L 237.59 295.82 L 235.45 297.67 L 233.36 299.57 L 231.33 301.53 L 229.35 303.54 L 227.43 305.60 L 225.56 307.71 L 223.74 309.86 L 221.98 312.07 L 220.27 314.31 L 218.62 316.60 L 217.04 318.93 L 215.51 321.30 L 214.04 323.71 L 212.63 326.16 L 211.29 328.63 L 210.01 331.14 L 208.79 333.69 L 207.63 336.26 L 206.51 338.84 L 205.42 341.45 L 204.36 344.06 L 203.31 346.68 L 202.27 349.30 L 201.22 351.92 L 200.16 354.53 L 199.07 357.13 L 197.93 359.71 L 196.70 362.23 L 195.34 364.69 L 193.86 367.08 L 192.25 369.37 L 190.51 371.57 L 188.65 373.67 L 186.68 375.67 L 184.59 377.55 L 182.40 379.30 L 180.12 380.93 L 177.74 382.43 L 175.29 383.79 L 172.76 385.01 L 170.17 386.09 L 167.52 387.01 L 164.82 387.79 L 162.08 388.41 L 159.32 388.87 L 156.53 389.18 L 153.72 389.33 L 150.92 389.32 L 148.11 389.16 L 145.33 388.83 L 142.56 388.34 L 139.83 387.71 L 137.14 386.92 L 134.49 385.97 L 131.91 384.88 L 129.39 383.65 L 126.94 382.27 L 124.57 380.76 L 122.30 379.11 L 120.12 377.35 L 118.04 375.46 L 116.07 373.45 L 114.23 371.34 L 112.50 369.13 L 110.90 366.82 L 109.43 364.43 L 108.10 361.96 L 106.92 359.41 L 105.88 356.80 L 104.98 354.14 L 104.25 351.43 L 103.66 348.69 L 103.23 345.92 L 102.96 343.12 L 102.84 340.31 L 102.89 337.51 L 103.09 334.71 L 103.45 331.93 L 103.97 329.17 L 104.65 326.45 L 105.48 323.77 L 106.45 321.14 L 107.58 318.57 L 108.85 316.06 L 110.26 313.64 L 111.80 311.30 L 113.48 309.04 L 115.27 306.89 L 117.19 304.84 L 119.22 302.90 L 121.36 301.08 L 123.59 299.39 L 125.92 297.83 L 128.33 296.39 L 130.83 295.10 L 133.39 293.95 L 136.01 292.95 L 138.68 292.10 L 141.40 291.39 L 144.15 290.85 L 146.93 290.46 L 149.73 290.23 L 152.54 290.15 L 155.35 290.24 L 158.14 290.49 L 160.93 290.88 L 163.68 291.43 L 166.41 292.10 L 169.12 292.89 L 171.79 293.75 L 174.45 294.68 L 177.10 295.63 L 179.74 296.59 L 182.40 297.53 L 185.07 298.42 L 187.76 299.23 L 190.48 299.96 L 193.22 300.59 L 195.98 301.11 L 198.77 301.51 L 201.56 301.80 L 204.36 301.96 L 207.18 302.01 L 209.99 301.94 L 212.79 301.74 L 215.58 301.43 L 218.36 301.00 L 221.12 300.45 L 223.85 299.78 L 226.55 299.00 L 229.21 298.10 L 231.84 297.09 L 234.41 295.96 L 236.94 294.72 L 239.43 293.36 L 241.87 291.89 L 244.27 290.30 L 246.62 288.61 L 248.90 286.82 L 251.10 284.92 L 253.21 282.93 L 255.23 280.86 L 257.15 278.69 L 258.97 276.44 L 260.69 274.12 L 262.31 271.72 L 263.82 269.25 L 265.22 266.72 L 266.51 264.13 L 267.69 261.48 L 268.74 258.79 L 269.68 256.05 L 270.50 253.27 L 271.21 250.46 L 271.80 247.63 L 272.32 244.77 L 272.78 241.91 L 273.21 239.04 L 273.65 236.17 L 274.09 233.30 L 274.59 230.44 L 275.19 227.61 L 275.94 224.83 L 276.90 222.12 L 278.07 219.49 L 279.46 216.98 L 281.06 214.60 L 282.86 212.36 L 284.85 210.29 L 287.01 208.40 L 289.33 206.70 L 291.78 205.21 L 294.36 203.94 L 297.04 202.90 L 299.81 202.10 L 302.66 201.57 L 305.60 201.30 L 308.64 201.29 L 311.75 201.56 L 314.87 202.10 L 317.89 202.87 L 320.75 203.89 L 323.44 205.13 L 325.95 206.58 L 328.30 208.26 L 330.48 210.13 L 332.49 212.19 L 334.31 214.41 L 335.93 216.79 L 337.34 219.29 L 338.52 221.91 L 339.48 224.63 L 340.20 227.41 L 340.67 230.25 L 340.89 233.12 L 340.87 235.99 L 340.59 238.85 L 340.07 241.68 L 339.31 244.45 L 338.30 247.15 L 337.07 249.74 L 335.62 252.23 L 333.95 254.57 L 332.09 256.77 L 330.05 258.79 L 327.84 260.63 L 325.48 262.27 L 322.99 263.71 L 320.38 264.94 L 317.68 265.96 L 314.92 266.79 L 312.11 267.46 L 309.27 268.00 L 306.42 268.48 L 303.56 268.93 L 300.70 269.38 L 297.83 269.82 L 294.97 270.28 L 292.11 270.75 Z" />
</symbol>
<symbol id="bl1">
<path d="M 268.50 204.14 L 269.07 207.42 L 269.64 210.71 L 270.21 213.99 L 270.77 217.28 L 271.30 220.58 L 271.78 223.88 L 272.18 227.19 L 272.48 230.51 L 272.66 233.84 L 272.68 237.18 L 272.53 240.50 L 272.23 243.82 L 271.75 247.11 L 271.11 250.38 L 270.30 253.61 L 269.33 256.80 L 268.21 259.93 L 266.92 263.00 L 265.48 266.00 L 263.89 268.93 L 262.16 271.77 L 260.28 274.52 L 258.27 277.17 L 256.13 279.72 L 253.85 282.15 L 251.46 284.47 L 248.96 286.67 L 246.35 288.73 L 243.63 290.66 L 240.83 292.45 L 237.93 294.09 L 234.96 295.59 L 231.92 296.93 L 228.82 298.12 L 225.65 299.15 L 222.45 300.02 L 219.20 300.72 L 215.91 301.26 L 212.61 301.64 L 209.29 301.84 L 205.97 301.88 L 202.65 301.76 L 199.33 301.46 L 196.04 301.00 L 192.77 300.37 L 189.55 299.58 L 186.36 298.62 L 183.23 297.51 L 180.15 296.24 L 177.15 294.81 L 174.22 293.24 L 171.38 291.52 L 168.62 289.65 L 165.96 287.66 L 163.41 285.52 L 160.97 283.27 L 158.64 280.90 L 156.44 278.40 L 154.36 275.80 L 152.42 273.10 L 150.61 270.31 L 148.93 267.44 L 147.36 264.51 L 145.89 261.52 L 144.50 258.49 L 143.14 255.45 L 141.80 252.40 L 140.47 249.34 L 139.15 246.28 L 137.82 243.23 L 136.49 240.17 L 135.16 237.12 L 133.83 234.06 L 132.51 231.00 L 131.18 227.95 L 129.85 224.89 L 128.52 221.83 L 127.20 218.77 L 125.87 215.72 L 124.54 212.66 L 123.22 209.61 L 121.89 206.55 L 120.56 203.50 L 119.23 200.44 L 117.91 197.38 L 116.58 194.33 L 115.25 191.27 L 113.93 188.22 L 112.60 185.16 L 111.28 182.11 L 109.95 179.05 L 108.63 176.00 L 107.30 172.94 L 105.98 169.89 L 104.65 166.84 L 103.32 163.78 L 102.00 160.72 L 100.67 157.67 L 99.35 154.61 L 98.02 151.56 L 96.70 148.51 L 95.37 145.45 L 94.05 142.40 L 92.72 139.35 L 91.40 136.29 L 90.09 133.23 L 88.80 130.16 L 87.55 127.08 L 86.36 123.97 L 85.25 120.83 L 84.24 117.66 L 83.35 114.46 L 82.58 111.22 L 81.94 107.97 L 81.43 104.68 L 81.05 101.37 L 80.80 98.06 L 80.69 94.73 L 80.70 91.41 L 80.85 88.09 L 81.13 84.77 L 81.55 81.48 L 82.09 78.19 L 82.77 74.94 L 83.58 71.71 L 84.51 68.52 L 85.57 65.36 L 86.75 62.25 L 88.06 59.20 L 89.49 56.19 L 91.04 53.25 L 92.70 50.37 L 94.48 47.55 L 96.36 44.82 L 98.35 42.15 L 100.45 39.57 L 102.65 37.08 L 104.95 34.67 L 107.34 32.36 L 109.82 30.14 L 112.39 28.02 L 115.04 26.01 L 117.77 24.11 L 120.57 22.31 L 123.44 20.63 L 126.38 19.07 L 129.37 17.62 L 132.42 16.29 L 135.52 15.09 L 138.67 14.00 L 141.86 13.05 L 145.08 12.22 L 148.33 11.52 L 151.61 10.96 L 154.91 10.52 L 158.22 10.21 L 161.54 10.04 L 164.87 10.00 L 168.19 10.09 L 171.51 10.32 L 174.82 10.67 L 178.11 11.16 L 181.37 11.77 L 184.61 12.52 L 187.82 13.39 L 190.98 14.40 L 194.11 15.53 L 197.19 16.77 L 200.22 18.15 L 203.19 19.64 L 206.10 21.25 L 208.94 22.97 L 211.71 24.81 L 214.41 26.75 L 217.02 28.80 L 219.56 30.96 L 222.01 33.21 L 224.36 35.56 L 226.61 38.00 L 228.77 40.52 L 230.82 43.14 L 232.78 45.83 L 234.62 48.59 L 236.35 51.43 L 237.96 54.33 L 239.46 57.30 L 240.83 60.33 L 242.09 63.40 L 243.23 66.52 L 244.24 69.69 L 245.14 72.89 L 245.94 76.13 L 246.64 79.38 L 247.27 82.65 L 247.87 85.93 L 248.45 89.20 L 249.03 92.49 L 249.60 95.76 L 250.17 99.04 L 250.75 102.33 L 251.32 105.61 L 251.89 108.89 L 252.46 112.17 L 253.03 115.45 L 253.60 118.74 L 254.17 122.02 L 254.74 125.30 L 255.32 128.59 L 255.89 131.87 L 256.46 135.16 L 257.04 138.44 L 257.61 141.72 L 258.18 145.01 L 258.76 148.29 L 259.33 151.57 L 259.90 154.86 L 260.48 158.15 L 261.05 161.43 L 261.62 164.71 L 262.20 168.00 L 262.77 171.29 L 263.34 174.57 L 263.92 177.85 L 264.49 181.14 L 265.07 184.43 L 265.64 187.71 L 266.21 190.99 L 266.78 194.28 L 267.36 197.56 L 267.93 200.85 Z" />
</symbol>
<symbol id="bl2">
<path d="M 360.68 191.87 L 360.02 193.54 L 359.36 195.21 L 358.71 196.88 L 358.05 198.55 L 357.39 200.21 L 356.74 201.88 L 356.08 203.55 L 355.42 205.22 L 354.77 206.89 L 354.12 208.56 L 353.46 210.23 L 352.81 211.90 L 352.15 213.56 L 351.49 215.23 L 350.84 216.90 L 350.18 218.57 L 349.52 220.24 L 348.87 221.92 L 348.21 223.59 L 347.55 225.26 L 346.89 226.92 L 346.24 228.59 L 345.58 230.26 L 344.92 231.93 L 344.27 233.60 L 343.61 235.27 L 342.95 236.94 L 342.30 238.61 L 341.64 240.28 L 340.98 241.94 L 340.32 243.61 L 339.63 245.26 L 338.91 246.90 L 338.14 248.52 L 337.31 250.11 L 336.42 251.66 L 335.44 253.17 L 334.39 254.62 L 333.27 256.01 L 332.07 257.34 L 330.80 258.60 L 329.47 259.80 L 328.08 260.92 L 326.62 261.97 L 325.12 262.94 L 323.56 263.82 L 321.96 264.62 L 320.32 265.34 L 318.64 265.96 L 316.93 266.50 L 315.20 266.94 L 313.44 267.29 L 311.68 267.55 L 309.89 267.71 L 308.11 267.78 L 306.32 267.75 L 304.53 267.63 L 302.76 267.40 L 300.99 267.09 L 299.25 266.68 L 297.53 266.18 L 295.84 265.59 L 294.19 264.91 L 292.57 264.14 L 291.00 263.29 L 289.47 262.36 L 288.00 261.34 L 286.58 260.25 L 285.23 259.08 L 283.93 257.84 L 282.71 256.54 L 281.55 255.17 L 280.48 253.74 L 279.48 252.26 L 278.56 250.72 L 277.72 249.14 L 276.97 247.52 L 276.30 245.86 L 275.73 244.16 L 275.24 242.44 L 274.84 240.69 L 274.54 238.93 L 274.31 237.15 L 274.13 235.36 L 274.01 233.57 L 273.92 231.78 L 273.84 229.99 L 273.77 228.20 L 273.70 226.41 L 273.63 224.62 L 273.57 222.83 L 273.50 221.04 L 273.44 219.25 L 273.37 217.45 L 273.31 215.66 L 273.24 213.86 L 273.18 212.07 L 273.11 210.28 L 273.05 208.49 L 272.98 206.70 L 272.92 204.91 L 272.85 203.12 L 272.79 201.33 L 272.72 199.53 L 272.66 197.74 L 272.60 195.94 L 272.53 194.15 L 272.47 192.36 L 272.40 190.57 L 272.34 188.78 L 272.27 186.99 L 272.20 185.20 L 272.14 183.40 L 272.07 181.61 L 272.01 179.82 L 271.94 178.03 L 271.88 176.24 L 271.81 174.45 L 271.75 172.66 L 271.68 170.87 L 271.62 169.07 L 271.55 167.28 L 271.49 165.48 L 271.42 163.69 L 271.36 161.91 L 271.30 160.12 L 271.24 158.33 L 271.19 156.54 L 271.15 154.74 L 271.14 152.95 L 271.15 151.16 L 271.22 149.37 L 271.34 147.58 L 271.52 145.80 L 271.76 144.03 L 272.07 142.26 L 272.43 140.51 L 272.86 138.77 L 273.35 137.05 L 273.90 135.34 L 274.51 133.66 L 275.18 132.00 L 275.91 130.36 L 276.70 128.76 L 277.54 127.18 L 278.44 125.63 L 279.39 124.11 L 280.39 122.63 L 281.45 121.18 L 282.55 119.77 L 283.71 118.40 L 284.91 117.08 L 286.16 115.80 L 287.45 114.56 L 288.79 113.37 L 290.17 112.23 L 291.59 111.14 L 293.04 110.09 L 294.53 109.10 L 296.06 108.16 L 297.62 107.28 L 299.21 106.45 L 300.82 105.68 L 302.47 104.97 L 304.13 104.31 L 305.82 103.72 L 307.53 103.19 L 309.26 102.71 L 311.00 102.30 L 312.76 101.95 L 314.52 101.66 L 316.30 101.43 L 318.08 101.27 L 319.87 101.17 L 321.66 101.13 L 323.45 101.16 L 325.24 101.24 L 327.03 101.40 L 328.81 101.61 L 330.57 101.89 L 332.33 102.23 L 334.08 102.64 L 335.81 103.10 L 337.52 103.63 L 339.21 104.21 L 340.89 104.85 L 342.53 105.56 L 344.15 106.32 L 345.75 107.14 L 347.31 108.01 L 348.84 108.94 L 350.34 109.92 L 351.80 110.96 L 353.23 112.04 L 354.62 113.18 L 355.96 114.36 L 357.26 115.59 L 358.52 116.86 L 359.73 118.18 L 360.90 119.54 L 362.01 120.94 L 363.08 122.39 L 364.09 123.86 L 365.06 125.37 L 365.96 126.92 L 366.82 128.49 L 367.61 130.10 L 368.35 131.73 L 369.03 133.39 L 369.65 135.07 L 370.22 136.76 L 370.72 138.49 L 371.16 140.22 L 371.54 141.97 L 371.85 143.73 L 372.11 145.50 L 372.30 147.28 L 372.43 149.07 L 372.50 150.86 L 372.50 152.65 L 372.43 154.44 L 372.31 156.22 L 372.12 158.00 L 371.87 159.78 L 371.56 161.54 L 371.19 163.29 L 370.75 165.02 L 370.26 166.75 L 369.71 168.45 L 369.12 170.14 L 368.50 171.83 L 367.87 173.50 L 367.22 175.17 L 366.57 176.84 L 365.92 178.51 L 365.26 180.19 L 364.60 181.86 L 363.95 183.53 L 363.30 185.19 L 362.65 186.86 L 361.99 188.53 L 361.34 190.20 Z" />
</symbol>
<symbol id="bl3">
<path d="M 418.61 392.21 L 418.09 396.10 L 417.44 399.97 L 416.66 403.81 L 415.73 407.61 L 414.67 411.39 L 413.48 415.12 L 412.16 418.81 L 410.70 422.45 L 409.12 426.04 L 407.41 429.57 L 405.57 433.03 L 403.62 436.43 L 401.54 439.76 L 399.35 443.01 L 397.04 446.18 L 394.62 449.26 L 392.09 452.26 L 389.46 455.17 L 386.72 457.98 L 383.89 460.70 L 380.97 463.31 L 377.95 465.81 L 374.84 468.21 L 371.66 470.49 L 368.39 472.66 L 365.04 474.71 L 361.63 476.64 L 358.15 478.45 L 354.61 480.13 L 351.01 481.69 L 347.36 483.12 L 343.66 484.42 L 339.91 485.59 L 336.13 486.61 L 332.31 487.51 L 328.46 488.27 L 324.59 488.90 L 320.70 489.38 L 316.79 489.73 L 312.87 489.93 L 308.96 490.00 L 305.03 489.93 L 301.12 489.72 L 297.21 489.37 L 293.32 488.88 L 289.45 488.25 L 285.61 487.49 L 281.79 486.59 L 278.01 485.56 L 274.27 484.38 L 270.57 483.09 L 266.91 481.65 L 263.32 480.09 L 259.78 478.41 L 256.30 476.59 L 252.89 474.65 L 249.55 472.60 L 246.29 470.42 L 243.11 468.14 L 240.01 465.74 L 236.99 463.23 L 234.07 460.62 L 231.24 457.90 L 228.52 455.09 L 225.89 452.18 L 223.36 449.18 L 220.95 446.09 L 218.65 442.91 L 216.46 439.66 L 214.40 436.33 L 212.45 432.93 L 210.62 429.47 L 208.92 425.93 L 207.34 422.34 L 205.89 418.70 L 204.58 415.01 L 203.39 411.27 L 202.34 407.50 L 201.42 403.68 L 200.64 399.84 L 200.00 395.97 L 199.50 392.08 L 199.13 388.18 L 198.91 384.26 L 198.82 380.35 L 198.87 376.43 L 199.05 372.51 L 199.35 368.60 L 199.73 364.69 L 200.16 360.78 L 200.60 356.86 L 201.01 352.95 L 201.38 349.04 L 201.64 345.12 L 201.76 341.19 L 201.65 337.28 L 201.28 333.38 L 200.61 329.53 L 199.64 325.74 L 198.37 322.04 L 196.82 318.46 L 194.99 315.00 L 192.89 311.70 L 190.54 308.57 L 187.96 305.63 L 185.17 302.88 L 182.22 300.29 L 179.16 297.81 L 176.04 295.42 L 172.89 293.06 L 169.77 290.67 L 166.70 288.21 L 163.72 285.66 L 160.86 282.97 L 158.15 280.13 L 155.61 277.14 L 153.25 274.02 L 151.09 270.75 L 149.12 267.36 L 147.35 263.86 L 145.80 260.27 L 144.47 256.58 L 143.35 252.82 L 142.47 249.01 L 141.81 245.14 L 141.38 241.25 L 141.19 237.33 L 141.24 233.41 L 141.51 229.50 L 142.02 225.62 L 142.76 221.77 L 143.73 217.97 L 144.92 214.24 L 146.33 210.59 L 147.96 207.02 L 149.80 203.57 L 151.84 200.22 L 154.08 197.00 L 156.51 193.92 L 159.11 190.99 L 161.89 188.23 L 164.83 185.64 L 167.92 183.23 L 171.17 181.02 L 174.59 179.01 L 178.19 177.19 L 182.00 175.56 L 186.02 174.11 L 190.15 172.87 L 194.30 171.87 L 198.37 171.14 L 202.37 170.67 L 206.32 170.47 L 210.25 170.52 L 214.15 170.83 L 218.03 171.37 L 221.86 172.15 L 225.64 173.16 L 229.35 174.38 L 232.98 175.83 L 236.52 177.49 L 239.96 179.36 L 243.27 181.43 L 246.46 183.70 L 249.51 186.15 L 252.41 188.78 L 255.14 191.57 L 257.71 194.53 L 260.09 197.63 L 262.29 200.87 L 264.29 204.23 L 266.08 207.70 L 267.67 211.28 L 269.05 214.94 L 270.23 218.67 L 271.24 222.46 L 272.12 226.28 L 272.93 230.12 L 273.72 233.97 L 274.59 237.80 L 275.64 241.59 L 276.92 245.29 L 278.52 248.85 L 280.49 252.20 L 282.82 255.31 L 285.49 258.12 L 288.48 260.59 L 291.75 262.70 L 295.23 264.44 L 298.89 265.80 L 302.67 266.86 L 306.51 267.71 L 310.39 268.42 L 314.28 269.04 L 318.17 269.63 L 322.06 270.23 L 325.94 270.85 L 329.80 271.57 L 333.64 272.39 L 337.45 273.34 L 341.23 274.42 L 344.96 275.63 L 348.65 276.97 L 352.29 278.44 L 355.87 280.04 L 359.39 281.76 L 362.85 283.61 L 366.24 285.58 L 369.56 287.68 L 372.81 289.88 L 375.97 292.21 L 379.04 294.64 L 382.03 297.18 L 384.93 299.82 L 387.72 302.57 L 390.42 305.41 L 393.02 308.35 L 395.51 311.38 L 397.89 314.50 L 400.16 317.70 L 402.31 320.97 L 404.35 324.32 L 406.26 327.75 L 408.05 331.23 L 409.71 334.78 L 411.25 338.39 L 412.66 342.05 L 413.94 345.75 L 415.08 349.50 L 416.09 353.29 L 416.96 357.11 L 417.70 360.97 L 418.30 364.84 L 418.76 368.73 L 419.08 372.64 L 419.27 376.56 L 419.31 380.47 L 419.22 384.39 L 418.98 388.30 Z" />
</symbol>
</defs>
<!-- isDone: 0 -->
<rect width="700" height="500" style="fill:#fff;stroke-width:0" />
<use class="p0 borderLine" xlink:href="#bl0"/>
<use class="p1 borderLine" xlink:href="#bl1"/>
<use class="p2 borderLine" xlink:href="#bl2"/>
<use class="p3 borderLine" xlink:href="#bl3"/>
<use class="q0 outLine" xlink:href="#bl0"/>
<use class="q1 outLine" xlink:href="#bl1"/>
<use class="q2 outLine" xlink:href="#bl2"/>
<use class="q3 outLine" xlink:href="#bl3"/>
<circle onclick="fromCircle(8)" class="circle" cx="152.3186" cy="339.9213" r="44.9953" />
<text class="nLabel" x="152.32" y="334.92">27</text>
<text class="belong" x="152.32" y="344.92">(1)</text>
<circle onclick="fromCircle(4)" class="circle" cx="164.0249" cy="93.1572" r="78.8905" />
<text class="nLabel" x="164.02" y="88.16">83</text>
<text class="belong" x="164.02" y="98.16">(2)</text>
<circle onclick="fromCircle(5)" class="circle" cx="206.8126" cy="236.0754" r="61.2309" />
<text class="nLabel" x="206.81" y="231.08">50</text>
<text class="belong" x="206.81" y="241.08">(2, 4)</text>
<circle onclick="fromCircle(2)" class="circle" cx="321.9420" cy="151.6626" r="45.8210" />
<text class="nLabel" x="321.94" y="146.66">28</text>
<text class="belong" x="321.94" y="156.66">(3)</text>
<circle onclick="fromCircle(10)" class="circle" cx="307.8310" cy="234.2574" r="28.7198" />
<text class="nLabel" x="307.83" y="229.26">11</text>
<text class="belong" x="307.83" y="239.26">(1, 3)</text>
<circle onclick="fromCircle(1)" class="circle" cx="309.2051" cy="380.1299" r="105.7009" />
<text class="nLabel" x="309.21" y="375.13">149</text>
<text class="belong" x="309.21" y="385.13">(4)</text>
<g id="legendBox">
<rect class="p0 borderLine" x="500.00" y="50.00" width="30.00" height="15.00" />
<rect class="q0" x="500.00" y="50.00" width="30.00" height="15.00" />
<text class="legend" x="540.00" y="65.00">Male UP</text>
<rect class="p1 borderLine" x="500.00" y="90.00" width="30.00" height="15.00" />
<rect class="q1" x="500.00" y="90.00" width="30.00" height="15.00" />
<text class="legend" x="540.00" y="105.00">Male DOWN</text>
<rect class="p2 borderLine" x="500.00" y="130.00" width="30.00" height="15.00" />
<rect class="q2" x="500.00" y="130.00" width="30.00" height="15.00" />
<text class="legend" x="540.00" y="145.00">Female UP</text>
<rect class="p3 borderLine" x="500.00" y="170.00" width="30.00" height="15.00" />
<rect class="q3" x="500.00" y="170.00" width="30.00" height="15.00" />
<text class="legend" x="540.00" y="185.00">Female DOWN</text>
</g>
</svg>
