<svg xmlns="http://www.w3.org/2000/svg" xmlns:xlink="http://www.w3.org/1999/xlink" width="700" height="500">
<defs>
<style type="text/css"><![CDATA[
  .borderLine {
	   stroke: none;
	   fill-opacity:  0.4 ;
  }
  .outLine {
	   stroke-width:  1 ;
	   fill: none;
  }
  .circle {
	   stroke: #888888;
	   stroke-width: 0.5;
	   fill: none;
    pointer-events: all;
  }
  .nLabel {
	   font-family: Arial;
    pointer-events: none;
	   font-size: 10px;
	   text-anchor: middle;
	   alignment-baseline: central;
  }
  .belong {
	   font-family: Arial;
    pointer-events: none;
	   font-size: 5px;
	   text-anchor: middle;
	   alignment-baseline: central;
  }
  .legend {
    font-family: Arial;
    font-size: 15px;
  }
  #legendBox {
    display:  inline ;
  }
  .p0{
    stroke: none;
    fill: #e6194b;
  }
  .q0{
    fill: none;
    stroke: #e6194b;
  }
  .p1{
    stroke: none;
    fill: #3cb44b;
  }
  .q1{
    fill: none;
    stroke: #3cb44b;
  }
  .p2{
    stroke: none;
    fill: #ffe119;
  }
  .q2{
    fill: none;
    stroke: #ffe119;
  }
  .p3{
    stroke: none;
    fill: #0082c8;
  }
  .q3{
    fill: none;
    stroke: #0082c8;
  }
]]>
</style>
<symbol id="bl0">
<path d="M 358.04 332.99 L 355.80 331.76 L 353.56 330.59 L 351.29 329.50 L 348.99 328.50 L 346.65 327.58 L 344.29 326.75 L 341.89 326.02 L 339.47 325.37 L 337.03 324.82 L 334.56 324.36 L 332.08 323.99 L 329.58 323.72 L 327.08 323.54 L 324.58 323.46 L 322.07 323.48 L 319.56 323.58 L 317.06 323.79 L 314.57 324.08 L 312.10 324.48 L 309.64 324.96 L 307.20 325.54 L 304.78 326.22 L 302.38 326.98 L 300.01 327.83 L 297.68 328.78 L 295.37 329.82 L 293.11 330.95 L 290.88 332.16 L 288.71 333.45 L 286.58 334.83 L 284.52 336.29 L 282.50 337.83 L 280.55 339.44 L 278.67 341.12 L 276.84 342.88 L 275.09 344.72 L 273.40 346.63 L 271.77 348.61 L 270.19 350.66 L 268.62 352.77 L 267.05 354.89 L 265.44 356.98 L 263.76 359.01 L 261.99 360.96 L 260.14 362.82 L 258.20 364.57 L 256.17 366.23 L 254.06 367.78 L 251.87 369.22 L 249.62 370.54 L 247.30 371.75 L 244.93 372.85 L 242.50 373.82 L 240.02 374.66 L 237.51 375.38 L 234.96 375.97 L 232.38 376.43 L 229.78 376.76 L 227.17 376.96 L 224.56 377.03 L 221.94 376.96 L 219.33 376.76 L 216.74 376.43 L 214.16 375.97 L 211.61 375.38 L 209.10 374.66 L 206.62 373.82 L 204.19 372.84 L 201.81 371.75 L 199.49 370.54 L 197.24 369.22 L 195.05 367.78 L 192.94 366.23 L 190.91 364.57 L 188.97 362.82 L 187.11 360.97 L 185.36 359.03 L 183.70 357.00 L 182.15 354.90 L 180.71 352.71 L 179.38 350.46 L 178.16 348.14 L 177.07 345.76 L 176.09 343.33 L 175.24 340.85 L 174.52 338.33 L 173.92 335.78 L 173.46 333.20 L 173.12 330.60 L 172.92 327.99 L 172.85 325.37 L 172.91 322.75 L 173.11 320.14 L 173.44 317.54 L 173.89 314.97 L 174.48 312.41 L 175.20 309.89 L 176.04 307.41 L 177.01 304.98 L 178.10 302.59 L 179.31 300.27 L 180.63 298.01 L 182.07 295.82 L 183.62 293.70 L 185.27 291.67 L 187.03 289.72 L 188.88 287.87 L 190.82 286.10 L 192.85 284.45 L 194.96 282.89 L 197.15 281.45 L 199.40 280.11 L 201.72 278.90 L 204.10 277.80 L 206.53 276.82 L 209.01 275.97 L 211.53 275.25 L 214.08 274.65 L 216.66 274.19 L 219.26 273.85 L 221.87 273.65 L 224.49 273.59 L 227.11 273.65 L 229.72 273.85 L 232.32 274.17 L 234.90 274.63 L 237.45 275.22 L 239.97 275.94 L 242.45 276.79 L 244.89 277.75 L 247.28 278.84 L 249.61 280.04 L 251.90 281.33 L 254.15 282.69 L 256.38 284.09 L 258.61 285.50 L 260.87 286.87 L 263.18 288.15 L 265.56 289.28 L 268.01 290.19 L 270.53 290.78 L 273.11 291.04 L 275.73 290.99 L 278.35 290.70 L 280.95 290.25 L 283.53 289.70 L 286.10 289.09 L 288.66 288.46 L 291.21 287.81 L 293.77 287.17 L 296.33 286.52 L 298.89 285.87 L 301.45 285.22 L 304.00 284.56 L 306.55 283.91 L 309.11 283.26 L 311.66 282.61 L 314.22 281.96 L 316.78 281.31 L 319.34 280.66 L 321.89 280.01 L 324.45 279.37 L 327.01 278.72 L 329.57 278.07 L 332.12 277.42 L 334.68 276.77 L 337.23 276.13 L 339.79 275.48 L 342.35 274.82 L 344.90 274.15 L 347.44 273.46 L 349.98 272.73 L 352.50 271.97 L 355.01 271.16 L 357.51 270.28 L 359.99 269.36 L 362.46 268.39 L 364.94 267.42 L 367.43 266.48 L 369.95 265.62 L 372.52 264.90 L 375.12 264.34 L 377.74 263.95 L 380.39 263.74 L 383.05 263.72 L 385.70 263.87 L 388.33 264.22 L 390.94 264.74 L 393.50 265.44 L 396.01 266.32 L 398.45 267.37 L 400.82 268.58 L 403.09 269.96 L 405.26 271.51 L 407.32 273.22 L 409.27 275.10 L 411.11 277.17 L 412.85 279.43 L 414.47 281.87 L 415.94 284.43 L 417.22 287.04 L 418.30 289.65 L 419.15 292.23 L 419.79 294.81 L 420.23 297.39 L 420.49 299.98 L 420.55 302.58 L 420.44 305.18 L 420.15 307.76 L 419.69 310.32 L 419.06 312.83 L 418.25 315.30 L 417.29 317.72 L 416.16 320.05 L 414.88 322.31 L 413.45 324.48 L 411.87 326.54 L 410.16 328.50 L 408.33 330.33 L 406.37 332.03 L 404.30 333.60 L 402.14 335.03 L 399.88 336.31 L 397.54 337.43 L 395.13 338.40 L 392.66 339.20 L 390.14 339.83 L 387.59 340.29 L 385.01 340.57 L 382.42 340.68 L 379.82 340.62 L 377.24 340.38 L 374.68 339.97 L 372.15 339.38 L 369.66 338.63 L 367.24 337.72 L 364.86 336.67 L 362.55 335.49 L 360.28 334.25 Z" />
</symbol>
<symbol id="bl1">
<path d="M 409.74 224.13 L 407.50 228.15 L 405.07 232.06 L 402.45 235.85 L 399.66 239.51 L 396.70 243.03 L 393.57 246.41 L 390.28 249.63 L 386.84 252.70 L 383.26 255.60 L 379.55 258.32 L 375.71 260.87 L 371.76 263.23 L 367.69 265.40 L 363.53 267.38 L 359.28 269.17 L 354.96 270.79 L 350.58 272.25 L 346.16 273.59 L 341.71 274.84 L 337.24 276.03 L 332.77 277.18 L 328.29 278.32 L 323.81 279.45 L 319.33 280.57 L 314.84 281.70 L 310.36 282.83 L 305.87 283.95 L 301.39 285.07 L 296.89 286.17 L 292.37 287.21 L 287.80 288.11 L 283.12 288.77 L 278.32 289.03 L 273.42 288.78 L 268.53 287.98 L 263.80 286.69 L 259.30 284.98 L 255.00 283.03 L 250.79 281.03 L 246.57 279.13 L 242.28 277.46 L 237.91 276.07 L 233.44 274.97 L 228.91 274.13 L 224.34 273.48 L 219.75 272.96 L 215.15 272.52 L 210.55 272.11 L 205.95 271.73 L 201.34 271.35 L 196.74 270.98 L 192.14 270.61 L 187.54 270.23 L 182.94 269.86 L 178.34 269.48 L 173.73 269.11 L 169.13 268.74 L 164.53 268.37 L 159.93 268.00 L 155.33 267.62 L 150.73 267.25 L 146.14 266.87 L 141.54 266.50 L 136.94 266.12 L 132.34 265.75 L 127.75 265.37 L 123.15 264.98 L 118.56 264.57 L 113.97 264.12 L 109.39 263.60 L 104.83 262.98 L 100.29 262.23 L 95.78 261.31 L 91.31 260.23 L 86.89 258.96 L 82.53 257.50 L 78.24 255.87 L 74.01 254.05 L 69.87 252.06 L 65.82 249.90 L 61.86 247.57 L 58.00 245.08 L 54.25 242.42 L 50.62 239.61 L 47.11 236.65 L 43.73 233.54 L 40.47 230.30 L 37.36 226.92 L 34.39 223.41 L 31.58 219.78 L 28.92 216.04 L 26.42 212.18 L 24.08 208.23 L 21.91 204.18 L 19.91 200.04 L 18.09 195.82 L 16.44 191.53 L 14.98 187.18 L 13.70 182.76 L 12.61 178.30 L 11.71 173.79 L 10.99 169.26 L 10.47 164.69 L 10.14 160.10 L 10.00 155.51 L 10.05 150.92 L 10.30 146.33 L 10.74 141.75 L 11.37 137.20 L 12.19 132.68 L 13.20 128.19 L 14.40 123.75 L 15.78 119.37 L 17.34 115.05 L 19.08 110.79 L 21.01 106.62 L 23.10 102.52 L 25.36 98.52 L 27.79 94.61 L 30.38 90.82 L 33.13 87.13 L 36.03 83.56 L 39.07 80.11 L 42.26 76.80 L 45.58 73.62 L 49.03 70.59 L 52.61 67.70 L 56.31 64.97 L 60.11 62.39 L 64.02 59.97 L 68.03 57.72 L 72.13 55.64 L 76.31 53.74 L 80.57 52.01 L 84.90 50.46 L 89.29 49.09 L 93.73 47.91 L 98.22 46.92 L 102.74 46.11 L 107.30 45.50 L 111.87 45.08 L 116.46 44.85 L 121.06 44.80 L 125.65 44.94 L 130.24 45.26 L 134.81 45.72 L 139.38 46.32 L 143.93 47.01 L 148.47 47.76 L 153.00 48.56 L 157.53 49.38 L 162.06 50.21 L 166.59 51.04 L 171.12 51.87 L 175.65 52.70 L 180.18 53.53 L 184.71 54.36 L 189.24 55.19 L 193.77 56.02 L 198.30 56.86 L 202.84 57.69 L 207.37 58.52 L 211.90 59.35 L 216.43 60.18 L 220.96 61.02 L 225.50 61.85 L 230.03 62.69 L 234.56 63.52 L 239.10 64.36 L 243.63 65.19 L 248.16 66.03 L 252.70 66.86 L 257.23 67.70 L 261.77 68.54 L 266.30 69.37 L 270.84 70.21 L 275.37 71.05 L 279.91 71.89 L 284.45 72.73 L 288.98 73.57 L 293.52 74.41 L 298.06 75.25 L 302.59 76.09 L 307.13 76.93 L 311.67 77.78 L 316.21 78.62 L 320.74 79.46 L 325.28 80.31 L 329.82 81.17 L 334.35 82.06 L 338.86 83.00 L 343.36 84.02 L 347.82 85.17 L 352.25 86.47 L 356.62 87.94 L 360.92 89.60 L 365.13 91.46 L 369.25 93.51 L 373.27 95.75 L 377.19 98.18 L 380.97 100.79 L 384.63 103.58 L 388.16 106.55 L 391.54 109.67 L 394.77 112.96 L 397.83 116.39 L 400.73 119.96 L 403.46 123.67 L 406.01 127.51 L 408.37 131.46 L 410.54 135.51 L 412.51 139.67 L 414.28 143.92 L 415.85 148.24 L 417.22 152.64 L 418.37 157.10 L 419.31 161.60 L 420.03 166.15 L 420.54 170.72 L 420.83 175.32 L 420.89 179.92 L 420.74 184.52 L 420.37 189.11 L 419.79 193.67 L 418.98 198.20 L 417.96 202.69 L 416.73 207.13 L 415.29 211.50 L 413.64 215.79 L 411.79 220.01 Z" />
</symbol>
<symbol id="bl2">
<path d="M 450.93 308.83 L 448.92 309.93 L 446.92 311.03 L 444.91 312.13 L 442.91 313.24 L 440.90 314.34 L 438.90 315.45 L 436.89 316.55 L 434.88 317.65 L 432.87 318.75 L 430.86 319.85 L 428.86 320.95 L 426.85 322.05 L 424.85 323.14 L 422.84 324.24 L 420.83 325.34 L 418.83 326.44 L 416.82 327.54 L 414.81 328.63 L 412.81 329.74 L 410.80 330.84 L 408.79 331.93 L 406.78 333.02 L 404.76 334.10 L 402.74 335.16 L 400.69 336.19 L 398.62 337.15 L 396.51 338.03 L 394.37 338.80 L 392.18 339.46 L 389.97 339.99 L 387.73 340.39 L 385.46 340.65 L 383.19 340.79 L 380.92 340.79 L 378.64 340.65 L 376.38 340.38 L 374.14 339.98 L 371.92 339.44 L 369.74 338.78 L 367.60 337.98 L 365.50 337.06 L 363.43 336.03 L 361.40 334.92 L 359.39 333.76 L 357.37 332.58 L 355.33 331.44 L 353.27 330.34 L 351.19 329.28 L 349.09 328.25 L 346.98 327.25 L 344.86 326.26 L 342.75 325.28 L 340.63 324.30 L 338.51 323.32 L 336.39 322.35 L 334.27 321.37 L 332.15 320.39 L 330.03 319.42 L 327.91 318.44 L 325.79 317.47 L 323.67 316.49 L 321.55 315.52 L 319.43 314.54 L 317.32 313.56 L 315.20 312.59 L 313.08 311.62 L 310.96 310.64 L 308.84 309.67 L 306.72 308.70 L 304.60 307.72 L 302.48 306.75 L 300.35 305.79 L 298.21 304.83 L 296.07 303.87 L 293.93 302.92 L 291.78 301.97 L 289.64 301.02 L 287.49 300.07 L 285.34 299.12 L 283.19 298.17 L 281.04 297.22 L 278.90 296.26 L 276.75 295.31 L 274.61 294.34 L 272.48 293.35 L 270.37 292.30 L 268.30 291.17 L 266.32 289.91 L 264.48 288.48 L 262.84 286.87 L 261.46 285.04 L 260.38 283.04 L 259.66 280.89 L 259.30 278.65 L 259.32 276.38 L 259.72 274.15 L 260.49 272.02 L 261.61 270.05 L 263.04 268.29 L 264.74 266.80 L 266.68 265.62 L 268.79 264.78 L 271.02 264.31 L 273.33 264.23 L 275.66 264.51 L 277.99 265.11 L 280.27 265.93 L 282.51 266.87 L 284.70 267.82 L 286.85 268.75 L 289.00 269.61 L 291.14 270.42 L 293.30 271.18 L 295.47 271.88 L 297.65 272.53 L 299.85 273.12 L 302.07 273.67 L 304.29 274.16 L 306.53 274.60 L 308.77 274.99 L 311.03 275.32 L 313.29 275.60 L 315.56 275.83 L 317.83 276.01 L 320.11 276.13 L 322.39 276.20 L 324.67 276.21 L 326.95 276.18 L 329.23 276.09 L 331.50 275.94 L 333.78 275.74 L 336.04 275.49 L 338.30 275.18 L 340.56 274.83 L 342.80 274.42 L 345.04 273.95 L 347.26 273.44 L 349.47 272.87 L 351.66 272.25 L 353.84 271.57 L 356.01 270.85 L 358.16 270.07 L 360.30 269.24 L 362.42 268.36 L 364.53 267.43 L 366.62 266.45 L 368.69 265.42 L 370.73 264.35 L 372.74 263.25 L 374.74 262.12 L 376.71 260.97 L 378.68 259.79 L 380.63 258.61 L 382.59 257.42 L 384.55 256.23 L 386.50 255.04 L 388.45 253.84 L 390.40 252.65 L 392.35 251.45 L 394.31 250.26 L 396.26 249.06 L 398.21 247.87 L 400.16 246.68 L 402.12 245.49 L 404.07 244.30 L 406.02 243.10 L 407.96 241.90 L 409.92 240.71 L 411.87 239.51 L 413.82 238.32 L 415.76 237.13 L 417.72 235.94 L 419.67 234.74 L 421.62 233.55 L 423.57 232.37 L 425.53 231.19 L 427.51 230.04 L 429.50 228.93 L 431.53 227.88 L 433.59 226.91 L 435.70 226.04 L 437.85 225.28 L 440.03 224.65 L 442.25 224.13 L 444.49 223.75 L 446.75 223.49 L 449.02 223.37 L 451.29 223.37 L 453.56 223.50 L 455.82 223.77 L 458.06 224.16 L 460.28 224.68 L 462.46 225.32 L 464.60 226.09 L 466.70 226.97 L 468.74 227.98 L 470.72 229.10 L 472.64 230.33 L 474.48 231.68 L 476.24 233.12 L 477.92 234.66 L 479.50 236.30 L 480.99 238.02 L 482.38 239.82 L 483.67 241.71 L 484.84 243.66 L 485.91 245.68 L 486.85 247.75 L 487.68 249.87 L 488.38 252.04 L 488.96 254.25 L 489.41 256.48 L 489.74 258.73 L 489.93 261.00 L 490.00 263.28 L 489.94 265.56 L 489.74 267.83 L 489.42 270.08 L 488.97 272.32 L 488.40 274.52 L 487.69 276.68 L 486.87 278.81 L 485.93 280.88 L 484.87 282.89 L 483.70 284.85 L 482.42 286.73 L 481.03 288.54 L 479.54 290.26 L 477.96 291.90 L 476.28 293.44 L 474.53 294.90 L 472.70 296.27 L 470.82 297.56 L 468.89 298.78 L 466.93 299.95 L 464.94 301.09 L 462.95 302.21 L 460.95 303.32 L 458.95 304.42 L 456.94 305.53 L 454.94 306.63 L 452.93 307.73 Z" />
</symbol>
<symbol id="bl3">
<path d="M 363.28 336.57 L 366.37 339.41 L 369.38 342.34 L 372.25 345.39 L 374.94 348.58 L 377.44 351.93 L 379.72 355.43 L 381.77 359.06 L 383.60 362.82 L 385.18 366.68 L 386.51 370.64 L 387.59 374.67 L 388.41 378.76 L 388.96 382.90 L 389.25 387.06 L 389.28 391.24 L 389.04 395.40 L 388.54 399.54 L 387.77 403.65 L 386.74 407.69 L 385.46 411.66 L 383.93 415.55 L 382.16 419.32 L 380.15 422.98 L 377.91 426.51 L 375.45 429.88 L 372.79 433.09 L 369.92 436.12 L 366.87 438.97 L 363.64 441.61 L 360.26 444.05 L 356.72 446.26 L 353.05 448.25 L 349.26 450.00 L 345.37 451.50 L 341.39 452.76 L 337.34 453.76 L 333.24 454.50 L 329.09 454.98 L 324.93 455.20 L 320.75 455.15 L 316.59 454.83 L 312.46 454.26 L 308.38 453.42 L 304.35 452.32 L 300.40 450.97 L 296.55 449.37 L 292.81 447.53 L 289.19 445.46 L 285.71 443.17 L 282.38 440.65 L 279.22 437.93 L 276.24 435.02 L 273.45 431.92 L 270.86 428.65 L 268.48 425.21 L 266.33 421.64 L 264.41 417.94 L 262.73 414.12 L 261.30 410.21 L 260.12 406.21 L 259.19 402.14 L 258.52 398.02 L 258.12 393.87 L 257.98 389.70 L 258.11 385.53 L 258.50 381.38 L 259.15 377.26 L 260.06 373.19 L 261.22 369.17 L 262.62 365.23 L 264.21 361.36 L 265.97 357.55 L 267.80 353.78 L 269.64 350.00 L 271.36 346.18 L 272.89 342.30 L 274.22 338.33 L 275.36 334.30 L 276.34 330.23 L 277.21 326.13 L 278.01 322.02 L 278.79 317.91 L 279.56 313.80 L 280.33 309.69 L 281.12 305.60 L 281.91 301.50 L 282.70 297.41 L 283.44 293.30 L 284.08 289.17 L 284.52 285.01 L 284.61 280.89 L 284.17 276.90 L 283.01 273.17 L 281.09 269.78 L 278.51 266.72 L 275.52 263.96 L 272.33 261.39 L 269.09 258.93 L 265.89 256.48 L 262.76 253.97 L 259.73 251.36 L 256.80 248.65 L 254.00 245.81 L 251.31 242.87 L 248.74 239.81 L 246.30 236.66 L 243.99 233.40 L 241.82 230.06 L 239.79 226.62 L 237.90 223.11 L 236.16 219.52 L 234.57 215.86 L 233.13 212.15 L 231.85 208.37 L 230.72 204.55 L 229.75 200.68 L 228.94 196.78 L 228.31 192.84 L 227.85 188.87 L 227.57 184.86 L 227.49 180.81 L 227.58 176.67 L 227.84 172.42 L 228.27 168.08 L 228.86 163.69 L 229.61 159.34 L 230.54 155.08 L 231.64 150.93 L 232.91 146.89 L 234.37 142.94 L 236.01 139.07 L 237.82 135.29 L 239.79 131.59 L 241.92 127.98 L 244.21 124.47 L 246.65 121.07 L 249.23 117.76 L 251.95 114.58 L 254.81 111.52 L 257.80 108.58 L 260.91 105.77 L 264.14 103.11 L 267.48 100.58 L 270.93 98.20 L 274.47 95.98 L 278.11 93.91 L 281.84 92.00 L 285.64 90.25 L 289.52 88.66 L 293.46 87.25 L 297.46 86.01 L 301.51 84.94 L 305.60 84.05 L 309.72 83.33 L 313.88 82.80 L 318.05 82.45 L 322.23 82.27 L 326.42 82.28 L 330.61 82.47 L 334.78 82.84 L 338.93 83.39 L 343.06 84.11 L 347.15 85.02 L 351.19 86.10 L 355.19 87.35 L 359.13 88.78 L 363.00 90.38 L 366.80 92.14 L 370.52 94.07 L 374.16 96.15 L 377.70 98.39 L 381.14 100.78 L 384.48 103.32 L 387.70 106.00 L 390.80 108.81 L 393.78 111.76 L 396.63 114.83 L 399.33 118.02 L 401.90 121.33 L 404.33 124.75 L 406.61 128.27 L 408.73 131.88 L 410.69 135.58 L 412.49 139.36 L 414.13 143.22 L 415.59 147.14 L 416.88 151.12 L 418.01 155.16 L 418.96 159.24 L 419.73 163.36 L 420.32 167.50 L 420.73 171.67 L 420.96 175.85 L 421.00 180.04 L 420.87 184.23 L 420.55 188.41 L 420.06 192.57 L 419.38 196.71 L 418.53 200.81 L 417.50 204.88 L 416.29 208.89 L 414.91 212.85 L 413.36 216.75 L 411.64 220.57 L 409.76 224.32 L 407.72 227.99 L 405.52 231.56 L 403.17 235.03 L 400.67 238.40 L 398.02 241.66 L 395.24 244.80 L 392.32 247.82 L 389.28 250.70 L 386.11 253.46 L 382.83 256.08 L 379.44 258.57 L 375.97 260.94 L 372.43 263.22 L 368.86 265.45 L 365.31 267.71 L 361.84 270.07 L 358.55 272.63 L 355.51 275.44 L 352.76 278.53 L 350.36 281.88 L 348.33 285.47 L 346.71 289.26 L 345.51 293.21 L 344.75 297.26 L 344.43 301.37 L 344.56 305.49 L 345.15 309.57 L 346.17 313.56 L 347.62 317.41 L 349.49 321.09 L 351.73 324.56 L 354.30 327.81 L 357.15 330.85 L 360.18 333.74 Z" />
</symbol>
</defs>
<!-- isDone: 0 -->
<rect width="700" height="500" style="fill:#fff;stroke-width:0" />
<use class="p0 borderLine" xlink:href="#bl0"/>
<use class="p1 borderLine" xlink:href="#bl1"/>
<use class="p2 borderLine" xlink:href="#bl2"/>
<use class="p3 borderLine" xlink:href="#bl3"/>
<use class="q0 outLine" xlink:href="#bl0"/>
<use class="q1 outLine" xlink:href="#bl1"/>
<use class="q2 outLine" xlink:href="#bl2"/>
<use class="q3 outLine" xlink:href="#bl3"/>
<circle onclick="fromCircle(8)" class="circle" cx="224.4171" cy="325.3830" r="47.1365" />
<text class="nLabel" x="224.42" y="320.38">121</text>
<text class="belong" x="224.42" y="330.38">(1)</text>
<circle onclick="fromCircle(4)" class="circle" cx="118.8058" cy="153.8964" r="105.4005" />
<text class="nLabel" x="118.81" y="148.90">605</text>
<text class="belong" x="118.81" y="158.90">(2)</text>
<circle onclick="fromCircle(6)" class="circle" cx="272.6905" cy="277.6419" r="9.5819" />
<text class="nLabel" x="272.69" y="272.64">5</text>
<text class="belong" x="272.69" y="282.64">(2, 3)</text>
<circle onclick="fromCircle(5)" class="circle" cx="324.2313" cy="178.8236" r="92.5034" />
<text class="nLabel" x="324.23" y="173.82">466</text>
<text class="belong" x="324.23" y="183.82">(2, 4)</text>
<circle onclick="fromCircle(2)" class="circle" cx="450.4431" cy="263.2810" r="35.3362" />
<text class="nLabel" x="450.44" y="258.28">68</text>
<text class="belong" x="450.44" y="268.28">(3)</text>
<circle onclick="fromCircle(10)" class="circle" cx="382.2279" cy="302.2318" r="34.0122" />
<text class="nLabel" x="382.23" y="297.23">63</text>
<text class="belong" x="382.23" y="307.23">(1, 3)</text>
<circle onclick="fromCircle(1)" class="circle" cx="323.7043" cy="389.8091" r="61.5033" />
<text class="nLabel" x="323.70" y="384.81">206</text>
<text class="belong" x="323.70" y="394.81">(4)</text>
<circle onclick="fromCircle(9)" class="circle" cx="292.0210" cy="316.5715" r="8.5703" />
<text class="nLabel" x="292.02" y="311.57">4</text>
<text class="belong" x="292.02" y="321.57">(1, 4)</text>
<g id="legendBox">
<rect class="p0 borderLine" x="500.00" y="50.00" width="30.00" height="15.00" />
<rect class="q0" x="500.00" y="50.00" width="30.00" height="15.00" />
<text class="legend" x="540.00" y="65.00">Male UP</text>
<rect class="p1 borderLine" x="500.00" y="90.00" width="30.00" height="15.00" />
<rect class="q1" x="500.00" y="90.00" width="30.00" height="15.00" />
<text class="legend" x="540.00" y="105.00">Male DOWN</text>
<rect class="p2 borderLine" x="500.00" y="130.00" width="30.00" height="15.00" />
<rect class="q2" x="500.00" y="130.00" width="30.00" height="15.00" />
<text class="legend" x="540.00" y="145.00">Female UP</text>
<rect class="p3 borderLine" x="500.00" y="170.00" width="30.00" height="15.00" />
<rect class="q3" x="500.00" y="170.00" width="30.00" height="15.00" />
<text class="legend" x="540.00" y="185.00">Female DOWN</text>
</g>
</svg>
