<svg xmlns="http://www.w3.org/2000/svg" xmlns:xlink="http://www.w3.org/1999/xlink" width="700" height="500">
<defs>
<style type="text/css"><![CDATA[
  .borderLine {
	   stroke: none;
	   fill-opacity:  0.4 ;
  }
  .outLine {
	   stroke-width:  1 ;
	   fill: none;
  }
  .circle {
	   stroke: #888888;
	   stroke-width: 0.5;
	   fill: none;
    pointer-events: all;
  }
  .nLabel {
	   font-family: Arial;
    pointer-events: none;
	   font-size: 10px;
	   text-anchor: middle;
	   alignment-baseline: central;
  }
  .belong {
	   font-family: Arial;
    pointer-events: none;
	   font-size: 5px;
	   text-anchor: middle;
	   alignment-baseline: central;
  }
  .legend {
    font-family: Arial;
    font-size: 15px;
  }
  #legendBox {
    display:  inline ;
  }
  .p0{
    stroke: none;
    fill: #e6194b;
  }
  .q0{
    fill: none;
    stroke: #e6194b;
  }
  .p1{
    stroke: none;
    fill: #3cb44b;
  }
  .q1{
    fill: none;
    stroke: #3cb44b;
  }
  .p2{
    stroke: none;
    fill: #ffe119;
  }
  .q2{
    fill: none;
    stroke: #ffe119;
  }
  .p3{
    stroke: none;
    fill: #0082c8;
  }
  .q3{
    fill: none;
    stroke: #0082c8;
  }
]]>
</style>
<symbol id="bl0">
<path d="M 369.05 413.47 L 366.58 413.34 L 364.12 413.08 L 361.68 412.68 L 359.27 412.16 L 356.88 411.51 L 354.53 410.74 L 352.22 409.85 L 349.95 408.85 L 347.72 407.76 L 345.52 406.62 L 343.32 405.46 L 341.11 404.33 L 338.86 403.29 L 336.56 402.35 L 334.22 401.54 L 331.84 400.84 L 329.42 400.28 L 326.97 399.86 L 324.49 399.57 L 321.97 399.41 L 319.42 399.40 L 316.83 399.53 L 314.22 399.81 L 311.62 400.23 L 309.04 400.81 L 306.51 401.52 L 304.03 402.39 L 301.60 403.40 L 299.23 404.54 L 296.94 405.82 L 294.72 407.23 L 292.58 408.76 L 290.52 410.39 L 288.52 412.10 L 286.57 413.85 L 284.62 415.59 L 282.65 417.29 L 280.64 418.91 L 278.57 420.45 L 276.45 421.90 L 274.27 423.26 L 272.03 424.53 L 269.75 425.70 L 267.42 426.78 L 265.05 427.75 L 262.63 428.63 L 260.19 429.41 L 257.71 430.09 L 255.21 430.66 L 252.68 431.13 L 250.14 431.48 L 247.58 431.74 L 245.02 431.89 L 242.45 431.93 L 239.89 431.86 L 237.32 431.69 L 234.77 431.42 L 232.23 431.03 L 229.71 430.54 L 227.20 429.95 L 224.73 429.25 L 222.29 428.45 L 219.88 427.55 L 217.51 426.55 L 215.19 425.45 L 212.92 424.26 L 210.70 422.97 L 208.52 421.59 L 206.41 420.12 L 204.37 418.57 L 202.39 416.93 L 200.48 415.22 L 198.64 413.42 L 196.88 411.55 L 195.19 409.60 L 193.59 407.59 L 192.08 405.51 L 190.65 403.38 L 189.32 401.18 L 188.08 398.94 L 186.93 396.65 L 185.88 394.30 L 184.92 391.92 L 184.07 389.49 L 183.32 387.04 L 182.67 384.55 L 182.12 382.05 L 181.68 379.51 L 181.35 376.97 L 181.12 374.41 L 180.99 371.84 L 180.98 369.27 L 181.07 366.71 L 181.27 364.15 L 181.57 361.60 L 181.98 359.06 L 182.49 356.54 L 183.11 354.05 L 183.84 351.58 L 184.66 349.15 L 185.58 346.76 L 186.60 344.40 L 187.72 342.09 L 188.94 339.83 L 190.24 337.62 L 191.64 335.47 L 193.13 333.37 L 194.70 331.34 L 196.35 329.38 L 198.09 327.49 L 199.90 325.67 L 201.79 323.93 L 203.74 322.27 L 205.77 320.69 L 207.85 319.20 L 210.00 317.79 L 212.21 316.48 L 214.47 315.26 L 216.77 314.13 L 219.12 313.10 L 221.52 312.17 L 223.95 311.33 L 226.41 310.60 L 228.90 309.98 L 231.41 309.46 L 233.95 309.04 L 236.50 308.73 L 239.06 308.52 L 241.62 308.42 L 244.19 308.43 L 246.76 308.55 L 249.32 308.77 L 251.87 309.09 L 254.41 309.53 L 256.92 310.07 L 259.41 310.71 L 261.87 311.46 L 264.30 312.31 L 266.70 313.26 L 269.05 314.31 L 271.35 315.45 L 273.62 316.67 L 275.84 317.97 L 278.03 319.34 L 280.19 320.75 L 282.32 322.20 L 284.45 323.66 L 286.58 325.11 L 288.73 326.54 L 290.92 327.90 L 293.17 329.13 L 295.49 330.16 L 297.89 330.90 L 300.37 331.30 L 302.90 331.39 L 305.45 331.26 L 308.00 330.97 L 310.54 330.59 L 313.08 330.16 L 315.60 329.71 L 318.13 329.25 L 320.65 328.79 L 323.17 328.33 L 325.68 327.86 L 328.20 327.39 L 330.72 326.93 L 333.24 326.46 L 335.76 326.00 L 338.29 325.54 L 340.81 325.08 L 343.34 324.62 L 345.86 324.15 L 348.38 323.68 L 350.90 323.22 L 353.42 322.76 L 355.94 322.31 L 358.46 321.87 L 360.98 321.47 L 363.51 321.12 L 366.04 320.87 L 368.59 320.72 L 371.12 320.70 L 373.66 320.82 L 376.18 321.07 L 378.68 321.46 L 381.16 321.99 L 383.61 322.64 L 386.01 323.44 L 388.38 324.36 L 390.68 325.41 L 392.93 326.59 L 395.11 327.88 L 397.21 329.30 L 399.24 330.83 L 401.18 332.47 L 403.02 334.21 L 404.77 336.06 L 406.41 338.01 L 407.94 340.09 L 409.38 342.28 L 410.71 344.61 L 411.95 347.06 L 413.08 349.59 L 414.06 352.13 L 414.89 354.65 L 415.55 357.14 L 416.06 359.61 L 416.41 362.08 L 416.62 364.55 L 416.70 367.03 L 416.64 369.50 L 416.44 371.96 L 416.12 374.42 L 415.66 376.85 L 415.08 379.25 L 414.36 381.62 L 413.53 383.95 L 412.57 386.23 L 411.49 388.46 L 410.29 390.62 L 408.98 392.72 L 407.56 394.74 L 406.03 396.68 L 404.40 398.54 L 402.68 400.32 L 400.86 401.99 L 398.96 403.57 L 396.98 405.05 L 394.91 406.41 L 392.78 407.67 L 390.59 408.81 L 388.34 409.83 L 386.04 410.74 L 383.69 411.51 L 381.30 412.16 L 378.89 412.69 L 376.45 413.08 L 373.99 413.34 L 371.52 413.47 Z" />
</symbol>
<symbol id="bl1">
<path d="M 420.18 230.09 L 421.26 234.81 L 422.03 239.60 L 422.48 244.43 L 422.60 249.28 L 422.40 254.13 L 421.88 258.95 L 421.03 263.73 L 419.87 268.44 L 418.39 273.07 L 416.61 277.58 L 414.53 281.96 L 412.17 286.20 L 409.53 290.27 L 406.62 294.15 L 403.46 297.83 L 400.06 301.29 L 396.44 304.52 L 392.60 307.51 L 388.58 310.23 L 384.39 312.67 L 380.04 314.84 L 375.57 316.72 L 370.97 318.33 L 366.30 319.69 L 361.56 320.83 L 356.77 321.80 L 351.96 322.67 L 347.14 323.48 L 342.31 324.27 L 337.47 325.06 L 332.65 325.83 L 327.82 326.59 L 323.00 327.30 L 318.17 327.90 L 313.36 328.29 L 308.56 328.37 L 303.79 328.05 L 299.06 327.33 L 294.41 326.23 L 289.86 324.74 L 285.42 322.91 L 281.06 320.82 L 276.72 318.63 L 272.34 316.48 L 267.89 314.48 L 263.34 312.71 L 258.71 311.19 L 253.99 309.93 L 249.22 308.87 L 244.41 307.96 L 239.59 307.16 L 234.76 306.42 L 229.92 305.72 L 225.09 305.02 L 220.26 304.33 L 215.42 303.63 L 210.59 302.94 L 205.76 302.24 L 200.93 301.55 L 196.09 300.86 L 191.26 300.17 L 186.43 299.49 L 181.59 298.80 L 176.76 298.11 L 171.93 297.43 L 167.09 296.74 L 162.26 296.04 L 157.43 295.35 L 152.59 294.65 L 147.76 293.95 L 142.94 293.21 L 138.12 292.43 L 133.32 291.56 L 128.55 290.57 L 123.81 289.45 L 119.11 288.19 L 114.45 286.77 L 109.85 285.20 L 105.30 283.47 L 100.81 281.59 L 96.39 279.55 L 92.04 277.37 L 87.78 275.03 L 83.59 272.55 L 79.49 269.93 L 75.49 267.17 L 71.58 264.27 L 67.77 261.23 L 64.07 258.07 L 60.48 254.78 L 57.01 251.37 L 53.65 247.84 L 50.42 244.21 L 47.32 240.46 L 44.34 236.61 L 41.50 232.66 L 38.80 228.61 L 36.24 224.47 L 33.83 220.25 L 31.56 215.95 L 29.44 211.57 L 27.47 207.12 L 25.65 202.61 L 23.99 198.03 L 22.49 193.40 L 21.15 188.72 L 19.97 183.99 L 18.96 179.23 L 18.10 174.44 L 17.42 169.62 L 16.89 164.78 L 16.54 159.93 L 16.35 155.06 L 16.33 150.19 L 16.47 145.32 L 16.79 140.46 L 17.27 135.62 L 17.91 130.80 L 18.72 126.00 L 19.69 121.22 L 20.83 116.49 L 22.13 111.80 L 23.59 107.16 L 25.20 102.57 L 26.98 98.04 L 28.91 93.57 L 30.99 89.16 L 33.22 84.84 L 35.60 80.59 L 38.12 76.42 L 40.78 72.34 L 43.59 68.36 L 46.52 64.47 L 49.59 60.69 L 52.79 57.01 L 56.11 53.45 L 59.55 50.00 L 63.10 46.67 L 66.77 43.47 L 70.55 40.39 L 74.43 37.45 L 78.41 34.64 L 82.48 31.97 L 86.64 29.43 L 90.88 27.05 L 95.21 24.80 L 99.60 22.72 L 104.07 20.78 L 108.60 18.99 L 113.18 17.37 L 117.82 15.90 L 122.51 14.59 L 127.24 13.44 L 132.01 12.45 L 136.81 11.63 L 141.63 10.98 L 146.48 10.48 L 151.33 10.16 L 156.20 10.00 L 161.06 10.01 L 165.93 10.19 L 170.78 10.53 L 175.62 11.04 L 180.44 11.72 L 185.23 12.55 L 189.99 13.56 L 194.72 14.72 L 199.40 16.05 L 204.03 17.54 L 208.61 19.18 L 213.13 20.99 L 217.58 22.94 L 221.96 25.05 L 226.27 27.30 L 230.50 29.71 L 234.64 32.26 L 238.69 34.94 L 242.65 37.76 L 246.52 40.72 L 250.28 43.80 L 253.94 47.01 L 257.52 50.31 L 261.03 53.69 L 264.49 57.12 L 267.92 60.57 L 271.35 64.04 L 274.77 67.52 L 278.20 71.00 L 281.62 74.48 L 285.04 77.95 L 288.46 81.43 L 291.88 84.91 L 295.31 88.39 L 298.72 91.87 L 302.14 95.35 L 305.56 98.83 L 308.98 102.31 L 312.40 105.79 L 315.82 109.27 L 319.25 112.76 L 322.67 116.24 L 326.09 119.73 L 329.52 123.21 L 332.94 126.69 L 336.36 130.18 L 339.78 133.66 L 343.21 137.14 L 346.63 140.63 L 350.05 144.11 L 353.48 147.60 L 356.90 151.08 L 360.33 154.57 L 363.75 158.05 L 367.18 161.54 L 370.60 165.03 L 374.03 168.52 L 377.45 172.00 L 380.87 175.49 L 384.29 178.99 L 387.72 182.48 L 391.13 185.98 L 394.53 189.50 L 397.90 193.04 L 401.20 196.64 L 404.40 200.32 L 407.42 204.13 L 410.24 208.09 L 412.80 212.21 L 415.08 216.49 L 417.08 220.91 L 418.78 225.45 Z" />
</symbol>
<symbol id="bl2">
<path d="M 449.79 374.81 L 447.99 375.86 L 446.19 376.92 L 444.39 377.97 L 442.59 379.02 L 440.78 380.07 L 438.98 381.12 L 437.18 382.17 L 435.38 383.22 L 433.58 384.27 L 431.78 385.33 L 429.97 386.38 L 428.17 387.43 L 426.36 388.48 L 424.56 389.53 L 422.75 390.58 L 420.95 391.63 L 419.15 392.67 L 417.35 393.72 L 415.55 394.77 L 413.75 395.83 L 411.94 396.88 L 410.14 397.93 L 408.33 398.98 L 406.53 400.04 L 404.73 401.09 L 402.92 402.14 L 401.12 403.19 L 399.32 404.24 L 397.51 405.27 L 395.70 406.30 L 393.87 407.30 L 392.03 408.26 L 390.16 409.17 L 388.25 410.00 L 386.31 410.76 L 384.34 411.43 L 382.35 412.02 L 380.33 412.51 L 378.29 412.91 L 376.23 413.22 L 374.17 413.44 L 372.09 413.56 L 370.01 413.60 L 367.94 413.54 L 365.86 413.39 L 363.80 413.15 L 361.75 412.81 L 359.71 412.39 L 357.70 411.86 L 355.71 411.25 L 353.75 410.56 L 351.82 409.78 L 349.93 408.91 L 348.08 407.95 L 346.28 406.92 L 344.53 405.81 L 342.83 404.63 L 341.20 403.37 L 339.62 402.05 L 338.10 400.67 L 336.66 399.22 L 335.27 397.71 L 333.96 396.14 L 332.72 394.51 L 331.55 392.83 L 330.45 391.09 L 329.43 389.30 L 328.48 387.46 L 327.57 385.56 L 326.70 383.63 L 325.81 381.69 L 324.88 379.77 L 323.86 377.91 L 322.77 376.09 L 321.64 374.30 L 320.48 372.54 L 319.30 370.78 L 318.13 369.02 L 316.96 367.26 L 315.78 365.51 L 314.60 363.76 L 313.42 362.00 L 312.24 360.25 L 311.06 358.50 L 309.88 356.74 L 308.70 354.99 L 307.52 353.23 L 306.34 351.48 L 305.17 349.72 L 303.99 347.97 L 302.81 346.21 L 301.63 344.46 L 300.45 342.70 L 299.28 340.95 L 298.10 339.19 L 296.93 337.44 L 295.75 335.69 L 294.58 333.93 L 293.42 332.17 L 292.29 330.39 L 291.22 328.57 L 290.24 326.70 L 289.43 324.76 L 288.83 322.76 L 288.49 320.71 L 288.47 318.65 L 288.77 316.62 L 289.40 314.68 L 290.34 312.86 L 291.58 311.23 L 293.07 309.83 L 294.77 308.71 L 296.64 307.88 L 298.62 307.38 L 300.67 307.23 L 302.75 307.42 L 304.80 307.94 L 306.81 308.74 L 308.77 309.74 L 310.68 310.83 L 312.57 311.93 L 314.43 312.99 L 316.31 313.99 L 318.19 314.93 L 320.10 315.82 L 322.03 316.65 L 323.99 317.41 L 325.96 318.13 L 327.96 318.78 L 329.97 319.38 L 332.00 319.92 L 334.04 320.40 L 336.10 320.82 L 338.17 321.19 L 340.25 321.50 L 342.33 321.74 L 344.42 321.93 L 346.52 322.06 L 348.62 322.12 L 350.73 322.12 L 352.83 322.07 L 354.93 321.94 L 357.04 321.76 L 359.15 321.52 L 361.26 321.22 L 363.36 320.86 L 365.44 320.45 L 367.51 319.98 L 369.55 319.47 L 371.57 318.91 L 373.57 318.31 L 375.56 317.69 L 377.55 317.04 L 379.53 316.39 L 381.52 315.73 L 383.50 315.07 L 385.49 314.40 L 387.47 313.74 L 389.45 313.08 L 391.44 312.42 L 393.42 311.76 L 395.40 311.10 L 397.38 310.43 L 399.36 309.78 L 401.34 309.12 L 403.33 308.46 L 405.31 307.80 L 407.29 307.15 L 409.27 306.49 L 411.25 305.83 L 413.23 305.17 L 415.21 304.51 L 417.20 303.85 L 419.18 303.19 L 421.17 302.52 L 423.15 301.86 L 425.13 301.20 L 427.11 300.54 L 429.09 299.89 L 431.08 299.24 L 433.07 298.61 L 435.07 298.02 L 437.08 297.50 L 439.11 297.05 L 441.16 296.70 L 443.22 296.46 L 445.29 296.33 L 447.37 296.31 L 449.44 296.41 L 451.51 296.63 L 453.56 296.96 L 455.59 297.41 L 457.58 297.97 L 459.55 298.64 L 461.48 299.42 L 463.35 300.30 L 465.18 301.29 L 466.95 302.38 L 468.65 303.57 L 470.28 304.85 L 471.84 306.22 L 473.32 307.67 L 474.71 309.21 L 476.02 310.82 L 477.24 312.50 L 478.36 314.24 L 479.38 316.05 L 480.30 317.92 L 481.11 319.83 L 481.82 321.78 L 482.41 323.77 L 482.89 325.79 L 483.26 327.84 L 483.51 329.90 L 483.65 331.98 L 483.67 334.06 L 483.57 336.13 L 483.36 338.19 L 483.04 340.24 L 482.60 342.27 L 482.05 344.27 L 481.38 346.23 L 480.61 348.16 L 479.73 350.04 L 478.75 351.87 L 477.66 353.64 L 476.48 355.35 L 475.20 356.99 L 473.84 358.56 L 472.39 360.04 L 470.86 361.45 L 469.26 362.78 L 467.60 364.03 L 465.89 365.22 L 464.14 366.35 L 462.37 367.44 L 460.59 368.51 L 458.79 369.57 L 456.99 370.62 L 455.19 371.67 L 453.39 372.72 L 451.59 373.76 Z" />
</symbol>
<symbol id="bl3">
<path d="M 325.84 378.94 L 326.86 382.27 L 328.13 385.50 L 329.64 388.64 L 331.38 391.65 L 333.34 394.52 L 335.51 397.25 L 337.86 399.84 L 340.36 402.29 L 342.98 404.64 L 345.65 406.93 L 348.31 409.23 L 350.90 411.61 L 353.34 414.12 L 355.61 416.79 L 357.67 419.61 L 359.51 422.58 L 361.12 425.68 L 362.48 428.90 L 363.59 432.21 L 364.44 435.60 L 365.03 439.03 L 365.35 442.51 L 365.40 446.00 L 365.17 449.48 L 364.68 452.94 L 363.92 456.35 L 362.90 459.69 L 361.63 462.93 L 360.11 466.07 L 358.35 469.09 L 356.36 471.96 L 354.16 474.67 L 351.75 477.20 L 349.16 479.54 L 346.39 481.67 L 343.47 483.58 L 340.40 485.26 L 337.22 486.69 L 333.94 487.88 L 330.57 488.81 L 327.14 489.47 L 323.67 489.87 L 320.18 490.00 L 316.69 489.86 L 313.22 489.45 L 309.80 488.78 L 306.43 487.84 L 303.15 486.64 L 299.97 485.20 L 296.92 483.51 L 294.00 481.60 L 291.24 479.46 L 288.65 477.11 L 286.25 474.58 L 284.06 471.86 L 282.08 468.99 L 280.33 465.97 L 278.82 462.82 L 277.56 459.57 L 276.55 456.24 L 275.80 452.83 L 275.32 449.37 L 275.11 445.89 L 275.17 442.40 L 275.49 438.93 L 276.09 435.49 L 276.94 432.11 L 278.06 428.80 L 279.42 425.58 L 281.01 422.47 L 282.81 419.47 L 284.79 416.57 L 286.89 413.76 L 289.04 410.99 L 291.17 408.19 L 293.20 405.33 L 295.10 402.38 L 296.84 399.33 L 298.41 396.16 L 299.81 392.87 L 301.04 389.46 L 302.12 385.94 L 303.05 382.34 L 303.85 378.73 L 304.55 375.13 L 305.16 371.56 L 305.73 368.02 L 306.28 364.49 L 306.82 360.97 L 307.35 357.45 L 307.88 353.92 L 308.41 350.40 L 308.95 346.88 L 309.48 343.35 L 310.00 339.83 L 310.52 336.30 L 311.00 332.77 L 311.42 329.23 L 311.71 325.68 L 311.75 322.17 L 311.39 318.76 L 310.50 315.53 L 309.00 312.52 L 307.00 309.73 L 304.68 307.10 L 302.20 304.57 L 299.70 302.06 L 297.24 299.51 L 294.88 296.90 L 292.63 294.20 L 290.51 291.39 L 288.53 288.49 L 286.70 285.50 L 285.00 282.43 L 283.46 279.27 L 282.07 276.05 L 280.83 272.76 L 279.76 269.42 L 278.84 266.03 L 278.09 262.60 L 277.50 259.14 L 277.08 255.66 L 276.84 252.16 L 276.75 248.65 L 276.84 245.14 L 277.10 241.65 L 277.53 238.17 L 278.14 234.71 L 278.94 231.27 L 279.93 227.84 L 281.13 224.40 L 282.53 220.94 L 284.11 217.47 L 285.86 214.03 L 287.73 210.70 L 289.70 207.53 L 291.77 204.53 L 293.95 201.71 L 296.26 199.03 L 298.70 196.49 L 301.26 194.09 L 303.94 191.81 L 306.72 189.67 L 309.60 187.66 L 312.58 185.80 L 315.64 184.08 L 318.78 182.51 L 321.99 181.09 L 325.27 179.83 L 328.61 178.73 L 331.99 177.79 L 335.41 177.01 L 338.87 176.39 L 342.35 175.95 L 345.86 175.67 L 349.37 175.56 L 352.88 175.62 L 356.38 175.85 L 359.87 176.24 L 363.33 176.81 L 366.77 177.53 L 370.17 178.42 L 373.52 179.47 L 376.81 180.69 L 380.04 182.05 L 383.20 183.58 L 386.29 185.25 L 389.29 187.06 L 392.20 189.03 L 395.02 191.12 L 397.73 193.35 L 400.33 195.71 L 402.82 198.19 L 405.18 200.79 L 407.41 203.49 L 409.52 206.30 L 411.48 209.21 L 413.30 212.21 L 414.98 215.29 L 416.51 218.45 L 417.88 221.68 L 419.10 224.96 L 420.16 228.31 L 421.06 231.70 L 421.79 235.14 L 422.36 238.60 L 422.76 242.09 L 423.00 245.59 L 423.06 249.10 L 422.95 252.60 L 422.68 256.10 L 422.24 259.59 L 421.63 263.05 L 420.86 266.48 L 419.93 269.86 L 418.83 273.20 L 417.57 276.47 L 416.16 279.69 L 414.60 282.84 L 412.88 285.90 L 411.02 288.88 L 409.02 291.77 L 406.88 294.56 L 404.62 297.24 L 402.22 299.81 L 399.70 302.26 L 397.07 304.59 L 394.33 306.79 L 391.49 308.85 L 388.55 310.78 L 385.53 312.56 L 382.42 314.20 L 379.24 315.68 L 375.99 317.02 L 372.68 318.21 L 369.32 319.27 L 365.93 320.23 L 362.54 321.17 L 359.17 322.16 L 355.85 323.28 L 352.59 324.56 L 349.44 326.05 L 346.41 327.76 L 343.51 329.68 L 340.76 331.81 L 338.18 334.15 L 335.79 336.67 L 333.58 339.37 L 331.59 342.22 L 329.83 345.22 L 328.29 348.34 L 326.99 351.57 L 325.94 354.88 L 325.14 358.27 L 324.61 361.70 L 324.33 365.17 L 324.31 368.64 L 324.56 372.11 L 325.08 375.55 Z" />
</symbol>
</defs>
<!-- isDone: 0 -->
<rect width="700" height="500" style="fill:#fff;stroke-width:0" />
<use class="p0 borderLine" xlink:href="#bl0"/>
<use class="p1 borderLine" xlink:href="#bl1"/>
<use class="p2 borderLine" xlink:href="#bl2"/>
<use class="p3 borderLine" xlink:href="#bl3"/>
<use class="q0 outLine" xlink:href="#bl0"/>
<use class="q1 outLine" xlink:href="#bl1"/>
<use class="q2 outLine" xlink:href="#bl2"/>
<use class="q3 outLine" xlink:href="#bl3"/>
<circle onclick="fromCircle(8)" class="circle" cx="242.6228" cy="370.2251" r="55.6152" />
<text class="nLabel" x="242.62" y="365.23">139</text>
<text class="belong" x="242.62" y="375.23">(1)</text>
<circle onclick="fromCircle(4)" class="circle" cx="157.6570" cy="151.2236" r="136.2288" />
<text class="nLabel" x="157.66" y="146.22">834</text>
<text class="belong" x="157.66" y="156.22">(2)</text>
<circle onclick="fromCircle(6)" class="circle" cx="300.6088" cy="319.3505" r="6.6712" />
<text class="nLabel" x="300.61" y="314.35">2</text>
<text class="belong" x="300.61" y="324.35">(2, 3)</text>
<circle onclick="fromCircle(5)" class="circle" cx="349.9508" cy="248.5592" r="67.2100" />
<text class="nLabel" x="349.95" y="243.56">203</text>
<text class="belong" x="349.95" y="253.56">(2, 4)</text>
<circle onclick="fromCircle(2)" class="circle" cx="446.8163" cy="333.4093" r="30.9329" />
<text class="nLabel" x="446.82" y="328.41">43</text>
<text class="belong" x="446.82" y="338.41">(3)</text>
<circle onclick="fromCircle(10)" class="circle" cx="370.3783" cy="367.1396" r="40.3039" />
<text class="nLabel" x="370.38" y="362.14">73</text>
<text class="belong" x="370.38" y="372.14">(1, 3)</text>
<circle onclick="fromCircle(1)" class="circle" cx="320.2734" cy="445.0353" r="39.4671" />
<text class="nLabel" x="320.27" y="440.04">70</text>
<text class="belong" x="320.27" y="450.04">(4)</text>
<circle onclick="fromCircle(9)" class="circle" cx="314.3201" cy="387.0017" r="6.6712" />
<text class="nLabel" x="314.32" y="382.00">2</text>
<text class="belong" x="314.32" y="392.00">(1, 4)</text>
<g id="legendBox">
<rect class="p0 borderLine" x="500.00" y="50.00" width="30.00" height="15.00" />
<rect class="q0" x="500.00" y="50.00" width="30.00" height="15.00" />
<text class="legend" x="540.00" y="65.00">Male UP</text>
<rect class="p1 borderLine" x="500.00" y="90.00" width="30.00" height="15.00" />
<rect class="q1" x="500.00" y="90.00" width="30.00" height="15.00" />
<text class="legend" x="540.00" y="105.00">Male DOWN</text>
<rect class="p2 borderLine" x="500.00" y="130.00" width="30.00" height="15.00" />
<rect class="q2" x="500.00" y="130.00" width="30.00" height="15.00" />
<text class="legend" x="540.00" y="145.00">Female UP</text>
<rect class="p3 borderLine" x="500.00" y="170.00" width="30.00" height="15.00" />
<rect class="q3" x="500.00" y="170.00" width="30.00" height="15.00" />
<text class="legend" x="540.00" y="185.00">Female DOWN</text>
</g>
</svg>
