<svg xmlns="http://www.w3.org/2000/svg" xmlns:xlink="http://www.w3.org/1999/xlink" width="700" height="500">
<defs>
<style type="text/css"><![CDATA[
  .borderLine {
	   stroke: none;
	   fill-opacity:  0.4 ;
  }
  .outLine {
	   stroke-width:  1 ;
	   fill: none;
  }
  .circle {
	   stroke: #888888;
	   stroke-width: 0.5;
	   fill: none;
    pointer-events: all;
  }
  .nLabel {
	   font-family: Arial;
    pointer-events: none;
	   font-size: 10px;
	   text-anchor: middle;
	   alignment-baseline: central;
  }
  .belong {
	   font-family: Arial;
    pointer-events: none;
	   font-size: 5px;
	   text-anchor: middle;
	   alignment-baseline: central;
  }
  .legend {
    font-family: Arial;
    font-size: 15px;
  }
  #legendBox {
    display:  inline ;
  }
  .p0{
    stroke: none;
    fill: #e6194b;
  }
  .q0{
    fill: none;
    stroke: #e6194b;
  }
  .p1{
    stroke: none;
    fill: #3cb44b;
  }
  .q1{
    fill: none;
    stroke: #3cb44b;
  }
  .p2{
    stroke: none;
    fill: #ffe119;
  }
  .q2{
    fill: none;
    stroke: #ffe119;
  }
  .p3{
    stroke: none;
    fill: #0082c8;
  }
  .q3{
    fill: none;
    stroke: #0082c8;
  }
]]>
</style>
<symbol id="bl0">
<path d="M 363.91 344.01 L 361.02 344.18 L 358.10 344.19 L 355.17 344.05 L 352.26 343.75 L 349.37 343.28 L 346.53 342.67 L 343.74 341.90 L 341.00 341.00 L 338.33 339.97 L 335.71 338.84 L 333.13 337.64 L 330.54 336.42 L 327.89 335.21 L 325.07 334.02 L 322.01 332.85 L 318.67 331.72 L 315.14 330.67 L 311.58 329.77 L 308.15 329.05 L 304.95 328.51 L 301.97 328.14 L 299.11 327.90 L 296.30 327.77 L 293.49 327.75 L 290.68 327.82 L 287.85 328.00 L 285.03 328.28 L 282.21 328.65 L 279.42 329.13 L 276.67 329.71 L 273.95 330.37 L 271.27 331.13 L 268.62 331.99 L 265.98 332.94 L 263.35 334.01 L 260.75 335.17 L 258.16 336.44 L 255.59 337.84 L 252.99 339.40 L 250.32 341.15 L 247.59 343.08 L 244.89 345.12 L 242.30 347.16 L 239.81 349.13 L 237.40 350.98 L 234.98 352.70 L 232.54 354.29 L 230.03 355.74 L 227.45 357.05 L 224.80 358.22 L 222.08 359.25 L 219.24 360.13 L 216.23 360.86 L 212.99 361.45 L 209.50 361.88 L 205.85 362.11 L 202.19 362.15 L 198.68 361.99 L 195.42 361.65 L 192.39 361.14 L 189.52 360.48 L 186.74 359.67 L 184.01 358.72 L 181.33 357.62 L 178.69 356.39 L 176.11 355.02 L 173.60 353.53 L 171.18 351.92 L 168.85 350.19 L 166.62 348.35 L 164.49 346.42 L 162.46 344.39 L 160.55 342.26 L 158.77 340.02 L 157.10 337.69 L 155.57 335.28 L 154.16 332.79 L 152.87 330.24 L 151.71 327.63 L 150.68 324.97 L 149.78 322.26 L 149.02 319.51 L 148.40 316.71 L 147.93 313.88 L 147.59 311.03 L 147.39 308.17 L 147.33 305.32 L 147.43 302.47 L 147.69 299.63 L 148.10 296.81 L 148.65 294.00 L 149.33 291.21 L 150.16 288.44 L 151.13 285.73 L 152.25 283.07 L 153.53 280.47 L 154.93 277.93 L 156.46 275.47 L 158.10 273.10 L 159.84 270.81 L 161.69 268.63 L 163.64 266.56 L 165.69 264.59 L 167.84 262.74 L 170.08 260.99 L 172.44 259.36 L 174.90 257.83 L 177.45 256.42 L 180.06 255.14 L 182.71 253.99 L 185.39 252.99 L 188.09 252.11 L 190.79 251.36 L 193.51 250.75 L 196.26 250.29 L 199.03 249.99 L 201.81 249.84 L 204.60 249.84 L 207.37 249.97 L 210.13 250.23 L 212.89 250.63 L 215.64 251.16 L 218.41 251.85 L 221.19 252.69 L 223.99 253.71 L 226.78 254.91 L 229.55 256.26 L 232.27 257.77 L 234.91 259.42 L 237.45 261.18 L 239.86 263.03 L 242.16 264.95 L 244.36 266.91 L 246.49 268.89 L 248.56 270.90 L 250.60 272.90 L 252.64 274.88 L 254.76 276.79 L 257.03 278.55 L 259.50 280.04 L 262.14 281.10 L 264.89 281.56 L 267.70 281.36 L 270.51 280.62 L 273.28 279.54 L 276.00 278.30 L 278.66 276.99 L 281.25 275.65 L 283.79 274.28 L 286.29 272.91 L 288.80 271.56 L 291.33 270.23 L 293.88 268.92 L 296.45 267.59 L 299.03 266.20 L 301.57 264.73 L 304.04 263.14 L 306.42 261.46 L 308.75 259.71 L 311.06 257.96 L 313.37 256.26 L 315.71 254.60 L 318.06 252.96 L 320.43 251.30 L 322.81 249.63 L 325.22 247.96 L 327.67 246.30 L 330.17 244.70 L 332.74 243.20 L 335.38 241.84 L 338.11 240.61 L 340.94 239.53 L 343.87 238.60 L 346.88 237.82 L 349.95 237.19 L 353.05 236.73 L 356.17 236.45 L 359.27 236.34 L 362.32 236.41 L 365.34 236.65 L 368.30 237.05 L 371.22 237.62 L 374.08 238.35 L 376.90 239.23 L 379.65 240.27 L 382.34 241.46 L 384.95 242.80 L 387.48 244.30 L 389.96 245.97 L 392.40 247.84 L 394.81 249.89 L 397.13 252.07 L 399.32 254.31 L 401.32 256.58 L 403.13 258.88 L 404.78 261.23 L 406.28 263.68 L 407.65 266.21 L 408.87 268.82 L 409.95 271.51 L 410.88 274.24 L 411.66 277.01 L 412.27 279.80 L 412.74 282.62 L 413.06 285.46 L 413.22 288.33 L 413.24 291.20 L 413.10 294.07 L 412.82 296.91 L 412.39 299.73 L 411.82 302.50 L 411.12 305.23 L 410.29 307.91 L 409.31 310.55 L 408.19 313.14 L 406.93 315.67 L 405.53 318.14 L 404.00 320.52 L 402.34 322.82 L 400.58 325.02 L 398.70 327.12 L 396.73 329.12 L 394.65 331.01 L 392.47 332.80 L 390.19 334.48 L 387.81 336.05 L 385.35 337.50 L 382.82 338.82 L 380.24 339.99 L 377.62 341.03 L 374.97 341.91 L 372.28 342.65 L 369.55 343.24 L 366.76 343.70 Z" />
</symbol>
<symbol id="bl1">
<path d="M 354.69 200.21 L 353.64 204.27 L 352.38 208.30 L 350.89 212.31 L 349.18 216.28 L 347.26 220.19 L 345.16 223.99 L 342.89 227.68 L 340.46 231.21 L 337.91 234.59 L 335.25 237.80 L 332.50 240.84 L 329.69 243.69 L 326.82 246.35 L 323.88 248.84 L 320.84 251.20 L 317.67 253.46 L 314.35 255.66 L 310.85 257.83 L 307.17 259.99 L 303.30 262.19 L 299.27 264.43 L 295.13 266.71 L 290.99 269.00 L 286.95 271.29 L 282.99 273.53 L 279.04 275.67 L 275.06 277.52 L 271.05 278.87 L 267.03 279.72 L 262.97 279.62 L 259.26 277.48 L 255.51 275.18 L 251.75 272.61 L 248.05 269.80 L 244.46 266.94 L 240.95 264.16 L 237.50 261.58 L 234.05 259.24 L 230.52 257.15 L 226.88 255.28 L 223.11 253.60 L 219.25 252.07 L 215.38 250.64 L 211.50 249.25 L 207.56 247.86 L 203.47 246.43 L 199.24 244.94 L 194.96 243.44 L 190.76 241.97 L 186.66 240.53 L 182.63 239.12 L 178.61 237.72 L 174.58 236.32 L 170.54 234.91 L 166.51 233.50 L 162.51 232.09 L 158.56 230.69 L 154.68 229.29 L 150.85 227.91 L 147.04 226.53 L 143.24 225.16 L 139.43 223.79 L 135.60 222.42 L 131.75 221.04 L 127.90 219.63 L 124.07 218.22 L 120.28 216.80 L 116.51 215.37 L 112.74 213.95 L 108.96 212.52 L 105.17 211.11 L 101.36 209.73 L 97.54 208.37 L 93.71 207.04 L 89.87 205.72 L 86.03 204.38 L 82.17 203.03 L 78.30 201.64 L 74.43 200.19 L 70.59 198.67 L 66.81 197.05 L 63.13 195.31 L 59.55 193.45 L 56.08 191.46 L 52.72 189.33 L 49.47 187.07 L 46.30 184.66 L 43.22 182.12 L 40.22 179.43 L 37.32 176.60 L 34.53 173.64 L 31.87 170.56 L 29.35 167.38 L 26.97 164.11 L 24.75 160.76 L 22.67 157.32 L 20.73 153.78 L 18.94 150.16 L 17.31 146.43 L 15.83 142.62 L 14.52 138.74 L 13.36 134.80 L 12.38 130.82 L 11.56 126.82 L 10.91 122.81 L 10.44 118.79 L 10.13 114.79 L 10.00 110.81 L 10.04 106.86 L 10.24 102.95 L 10.60 99.07 L 11.12 95.22 L 11.79 91.40 L 12.63 87.60 L 13.64 83.82 L 14.80 80.05 L 16.13 76.30 L 17.62 72.58 L 19.27 68.89 L 21.11 65.23 L 23.13 61.61 L 25.33 58.05 L 27.70 54.55 L 30.24 51.14 L 32.92 47.82 L 35.72 44.64 L 38.63 41.61 L 41.66 38.73 L 44.78 36.02 L 48.01 33.46 L 51.36 31.06 L 54.81 28.81 L 58.38 26.71 L 62.03 24.75 L 65.76 22.95 L 69.53 21.30 L 73.35 19.83 L 77.20 18.53 L 81.07 17.42 L 84.98 16.48 L 88.93 15.71 L 92.92 15.10 L 96.95 14.65 L 101.01 14.37 L 105.09 14.26 L 109.18 14.33 L 113.26 14.56 L 117.32 14.98 L 121.35 15.56 L 125.36 16.32 L 129.35 17.26 L 133.31 18.37 L 137.24 19.65 L 141.11 21.08 L 144.93 22.65 L 148.68 24.31 L 152.36 26.03 L 155.99 27.78 L 159.60 29.56 L 163.22 31.34 L 166.85 33.13 L 170.53 34.92 L 174.24 36.73 L 178.00 38.54 L 181.77 40.37 L 185.56 42.19 L 189.36 44.02 L 193.15 45.87 L 196.94 47.73 L 200.71 49.61 L 204.47 51.49 L 208.20 53.37 L 211.89 55.25 L 215.54 57.10 L 219.16 58.93 L 222.74 60.74 L 226.32 62.54 L 229.89 64.34 L 233.48 66.15 L 237.09 67.96 L 240.73 69.78 L 244.40 71.61 L 248.08 73.44 L 251.78 75.27 L 255.48 77.09 L 259.19 78.92 L 262.88 80.76 L 266.56 82.59 L 270.22 84.40 L 273.86 86.20 L 277.50 87.98 L 281.13 89.75 L 284.78 91.52 L 288.44 93.31 L 292.13 95.12 L 295.85 96.98 L 299.59 98.87 L 303.34 100.78 L 307.06 102.72 L 310.72 104.69 L 314.28 106.73 L 317.71 108.86 L 321.00 111.09 L 324.15 113.44 L 327.19 115.92 L 330.12 118.54 L 332.97 121.33 L 335.72 124.29 L 338.35 127.40 L 340.84 130.64 L 343.15 133.99 L 345.28 137.43 L 347.22 140.95 L 348.97 144.54 L 350.54 148.21 L 351.95 151.96 L 353.20 155.81 L 354.28 159.73 L 355.17 163.69 L 355.88 167.66 L 356.40 171.65 L 356.73 175.67 L 356.86 179.71 L 356.82 183.79 L 356.58 187.89 L 356.15 192.01 L 355.53 196.12 Z" />
</symbol>
<symbol id="bl2">
<path d="M 454.10 271.07 L 452.30 272.95 L 450.50 274.82 L 448.70 276.70 L 446.89 278.57 L 445.08 280.44 L 443.26 282.32 L 441.44 284.21 L 439.61 286.10 L 437.77 288.01 L 435.89 289.96 L 433.93 292.00 L 431.84 294.19 L 429.59 296.53 L 427.23 298.98 L 424.86 301.42 L 422.57 303.73 L 420.40 305.86 L 418.36 307.84 L 416.39 309.73 L 414.47 311.58 L 412.56 313.44 L 410.68 315.32 L 408.83 317.21 L 407.01 319.10 L 405.19 320.99 L 403.37 322.86 L 401.55 324.71 L 399.71 326.53 L 397.83 328.33 L 395.92 330.07 L 393.94 331.75 L 391.90 333.35 L 389.78 334.86 L 387.58 336.28 L 385.30 337.60 L 382.97 338.81 L 380.58 339.90 L 378.16 340.88 L 375.71 341.74 L 373.24 342.47 L 370.76 343.07 L 368.27 343.55 L 365.77 343.90 L 363.23 344.14 L 360.68 344.26 L 358.09 344.25 L 355.47 344.11 L 352.84 343.85 L 350.22 343.46 L 347.62 342.94 L 345.06 342.31 L 342.54 341.56 L 340.08 340.69 L 337.68 339.72 L 335.33 338.63 L 333.03 337.45 L 330.77 336.17 L 328.53 334.80 L 326.32 333.36 L 324.13 331.84 L 321.96 330.28 L 319.80 328.69 L 317.66 327.09 L 315.52 325.49 L 313.40 323.89 L 311.30 322.29 L 309.23 320.66 L 307.16 318.96 L 305.06 317.17 L 302.86 315.28 L 300.57 313.33 L 298.24 311.44 L 295.93 309.68 L 293.67 308.09 L 291.43 306.60 L 289.18 305.15 L 286.93 303.73 L 284.68 302.29 L 282.43 300.82 L 280.13 299.26 L 277.76 297.58 L 275.33 295.77 L 272.94 293.90 L 270.68 292.04 L 268.57 290.21 L 266.58 288.38 L 264.67 286.52 L 262.83 284.64 L 261.10 282.73 L 259.54 280.78 L 258.30 278.77 L 257.52 276.65 L 257.30 274.46 L 257.62 272.30 L 258.43 270.36 L 259.74 268.87 L 261.54 267.93 L 263.72 267.47 L 266.15 267.29 L 268.69 267.22 L 271.31 267.17 L 273.94 267.07 L 276.58 266.88 L 279.21 266.61 L 281.80 266.25 L 284.36 265.81 L 286.90 265.31 L 289.43 264.78 L 291.96 264.21 L 294.47 263.58 L 296.96 262.88 L 299.44 262.08 L 301.89 261.17 L 304.33 260.14 L 306.74 259.00 L 309.14 257.78 L 311.56 256.47 L 314.04 255.05 L 316.64 253.47 L 319.36 251.70 L 322.13 249.78 L 324.82 247.76 L 327.32 245.73 L 329.61 243.71 L 331.77 241.69 L 333.89 239.59 L 336.04 237.42 L 338.15 235.21 L 340.14 233.04 L 342.01 230.95 L 343.80 228.91 L 345.56 226.91 L 347.31 224.92 L 349.06 222.96 L 350.82 221.01 L 352.58 219.09 L 354.34 217.17 L 356.11 215.25 L 357.88 213.33 L 359.64 211.41 L 361.40 209.48 L 363.15 207.55 L 364.89 205.62 L 366.61 203.67 L 368.33 201.73 L 370.06 199.78 L 371.79 197.82 L 373.54 195.86 L 375.30 193.91 L 377.07 191.95 L 378.85 189.99 L 380.63 188.02 L 382.44 186.02 L 384.31 183.94 L 386.26 181.76 L 388.28 179.51 L 390.30 177.28 L 392.25 175.16 L 394.14 173.18 L 396.02 171.33 L 397.94 169.57 L 399.93 167.91 L 402.00 166.33 L 404.15 164.84 L 406.37 163.45 L 408.65 162.17 L 411.00 160.99 L 413.41 159.93 L 415.88 158.97 L 418.40 158.14 L 420.96 157.42 L 423.57 156.83 L 426.20 156.36 L 428.84 156.01 L 431.49 155.80 L 434.13 155.71 L 436.75 155.74 L 439.34 155.90 L 441.90 156.18 L 444.42 156.57 L 446.94 157.09 L 449.48 157.75 L 452.10 158.58 L 454.86 159.63 L 457.77 160.91 L 460.74 162.41 L 463.63 164.07 L 466.32 165.80 L 468.74 167.56 L 470.92 169.33 L 472.93 171.16 L 474.83 173.08 L 476.64 175.10 L 478.36 177.22 L 479.98 179.42 L 481.48 181.69 L 482.87 184.03 L 484.14 186.41 L 485.28 188.82 L 486.29 191.26 L 487.18 193.73 L 487.94 196.21 L 488.58 198.70 L 489.10 201.19 L 489.50 203.69 L 489.78 206.18 L 489.95 208.69 L 490.00 211.20 L 489.94 213.74 L 489.75 216.29 L 489.44 218.86 L 489.02 221.43 L 488.46 224.00 L 487.79 226.56 L 486.99 229.08 L 486.07 231.57 L 485.04 234.01 L 483.90 236.39 L 482.65 238.70 L 481.31 240.94 L 479.86 243.11 L 478.30 245.23 L 476.59 247.36 L 474.71 249.54 L 472.69 251.76 L 470.63 253.94 L 468.63 256.02 L 466.71 257.99 L 464.87 259.88 L 463.06 261.74 L 461.26 263.59 L 459.47 265.45 L 457.68 267.32 L 455.89 269.19 Z" />
</symbol>
<symbol id="bl3">
<path d="M 325.18 331.35 L 328.67 334.19 L 332.32 336.92 L 336.04 339.63 L 339.73 342.37 L 343.33 345.20 L 346.77 348.15 L 350.03 351.24 L 353.07 354.45 L 355.91 357.79 L 358.52 361.24 L 360.93 364.82 L 363.13 368.49 L 365.11 372.28 L 366.88 376.18 L 368.44 380.20 L 369.79 384.35 L 370.92 388.60 L 371.82 392.95 L 372.48 397.36 L 372.90 401.82 L 373.07 406.28 L 372.98 410.73 L 372.65 415.15 L 372.06 419.54 L 371.22 423.90 L 370.13 428.22 L 368.79 432.49 L 367.20 436.69 L 365.37 440.81 L 363.32 444.83 L 361.04 448.71 L 358.55 452.45 L 355.89 456.01 L 353.06 459.38 L 350.06 462.57 L 346.89 465.57 L 343.55 468.40 L 340.03 471.05 L 336.35 473.52 L 332.51 475.78 L 328.55 477.84 L 324.48 479.67 L 320.33 481.26 L 316.11 482.62 L 311.85 483.73 L 307.55 484.59 L 303.21 485.22 L 298.85 485.60 L 294.47 485.74 L 290.08 485.63 L 285.69 485.27 L 281.32 484.67 L 276.97 483.82 L 272.67 482.73 L 268.45 481.41 L 264.32 479.85 L 260.28 478.07 L 256.34 476.05 L 252.50 473.81 L 248.78 471.34 L 245.19 468.65 L 241.74 465.76 L 238.48 462.69 L 235.42 459.47 L 232.56 456.12 L 229.93 452.65 L 227.51 449.05 L 225.29 445.32 L 223.28 441.44 L 221.47 437.42 L 219.88 433.27 L 218.51 429.03 L 217.38 424.73 L 216.49 420.37 L 215.86 415.97 L 215.47 411.52 L 215.34 407.05 L 215.45 402.59 L 215.82 398.16 L 216.43 393.79 L 217.28 389.49 L 218.37 385.25 L 219.74 381.04 L 221.39 376.82 L 223.35 372.57 L 225.59 368.34 L 228.09 364.21 L 230.84 360.21 L 233.87 356.30 L 237.18 352.40 L 240.68 348.48 L 244.12 344.57 L 247.29 340.68 L 250.08 336.79 L 252.48 332.84 L 254.53 328.77 L 256.26 324.61 L 257.73 320.35 L 259.02 316.00 L 260.24 311.51 L 261.53 306.83 L 262.96 302.01 L 264.48 297.19 L 265.99 292.50 L 267.40 287.95 L 268.65 283.47 L 269.66 279.02 L 270.51 274.67 L 269.47 271.06 L 266.45 268.85 L 262.49 267.69 L 258.30 266.49 L 253.96 265.16 L 249.49 263.66 L 244.84 261.94 L 240.03 260.02 L 235.24 257.90 L 230.64 255.62 L 226.31 253.17 L 222.26 250.52 L 218.45 247.68 L 214.86 244.67 L 211.49 241.52 L 208.34 238.27 L 205.39 234.90 L 202.63 231.38 L 200.04 227.69 L 197.64 223.80 L 195.41 219.70 L 193.39 215.43 L 191.59 211.03 L 190.03 206.58 L 188.74 202.07 L 187.71 197.42 L 186.93 192.50 L 186.41 187.34 L 186.19 182.09 L 186.26 176.95 L 186.61 172.02 L 187.22 167.31 L 188.10 162.76 L 189.22 158.31 L 190.61 153.90 L 192.25 149.51 L 194.12 145.15 L 196.19 140.88 L 198.44 136.75 L 200.87 132.79 L 203.48 129.01 L 206.29 125.42 L 209.27 122.04 L 212.43 118.88 L 215.74 115.93 L 219.18 113.18 L 222.75 110.60 L 226.43 108.20 L 230.23 105.97 L 234.15 103.93 L 238.17 102.11 L 242.30 100.50 L 246.50 99.11 L 250.78 97.95 L 255.12 97.00 L 259.51 96.27 L 263.94 95.75 L 268.40 95.43 L 272.86 95.30 L 277.29 95.37 L 281.70 95.68 L 286.06 96.23 L 290.37 97.07 L 294.62 98.18 L 298.79 99.55 L 302.89 101.14 L 306.91 102.95 L 310.81 104.94 L 314.62 107.10 L 318.32 109.41 L 321.92 111.87 L 325.42 114.49 L 328.80 117.30 L 332.04 120.32 L 335.11 123.56 L 337.99 127.01 L 340.69 130.61 L 343.19 134.34 L 345.49 138.15 L 347.59 142.03 L 349.46 145.96 L 351.12 149.93 L 352.56 153.96 L 353.78 158.06 L 354.78 162.24 L 355.57 166.48 L 356.16 170.78 L 356.54 175.14 L 356.71 179.54 L 356.65 183.94 L 356.38 188.34 L 355.89 192.72 L 355.18 197.06 L 354.25 201.35 L 353.09 205.59 L 351.69 209.78 L 350.06 213.90 L 348.21 217.95 L 346.14 221.92 L 343.87 225.80 L 341.40 229.57 L 338.74 233.21 L 335.90 236.71 L 332.92 240.07 L 329.83 243.31 L 326.71 246.48 L 323.63 249.65 L 320.68 252.90 L 317.92 256.27 L 315.38 259.78 L 313.11 263.46 L 311.12 267.32 L 309.43 271.36 L 308.06 275.57 L 307.03 279.91 L 306.35 284.35 L 306.05 288.85 L 306.11 293.35 L 306.54 297.80 L 307.33 302.15 L 308.47 306.38 L 309.93 310.47 L 311.72 314.40 L 313.82 318.16 L 316.22 321.75 L 318.93 325.14 L 321.92 328.34 Z" />
</symbol>
</defs>
<!-- isDone: 0 -->
<rect width="700" height="500" style="fill:#fff;stroke-width:0" />
<use class="p0 borderLine" xlink:href="#bl0"/>
<use class="p1 borderLine" xlink:href="#bl1"/>
<use class="p2 borderLine" xlink:href="#bl2"/>
<use class="p3 borderLine" xlink:href="#bl3"/>
<use class="q0 outLine" xlink:href="#bl0"/>
<use class="q1 outLine" xlink:href="#bl1"/>
<use class="q2 outLine" xlink:href="#bl2"/>
<use class="q3 outLine" xlink:href="#bl3"/>
<circle onclick="fromCircle(8)" class="circle" cx="203.4778" cy="306.2015" r="52.2934" />
<text class="nLabel" x="203.48" y="301.20">95</text>
<text class="belong" x="203.48" y="311.20">(1)</text>
<circle onclick="fromCircle(4)" class="circle" cx="104.8354" cy="109.1784" r="91.8372" />
<text class="nLabel" x="104.84" y="104.18">293</text>
<text class="belong" x="104.84" y="114.18">(2)</text>
<circle onclick="fromCircle(6)" class="circle" cx="264.8205" cy="274.3065" r="5.3652" />
<text class="nLabel" x="264.82" y="269.31">1</text>
<text class="belong" x="264.82" y="279.31">(2, 3)</text>
<circle onclick="fromCircle(5)" class="circle" cx="271.4236" cy="180.5866" r="81.7201" />
<text class="nLabel" x="271.42" y="175.59">232</text>
<text class="belong" x="271.42" y="185.59">(2, 4)</text>
<circle onclick="fromCircle(2)" class="circle" cx="435.0179" cy="211.0444" r="51.4611" />
<text class="nLabel" x="435.02" y="206.04">92</text>
<text class="belong" x="435.02" y="216.04">(3)</text>
<circle onclick="fromCircle(10)" class="circle" cx="359.5139" cy="290.3229" r="50.0431" />
<text class="nLabel" x="359.51" y="285.32">87</text>
<text class="belong" x="359.51" y="295.32">(1, 3)</text>
<circle onclick="fromCircle(1)" class="circle" cx="294.2773" cy="407.3235" r="75.3040" />
<text class="nLabel" x="294.28" y="402.32">197</text>
<text class="belong" x="294.28" y="412.32">(4)</text>
<g id="legendBox">
<rect class="p0 borderLine" x="500.00" y="50.00" width="30.00" height="15.00" />
<rect class="q0" x="500.00" y="50.00" width="30.00" height="15.00" />
<text class="legend" x="540.00" y="65.00">Male UP</text>
<rect class="p1 borderLine" x="500.00" y="90.00" width="30.00" height="15.00" />
<rect class="q1" x="500.00" y="90.00" width="30.00" height="15.00" />
<text class="legend" x="540.00" y="105.00">Male DOWN</text>
<rect class="p2 borderLine" x="500.00" y="130.00" width="30.00" height="15.00" />
<rect class="q2" x="500.00" y="130.00" width="30.00" height="15.00" />
<text class="legend" x="540.00" y="145.00">Female UP</text>
<rect class="p3 borderLine" x="500.00" y="170.00" width="30.00" height="15.00" />
<rect class="q3" x="500.00" y="170.00" width="30.00" height="15.00" />
<text class="legend" x="540.00" y="185.00">Female DOWN</text>
</g>
</svg>
