<svg xmlns="http://www.w3.org/2000/svg" xmlns:xlink="http://www.w3.org/1999/xlink" width="700" height="500">
<defs>
<style type="text/css"><![CDATA[
  .borderLine {
	   stroke: none;
	   fill-opacity:  0.4 ;
  }
  .outLine {
	   stroke-width:  1 ;
	   fill: none;
  }
  .circle {
	   stroke: #888888;
	   stroke-width: 0.5;
	   fill: none;
    pointer-events: all;
  }
  .nLabel {
	   font-family: Arial;
    pointer-events: none;
	   font-size: 10px;
	   text-anchor: middle;
	   alignment-baseline: central;
  }
  .belong {
	   font-family: Arial;
    pointer-events: none;
	   font-size: 5px;
	   text-anchor: middle;
	   alignment-baseline: central;
  }
  .legend {
    font-family: Arial;
    font-size: 15px;
  }
  #legendBox {
    display:  inline ;
  }
  .p0{
    stroke: none;
    fill: #e6194b;
  }
  .q0{
    fill: none;
    stroke: #e6194b;
  }
  .p1{
    stroke: none;
    fill: #3cb44b;
  }
  .q1{
    fill: none;
    stroke: #3cb44b;
  }
  .p2{
    stroke: none;
    fill: #ffe119;
  }
  .q2{
    fill: none;
    stroke: #ffe119;
  }
  .p3{
    stroke: none;
    fill: #0082c8;
  }
  .q3{
    fill: none;
    stroke: #0082c8;
  }
]]>
</style>
<symbol id="bl0">
<path d="M 263.24 336.41 L 262.11 337.44 L 260.98 338.48 L 259.84 339.51 L 258.72 340.55 L 257.59 341.59 L 256.46 342.62 L 255.33 343.66 L 254.20 344.69 L 253.07 345.72 L 251.95 346.76 L 250.82 347.80 L 249.69 348.84 L 248.56 349.87 L 247.43 350.91 L 246.30 351.94 L 245.17 352.98 L 244.04 354.01 L 242.91 355.05 L 241.77 356.08 L 240.64 357.11 L 239.51 358.14 L 238.38 359.18 L 237.25 360.21 L 236.12 361.25 L 234.99 362.29 L 233.86 363.33 L 232.73 364.36 L 231.60 365.40 L 230.48 366.44 L 229.35 367.47 L 228.22 368.51 L 227.10 369.55 L 225.97 370.58 L 224.84 371.62 L 223.70 372.65 L 222.57 373.68 L 221.44 374.71 L 220.31 375.74 L 219.18 376.78 L 218.05 377.81 L 216.91 378.84 L 215.77 379.86 L 214.61 380.86 L 213.43 381.83 L 212.22 382.77 L 210.98 383.66 L 209.70 384.49 L 208.38 385.27 L 207.03 385.98 L 205.65 386.63 L 204.24 387.22 L 202.80 387.74 L 201.35 388.19 L 199.87 388.59 L 198.38 388.90 L 196.87 389.16 L 195.35 389.34 L 193.83 389.45 L 192.30 389.50 L 190.78 389.47 L 189.25 389.37 L 187.73 389.21 L 186.22 388.97 L 184.73 388.66 L 183.25 388.29 L 181.78 387.85 L 180.34 387.34 L 178.92 386.76 L 177.54 386.13 L 176.18 385.42 L 174.85 384.66 L 173.56 383.84 L 172.31 382.96 L 171.11 382.02 L 169.94 381.03 L 168.83 379.99 L 167.76 378.90 L 166.74 377.76 L 165.78 376.57 L 164.88 375.34 L 164.03 374.07 L 163.23 372.76 L 162.50 371.42 L 161.84 370.04 L 161.23 368.64 L 160.69 367.21 L 160.22 365.76 L 159.81 364.28 L 159.47 362.79 L 159.20 361.29 L 159.00 359.77 L 158.87 358.25 L 158.81 356.72 L 158.82 355.20 L 158.90 353.67 L 159.05 352.15 L 159.27 350.63 L 159.56 349.13 L 159.91 347.65 L 160.34 346.18 L 160.83 344.73 L 161.39 343.31 L 162.01 341.91 L 162.70 340.54 L 163.44 339.20 L 164.24 337.90 L 165.09 336.63 L 165.97 335.38 L 166.89 334.16 L 167.83 332.95 L 168.79 331.74 L 169.74 330.54 L 170.70 329.35 L 171.66 328.16 L 172.62 326.96 L 173.58 325.77 L 174.54 324.58 L 175.50 323.39 L 176.46 322.20 L 177.42 321.01 L 178.37 319.81 L 179.33 318.61 L 180.29 317.42 L 181.25 316.22 L 182.21 315.03 L 183.16 313.83 L 184.12 312.64 L 185.08 311.44 L 186.04 310.25 L 187.00 309.05 L 187.96 307.86 L 188.92 306.67 L 189.88 305.48 L 190.84 304.29 L 191.81 303.10 L 192.76 301.90 L 193.72 300.71 L 194.68 299.51 L 195.64 298.32 L 196.61 297.13 L 197.57 295.93 L 198.52 294.74 L 199.48 293.54 L 200.44 292.34 L 201.39 291.15 L 202.35 289.96 L 203.31 288.76 L 204.27 287.57 L 205.23 286.37 L 206.19 285.18 L 207.15 283.99 L 208.12 282.80 L 209.10 281.62 L 210.08 280.45 L 211.08 279.29 L 212.11 278.15 L 213.18 277.06 L 214.28 276.00 L 215.42 274.99 L 216.61 274.02 L 217.83 273.10 L 219.08 272.23 L 220.37 271.41 L 221.70 270.65 L 223.06 269.93 L 224.46 269.28 L 225.90 268.69 L 227.41 268.16 L 228.97 267.68 L 230.58 267.25 L 232.23 266.87 L 233.88 266.53 L 235.52 266.24 L 237.14 266.01 L 238.73 265.87 L 240.29 265.79 L 241.83 265.79 L 243.36 265.87 L 244.89 266.01 L 246.42 266.20 L 247.93 266.46 L 249.42 266.78 L 250.90 267.17 L 252.37 267.61 L 253.82 268.11 L 255.25 268.66 L 256.65 269.27 L 258.03 269.94 L 259.38 270.65 L 260.70 271.42 L 262.00 272.25 L 263.25 273.12 L 264.47 274.04 L 265.66 275.01 L 266.80 276.03 L 267.91 277.09 L 268.97 278.19 L 269.98 279.34 L 270.95 280.52 L 271.88 281.74 L 272.76 283.00 L 273.58 284.29 L 274.35 285.61 L 275.07 286.96 L 275.74 288.34 L 276.34 289.75 L 276.90 291.17 L 277.39 292.62 L 277.83 294.09 L 278.22 295.57 L 278.54 297.07 L 278.80 298.57 L 279.01 300.09 L 279.15 301.61 L 279.23 303.15 L 279.26 304.68 L 279.22 306.20 L 279.12 307.73 L 278.96 309.26 L 278.74 310.77 L 278.46 312.28 L 278.13 313.77 L 277.73 315.25 L 277.28 316.71 L 276.77 318.15 L 276.20 319.57 L 275.58 320.97 L 274.90 322.34 L 274.17 323.69 L 273.38 325.00 L 272.55 326.28 L 271.66 327.53 L 270.72 328.74 L 269.75 329.92 L 268.72 331.06 L 267.67 332.17 L 266.59 333.26 L 265.48 334.32 L 264.36 335.37 Z" />
</symbol>
<symbol id="bl1">
<path d="M 304.15 249.18 L 303.56 253.13 L 303.01 257.11 L 302.35 261.12 L 301.47 265.14 L 300.31 269.11 L 298.90 272.99 L 297.28 276.74 L 295.50 280.39 L 293.64 283.98 L 291.75 287.54 L 289.88 291.08 L 288.04 294.64 L 286.25 298.19 L 284.50 301.76 L 282.78 305.32 L 281.06 308.88 L 279.33 312.44 L 277.58 315.98 L 275.75 319.47 L 273.79 322.88 L 271.63 326.13 L 269.21 329.18 L 266.52 331.97 L 263.56 334.49 L 260.37 336.69 L 256.97 338.55 L 253.40 340.05 L 249.68 341.18 L 245.88 341.92 L 242.02 342.28 L 238.15 342.23 L 234.29 341.77 L 230.49 340.91 L 226.78 339.63 L 223.17 337.94 L 219.65 335.83 L 216.23 333.35 L 212.92 330.61 L 209.74 327.75 L 206.70 324.88 L 203.76 322.05 L 200.88 319.24 L 198.03 316.45 L 195.19 313.66 L 192.35 310.88 L 189.52 308.10 L 186.68 305.32 L 183.85 302.54 L 181.02 299.76 L 178.19 296.97 L 175.36 294.19 L 172.52 291.40 L 169.69 288.62 L 166.86 285.84 L 164.03 283.06 L 161.20 280.28 L 158.37 277.50 L 155.54 274.71 L 152.71 271.93 L 149.88 269.15 L 147.05 266.37 L 144.22 263.59 L 141.39 260.81 L 138.56 258.02 L 135.73 255.24 L 132.90 252.47 L 130.07 249.69 L 127.24 246.91 L 124.42 244.12 L 121.59 241.33 L 118.78 238.55 L 115.97 235.74 L 113.19 232.92 L 110.45 230.05 L 107.77 227.14 L 105.17 224.15 L 102.65 221.10 L 100.23 217.97 L 97.90 214.77 L 95.67 211.50 L 93.54 208.16 L 91.51 204.76 L 89.59 201.30 L 87.78 197.78 L 86.07 194.21 L 84.47 190.59 L 82.98 186.92 L 81.61 183.21 L 80.35 179.46 L 79.20 175.67 L 78.18 171.85 L 77.26 167.99 L 76.47 164.11 L 75.79 160.21 L 75.24 156.30 L 74.80 152.36 L 74.49 148.41 L 74.29 144.46 L 74.21 140.51 L 74.26 136.55 L 74.43 132.59 L 74.71 128.65 L 75.12 124.71 L 75.65 120.79 L 76.29 116.88 L 77.06 113.00 L 77.94 109.14 L 78.94 105.31 L 80.05 101.51 L 81.28 97.75 L 82.63 94.02 L 84.08 90.34 L 85.65 86.71 L 87.33 83.12 L 89.12 79.59 L 91.01 76.11 L 93.01 72.70 L 95.11 69.34 L 97.32 66.05 L 99.62 62.83 L 102.02 59.68 L 104.51 56.61 L 107.10 53.61 L 109.78 50.69 L 112.54 47.86 L 115.39 45.11 L 118.32 42.45 L 121.33 39.88 L 124.42 37.40 L 127.58 35.02 L 130.81 32.73 L 134.11 30.54 L 137.48 28.46 L 140.91 26.48 L 144.39 24.60 L 147.93 22.83 L 151.53 21.17 L 155.17 19.62 L 158.86 18.18 L 162.59 16.86 L 166.36 15.65 L 170.16 14.55 L 174.00 13.57 L 177.86 12.71 L 181.75 11.96 L 185.66 11.34 L 189.59 10.83 L 193.52 10.44 L 197.47 10.17 L 201.43 10.02 L 205.39 10.00 L 209.35 10.09 L 213.30 10.31 L 217.25 10.64 L 221.18 11.09 L 225.10 11.67 L 229.00 12.36 L 232.87 13.17 L 236.72 14.10 L 240.54 15.15 L 244.32 16.31 L 248.07 17.58 L 251.78 18.97 L 255.44 20.47 L 259.06 22.08 L 262.62 23.81 L 266.13 25.64 L 269.58 27.57 L 272.98 29.61 L 276.30 31.76 L 279.56 34.00 L 282.76 36.34 L 285.88 38.78 L 288.92 41.31 L 291.89 43.93 L 294.77 46.65 L 297.58 49.44 L 300.29 52.33 L 302.91 55.29 L 305.44 58.33 L 307.88 61.45 L 310.22 64.64 L 312.47 67.90 L 314.61 71.23 L 316.65 74.62 L 318.59 78.07 L 320.42 81.58 L 322.14 85.15 L 323.76 88.77 L 325.26 92.43 L 326.65 96.14 L 327.92 99.89 L 329.08 103.68 L 330.13 107.49 L 331.06 111.34 L 331.87 115.22 L 332.56 119.12 L 333.13 123.03 L 333.58 126.97 L 333.91 130.91 L 334.13 134.86 L 334.21 138.82 L 334.18 142.78 L 334.03 146.74 L 333.76 150.69 L 333.37 154.63 L 332.86 158.56 L 332.22 162.47 L 331.47 166.36 L 330.61 170.22 L 329.63 174.06 L 328.54 177.87 L 327.35 181.66 L 326.08 185.41 L 324.75 189.15 L 323.38 192.87 L 321.99 196.59 L 320.60 200.31 L 319.20 204.03 L 317.81 207.74 L 316.41 211.46 L 315.02 215.17 L 313.63 218.89 L 312.23 222.62 L 310.84 226.34 L 309.48 230.07 L 308.16 233.81 L 306.94 237.59 L 305.83 241.41 L 304.90 245.28 Z" />
</symbol>
<symbol id="bl2">
<path d="M 360.78 297.92 L 359.42 298.33 L 358.05 298.72 L 356.68 299.10 L 355.30 299.47 L 353.92 299.84 L 352.55 300.21 L 351.17 300.57 L 349.79 300.94 L 348.42 301.31 L 347.04 301.68 L 345.67 302.04 L 344.30 302.41 L 342.93 302.77 L 341.56 303.14 L 340.18 303.50 L 338.80 303.87 L 337.43 304.24 L 336.05 304.60 L 334.67 304.97 L 333.30 305.33 L 331.92 305.70 L 330.54 306.07 L 329.17 306.43 L 327.79 306.80 L 326.41 307.16 L 325.04 307.53 L 323.66 307.90 L 322.28 308.27 L 320.91 308.63 L 319.53 309.00 L 318.16 309.37 L 316.78 309.75 L 315.40 310.12 L 314.00 310.50 L 312.56 310.89 L 311.08 311.30 L 309.53 311.71 L 307.96 312.08 L 306.39 312.37 L 304.87 312.55 L 303.39 312.58 L 301.96 312.48 L 300.55 312.24 L 299.18 311.87 L 297.85 311.38 L 296.57 310.77 L 295.35 310.05 L 294.20 309.23 L 293.13 308.31 L 292.14 307.29 L 291.23 306.20 L 290.41 305.04 L 289.65 303.83 L 288.94 302.58 L 288.26 301.32 L 287.60 300.05 L 286.95 298.78 L 286.29 297.51 L 285.64 296.23 L 284.99 294.95 L 284.34 293.67 L 283.69 292.40 L 283.04 291.12 L 282.39 289.84 L 281.74 288.56 L 281.09 287.28 L 280.44 286.00 L 279.79 284.72 L 279.14 283.45 L 278.49 282.17 L 277.84 280.89 L 277.19 279.62 L 276.54 278.34 L 275.89 277.06 L 275.24 275.78 L 274.59 274.51 L 273.95 273.23 L 273.32 271.95 L 272.72 270.65 L 272.17 269.34 L 271.69 268.00 L 271.32 266.63 L 271.06 265.24 L 270.92 263.83 L 270.90 262.42 L 271.00 261.01 L 271.23 259.61 L 271.59 258.25 L 272.06 256.92 L 272.64 255.63 L 273.34 254.40 L 274.14 253.23 L 275.03 252.14 L 276.01 251.11 L 277.06 250.15 L 278.15 249.24 L 279.28 248.37 L 280.43 247.53 L 281.59 246.70 L 282.76 245.88 L 283.92 245.06 L 285.09 244.24 L 286.25 243.43 L 287.41 242.61 L 288.57 241.79 L 289.74 240.97 L 290.90 240.15 L 292.06 239.34 L 293.23 238.52 L 294.39 237.70 L 295.56 236.88 L 296.72 236.06 L 297.89 235.25 L 299.05 234.43 L 300.22 233.61 L 301.39 232.79 L 302.56 231.97 L 303.73 231.15 L 304.89 230.34 L 306.06 229.52 L 307.23 228.70 L 308.40 227.88 L 309.56 227.07 L 310.73 226.26 L 311.90 225.44 L 313.06 224.63 L 314.23 223.82 L 315.40 223.00 L 316.56 222.19 L 317.73 221.37 L 318.89 220.55 L 320.06 219.74 L 321.23 218.93 L 322.41 218.14 L 323.60 217.36 L 324.82 216.62 L 326.05 215.91 L 327.30 215.23 L 328.56 214.59 L 329.85 214.00 L 331.16 213.44 L 332.49 212.93 L 333.83 212.46 L 335.18 212.04 L 336.55 211.65 L 337.93 211.31 L 339.31 211.01 L 340.72 210.76 L 342.12 210.56 L 343.53 210.39 L 344.94 210.28 L 346.36 210.20 L 347.78 210.17 L 349.20 210.19 L 350.62 210.25 L 352.04 210.35 L 353.45 210.51 L 354.86 210.70 L 356.26 210.94 L 357.65 211.23 L 359.03 211.56 L 360.40 211.93 L 361.76 212.35 L 363.11 212.81 L 364.44 213.31 L 365.75 213.86 L 367.05 214.44 L 368.33 215.06 L 369.58 215.73 L 370.82 216.44 L 372.03 217.18 L 373.22 217.96 L 374.38 218.78 L 375.51 219.64 L 376.62 220.54 L 377.70 221.46 L 378.75 222.42 L 379.77 223.42 L 380.75 224.44 L 381.70 225.50 L 382.62 226.58 L 383.51 227.70 L 384.36 228.84 L 385.17 230.01 L 385.94 231.20 L 386.68 232.42 L 387.37 233.66 L 388.03 234.92 L 388.65 236.20 L 389.22 237.50 L 389.75 238.82 L 390.24 240.15 L 390.69 241.50 L 391.10 242.86 L 391.46 244.23 L 391.78 245.62 L 392.05 247.01 L 392.28 248.41 L 392.47 249.82 L 392.61 251.24 L 392.71 252.65 L 392.75 254.07 L 392.76 255.49 L 392.73 256.91 L 392.64 258.33 L 392.51 259.74 L 392.34 261.16 L 392.12 262.56 L 391.85 263.96 L 391.55 265.34 L 391.20 266.72 L 390.80 268.09 L 390.37 269.44 L 389.89 270.78 L 389.37 272.10 L 388.80 273.41 L 388.19 274.69 L 387.54 275.96 L 386.86 277.21 L 386.13 278.43 L 385.37 279.63 L 384.57 280.80 L 383.74 281.94 L 382.86 283.07 L 381.95 284.17 L 381.01 285.23 L 380.03 286.26 L 379.02 287.26 L 377.98 288.23 L 376.91 289.16 L 375.82 290.06 L 374.69 290.92 L 373.53 291.76 L 372.35 292.55 L 371.14 293.30 L 369.92 294.02 L 368.67 294.70 L 367.40 295.34 L 366.10 295.94 L 364.80 296.49 L 363.47 297.01 L 362.13 297.48 Z" />
</symbol>
<symbol id="bl3">
<path d="M 422.57 423.02 L 421.87 425.44 L 421.11 427.84 L 420.28 430.22 L 419.38 432.57 L 418.42 434.90 L 417.39 437.20 L 416.30 439.47 L 415.15 441.71 L 413.94 443.92 L 412.66 446.09 L 411.33 448.23 L 409.93 450.33 L 408.49 452.39 L 406.98 454.41 L 405.42 456.39 L 403.80 458.32 L 402.13 460.21 L 400.41 462.05 L 398.64 463.84 L 396.82 465.59 L 394.95 467.28 L 393.04 468.91 L 391.09 470.50 L 389.08 472.03 L 387.04 473.50 L 384.95 474.92 L 382.83 476.29 L 380.67 477.58 L 378.48 478.83 L 376.25 480.00 L 373.99 481.12 L 371.70 482.17 L 369.39 483.17 L 367.05 484.09 L 364.68 484.95 L 362.29 485.75 L 359.87 486.47 L 357.44 487.13 L 354.99 487.73 L 352.53 488.25 L 350.05 488.71 L 347.56 489.10 L 345.06 489.42 L 342.55 489.67 L 340.04 489.85 L 337.53 489.96 L 335.01 490.00 L 332.49 489.97 L 329.97 489.87 L 327.46 489.70 L 324.95 489.46 L 322.45 489.15 L 319.96 488.77 L 317.48 488.33 L 315.01 487.82 L 312.56 487.24 L 310.12 486.59 L 307.71 485.87 L 305.31 485.08 L 302.94 484.23 L 300.60 483.32 L 298.27 482.34 L 295.98 481.30 L 293.72 480.19 L 291.49 479.02 L 289.29 477.79 L 287.13 476.50 L 285.00 475.15 L 282.91 473.74 L 280.86 472.27 L 278.85 470.75 L 276.89 469.17 L 274.97 467.54 L 273.10 465.86 L 271.27 464.13 L 269.50 462.34 L 267.77 460.51 L 266.09 458.63 L 264.47 456.70 L 262.90 454.73 L 261.39 452.72 L 259.94 450.66 L 258.53 448.57 L 257.19 446.44 L 255.91 444.27 L 254.69 442.07 L 253.53 439.84 L 252.43 437.57 L 251.40 435.27 L 250.43 432.95 L 249.53 430.60 L 248.69 428.22 L 247.91 425.83 L 247.21 423.41 L 246.57 420.97 L 246.00 418.52 L 245.49 416.05 L 245.06 413.57 L 244.69 411.07 L 244.40 408.57 L 244.17 406.07 L 244.01 403.55 L 243.92 401.04 L 243.91 398.52 L 243.96 396.00 L 244.08 393.49 L 244.27 390.97 L 244.53 388.47 L 244.87 385.97 L 245.27 383.48 L 245.74 381.01 L 246.28 378.55 L 246.88 376.10 L 247.55 373.67 L 248.29 371.26 L 249.10 368.88 L 249.97 366.51 L 250.91 364.17 L 251.90 361.86 L 252.97 359.58 L 254.09 357.32 L 255.27 355.09 L 256.49 352.89 L 257.76 350.70 L 259.05 348.54 L 260.35 346.38 L 261.67 344.23 L 262.98 342.07 L 264.30 339.92 L 265.62 337.77 L 266.94 335.62 L 268.26 333.47 L 269.57 331.31 L 270.87 329.16 L 272.16 326.99 L 273.42 324.80 L 274.64 322.59 L 275.81 320.36 L 276.92 318.10 L 277.99 315.82 L 279.03 313.53 L 280.05 311.23 L 281.07 308.93 L 282.10 306.63 L 283.12 304.33 L 284.13 302.03 L 285.16 299.72 L 286.19 297.43 L 287.25 295.14 L 288.36 292.88 L 289.55 290.67 L 290.88 288.56 L 292.40 286.63 L 294.16 284.93 L 296.14 283.52 L 298.30 282.42 L 300.61 281.69 L 303.01 281.32 L 305.44 281.34 L 307.84 281.75 L 310.18 282.55 L 312.40 283.69 L 314.52 285.13 L 316.55 286.75 L 318.55 288.43 L 320.56 290.04 L 322.62 291.56 L 324.72 292.96 L 326.89 294.25 L 329.11 295.45 L 331.35 296.60 L 333.62 297.71 L 335.89 298.81 L 338.17 299.89 L 340.46 300.97 L 342.74 302.05 L 345.01 303.12 L 347.29 304.20 L 349.57 305.28 L 351.86 306.36 L 354.14 307.44 L 356.42 308.52 L 358.70 309.59 L 360.98 310.67 L 363.26 311.75 L 365.54 312.83 L 367.81 313.92 L 370.09 315.01 L 372.36 316.12 L 374.61 317.25 L 376.85 318.41 L 379.06 319.62 L 381.25 320.88 L 383.39 322.19 L 385.51 323.56 L 387.58 324.99 L 389.61 326.48 L 391.61 328.02 L 393.55 329.62 L 395.46 331.28 L 397.31 332.98 L 399.12 334.73 L 400.88 336.54 L 402.58 338.39 L 404.24 340.29 L 405.84 342.23 L 407.39 344.22 L 408.88 346.25 L 410.31 348.32 L 411.69 350.43 L 413.01 352.58 L 414.27 354.76 L 415.46 356.97 L 416.60 359.22 L 417.67 361.50 L 418.68 363.81 L 419.63 366.14 L 420.50 368.50 L 421.32 370.89 L 422.06 373.29 L 422.75 375.72 L 423.36 378.16 L 423.90 380.62 L 424.38 383.09 L 424.79 385.58 L 425.12 388.08 L 425.39 390.58 L 425.59 393.09 L 425.72 395.61 L 425.79 398.13 L 425.78 400.64 L 425.70 403.16 L 425.55 405.68 L 425.33 408.18 L 425.04 410.69 L 424.68 413.18 L 424.25 415.66 L 423.76 418.13 L 423.20 420.58 Z" />
</symbol>
</defs>
<!-- isDone: 0 -->
<rect width="700" height="500" style="fill:#fff;stroke-width:0" />
<use class="p0 borderLine" xlink:href="#bl0"/>
<use class="p1 borderLine" xlink:href="#bl1"/>
<use class="p2 borderLine" xlink:href="#bl2"/>
<use class="p3 borderLine" xlink:href="#bl3"/>
<use class="q0 outLine" xlink:href="#bl0"/>
<use class="q1 outLine" xlink:href="#bl1"/>
<use class="q2 outLine" xlink:href="#bl2"/>
<use class="q3 outLine" xlink:href="#bl3"/>
<circle onclick="fromCircle(8)" class="circle" cx="192.0331" cy="356.2554" r="27.5644" />
<text class="nLabel" x="192.03" y="351.26">7</text>
<text class="belong" x="192.03" y="361.26">(1)</text>
<circle onclick="fromCircle(12)" class="circle" cx="240.5031" cy="304.4964" r="32.9457" />
<text class="nLabel" x="240.50" y="299.50">10</text>
<text class="belong" x="240.50" y="309.50">(1, 2)</text>
<circle onclick="fromCircle(4)" class="circle" cx="204.0493" cy="139.5578" r="124.5855" />
<text class="nLabel" x="204.05" y="134.56">143</text>
<text class="belong" x="204.05" y="144.56">(2)</text>
<circle onclick="fromCircle(6)" class="circle" cx="286.9611" cy="262.8974" r="10.4184" />
<text class="nLabel" x="286.96" y="257.90">1</text>
<text class="belong" x="286.96" y="267.90">(2, 3)</text>
<circle onclick="fromCircle(2)" class="circle" cx="348.0515" cy="254.9239" r="38.9819" />
<text class="nLabel" x="348.05" y="249.92">14</text>
<text class="belong" x="348.05" y="259.92">(3)</text>
<circle onclick="fromCircle(3)" class="circle" cx="304.1538" cy="296.6102" r="10.4184" />
<text class="nLabel" x="304.15" y="291.61">1</text>
<text class="belong" x="304.15" y="301.61">(3, 4)</text>
<circle onclick="fromCircle(1)" class="circle" cx="334.9576" cy="399.2811" r="85.2780" />
<text class="nLabel" x="334.96" y="394.28">67</text>
<text class="belong" x="334.96" y="404.28">(4)</text>
<g id="legendBox">
<rect class="p0 borderLine" x="500.00" y="50.00" width="30.00" height="15.00" />
<rect class="q0" x="500.00" y="50.00" width="30.00" height="15.00" />
<text class="legend" x="540.00" y="65.00">Upregulated in Bulk</text>
<rect class="p1 borderLine" x="500.00" y="90.00" width="30.00" height="15.00" />
<rect class="q1" x="500.00" y="90.00" width="30.00" height="15.00" />
<text class="legend" x="540.00" y="105.00">Upregulated in CM specific</text>
<rect class="p2 borderLine" x="500.00" y="130.00" width="30.00" height="15.00" />
<rect class="q2" x="500.00" y="130.00" width="30.00" height="15.00" />
<text class="legend" x="540.00" y="145.00">Downregulated in Bulk</text>
<rect class="p3 borderLine" x="500.00" y="170.00" width="30.00" height="15.00" />
<rect class="q3" x="500.00" y="170.00" width="30.00" height="15.00" />
<text class="legend" x="540.00" y="185.00">Downregulated in CM specific</text>
</g>
</svg>
