<svg xmlns="http://www.w3.org/2000/svg" xmlns:xlink="http://www.w3.org/1999/xlink" width="700" height="500">
<defs>
<style type="text/css"><![CDATA[
  .borderLine {
	   stroke: none;
	   fill-opacity:  0.4 ;
  }
  .outLine {
	   stroke-width:  1 ;
	   fill: none;
  }
  .circle {
	   stroke: #888888;
	   stroke-width: 0.5;
	   fill: none;
    pointer-events: all;
  }
  .nLabel {
	   font-family: Arial;
    pointer-events: none;
	   font-size: 10px;
	   text-anchor: middle;
	   alignment-baseline: central;
  }
  .belong {
	   font-family: Arial;
    pointer-events: none;
	   font-size: 5px;
	   text-anchor: middle;
	   alignment-baseline: central;
  }
  .legend {
    font-family: Arial;
    font-size: 15px;
  }
  #legendBox {
    display:  inline ;
  }
  .p0{
    stroke: none;
    fill: #e6194b;
  }
  .q0{
    fill: none;
    stroke: #e6194b;
  }
  .p1{
    stroke: none;
    fill: #3cb44b;
  }
  .q1{
    fill: none;
    stroke: #3cb44b;
  }
  .p2{
    stroke: none;
    fill: #ffe119;
  }
  .q2{
    fill: none;
    stroke: #ffe119;
  }
  .p3{
    stroke: none;
    fill: #0082c8;
  }
  .q3{
    fill: none;
    stroke: #0082c8;
  }
]]>
</style>
<symbol id="bl0">
<path d="M 327.53 357.45 L 322.25 358.91 L 316.98 360.37 L 311.77 361.84 L 306.67 363.33 L 301.81 364.85 L 297.28 366.43 L 293.15 368.07 L 289.38 369.82 L 285.85 371.69 L 282.49 373.74 L 279.24 375.98 L 276.08 378.41 L 272.98 380.97 L 269.95 383.64 L 266.96 386.36 L 264.00 389.12 L 261.05 391.89 L 258.11 394.67 L 255.17 397.45 L 252.24 400.24 L 249.30 403.02 L 246.36 405.80 L 243.43 408.59 L 240.49 411.37 L 237.55 414.14 L 234.61 416.91 L 231.64 419.66 L 228.66 422.39 L 225.63 425.07 L 222.55 427.69 L 219.40 430.22 L 216.18 432.64 L 212.87 434.95 L 209.48 437.14 L 206.01 439.20 L 202.47 441.13 L 198.86 442.93 L 195.19 444.59 L 191.45 446.11 L 187.66 447.49 L 183.82 448.73 L 179.94 449.83 L 176.02 450.79 L 172.07 451.59 L 168.09 452.24 L 164.09 452.75 L 160.07 453.11 L 156.04 453.32 L 152.01 453.38 L 147.98 453.28 L 143.95 453.04 L 139.94 452.65 L 135.94 452.10 L 131.97 451.41 L 128.03 450.58 L 124.12 449.59 L 120.25 448.46 L 116.42 447.19 L 112.65 445.77 L 108.92 444.22 L 105.26 442.53 L 101.67 440.70 L 98.14 438.74 L 94.69 436.65 L 91.32 434.44 L 88.04 432.09 L 84.84 429.63 L 81.74 427.05 L 78.74 424.36 L 75.84 421.56 L 73.04 418.65 L 70.36 415.64 L 67.79 412.53 L 65.34 409.33 L 63.00 406.04 L 60.80 402.66 L 58.72 399.21 L 56.76 395.68 L 54.95 392.08 L 53.26 388.41 L 51.72 384.68 L 50.31 380.91 L 49.05 377.07 L 47.93 373.19 L 46.95 369.28 L 46.13 365.33 L 45.44 361.35 L 44.91 357.36 L 44.53 353.34 L 44.30 349.31 L 44.21 345.28 L 44.28 341.25 L 44.50 337.22 L 44.86 333.20 L 45.38 329.20 L 46.05 325.22 L 46.86 321.27 L 47.82 317.35 L 48.92 313.47 L 50.17 309.63 L 51.57 305.85 L 53.10 302.12 L 54.77 298.45 L 56.57 294.84 L 58.51 291.30 L 60.58 287.84 L 62.78 284.46 L 65.10 281.16 L 67.54 277.94 L 70.10 274.83 L 72.78 271.81 L 75.56 268.89 L 78.45 266.08 L 81.45 263.38 L 84.54 260.79 L 87.73 258.32 L 91.01 255.98 L 94.37 253.75 L 97.82 251.65 L 101.34 249.68 L 104.93 247.84 L 108.58 246.15 L 112.30 244.58 L 116.07 243.16 L 119.90 241.88 L 123.77 240.74 L 127.68 239.74 L 131.62 238.90 L 135.59 238.20 L 139.59 237.64 L 143.60 237.24 L 147.63 236.99 L 151.66 236.89 L 155.70 236.94 L 159.73 237.14 L 163.74 237.49 L 167.75 237.99 L 171.73 238.64 L 175.69 239.44 L 179.62 240.38 L 183.51 241.46 L 187.36 242.68 L 191.17 244.02 L 194.94 245.47 L 198.69 246.99 L 202.41 248.57 L 206.12 250.18 L 209.82 251.81 L 213.52 253.45 L 217.22 255.09 L 220.93 256.71 L 224.66 258.30 L 228.42 259.82 L 232.24 261.18 L 236.12 262.28 L 240.04 262.97 L 243.96 263.10 L 247.85 262.61 L 251.68 261.57 L 255.43 260.11 L 259.10 258.39 L 262.69 256.51 L 266.23 254.56 L 269.75 252.57 L 273.26 250.57 L 276.76 248.56 L 280.27 246.55 L 283.77 244.55 L 287.27 242.54 L 290.78 240.53 L 294.28 238.53 L 297.80 236.55 L 301.33 234.61 L 304.89 232.74 L 308.51 231.01 L 312.20 229.45 L 315.95 228.09 L 319.78 226.95 L 323.66 226.05 L 327.60 225.39 L 331.56 224.98 L 335.54 224.82 L 339.53 224.91 L 343.50 225.25 L 347.44 225.84 L 351.34 226.67 L 355.18 227.75 L 358.95 229.07 L 362.62 230.63 L 366.20 232.43 L 369.67 234.49 L 373.04 236.81 L 376.34 239.42 L 379.56 242.36 L 382.71 245.65 L 385.78 249.32 L 388.71 253.39 L 391.41 257.82 L 393.80 262.57 L 395.80 267.56 L 397.37 272.72 L 398.50 278.01 L 399.16 283.38 L 399.37 288.79 L 399.11 294.19 L 398.39 299.56 L 397.22 304.84 L 395.60 310.01 L 393.54 315.01 L 391.06 319.82 L 388.18 324.41 L 384.92 328.73 L 381.30 332.75 L 377.35 336.46 L 373.11 339.81 L 368.59 342.80 L 363.84 345.42 L 358.89 347.69 L 353.81 349.65 L 348.62 351.39 L 343.38 352.99 L 338.10 354.50 L 332.82 355.98 Z" />
</symbol>
<symbol id="bl1">
<path d="M 329.40 208.70 L 327.34 211.94 L 325.07 215.04 L 322.61 217.99 L 319.96 220.78 L 317.13 223.38 L 314.15 225.82 L 311.04 228.09 L 307.83 230.23 L 304.57 232.28 L 301.27 234.27 L 297.97 236.22 L 294.66 238.17 L 291.35 240.10 L 288.04 242.03 L 284.73 243.96 L 281.42 245.89 L 278.11 247.82 L 274.79 249.74 L 271.48 251.67 L 268.16 253.59 L 264.83 255.49 L 261.47 257.35 L 258.05 259.12 L 254.55 260.72 L 250.95 262.03 L 247.27 262.94 L 243.52 263.32 L 239.77 263.12 L 236.02 262.40 L 232.31 261.32 L 228.65 259.99 L 225.05 258.53 L 221.47 257.00 L 217.92 255.44 L 214.37 253.87 L 210.81 252.30 L 207.26 250.73 L 203.71 249.17 L 200.15 247.63 L 196.57 246.13 L 192.97 244.69 L 189.33 243.34 L 185.67 242.10 L 181.96 240.98 L 178.22 239.99 L 174.44 239.13 L 170.64 238.41 L 166.82 237.81 L 162.97 237.34 L 159.12 236.98 L 155.26 236.70 L 151.39 236.51 L 147.52 236.36 L 143.65 236.24 L 139.77 236.14 L 135.90 236.04 L 132.03 235.94 L 128.16 235.84 L 124.29 235.72 L 120.42 235.58 L 116.55 235.40 L 112.69 235.16 L 108.84 234.83 L 105.00 234.38 L 101.18 233.81 L 97.38 233.10 L 93.61 232.27 L 89.87 231.30 L 86.17 230.20 L 82.51 228.98 L 78.90 227.62 L 75.34 226.13 L 71.83 224.52 L 68.38 222.79 L 65.00 220.94 L 61.68 218.97 L 58.44 216.88 L 55.27 214.68 L 52.18 212.37 L 49.17 209.95 L 46.25 207.42 L 43.43 204.80 L 40.70 202.07 L 38.06 199.26 L 35.53 196.35 L 33.10 193.35 L 30.78 190.27 L 28.57 187.10 L 26.48 183.86 L 24.50 180.55 L 22.64 177.17 L 20.89 173.73 L 19.28 170.23 L 17.78 166.67 L 16.42 163.07 L 15.18 159.42 L 14.07 155.72 L 13.09 151.99 L 12.24 148.22 L 11.53 144.43 L 10.96 140.62 L 10.51 136.78 L 10.21 132.94 L 10.04 129.08 L 10.00 125.22 L 10.10 121.37 L 10.34 117.52 L 10.71 113.67 L 11.22 109.85 L 11.86 106.04 L 12.64 102.26 L 13.55 98.51 L 14.59 94.79 L 15.76 91.12 L 17.06 87.48 L 18.49 83.90 L 20.05 80.36 L 21.72 76.89 L 23.52 73.47 L 25.44 70.12 L 27.47 66.84 L 29.62 63.64 L 31.88 60.51 L 34.25 57.46 L 36.72 54.50 L 39.30 51.63 L 41.98 48.84 L 44.75 46.16 L 47.62 43.58 L 50.57 41.10 L 53.61 38.72 L 56.74 36.45 L 59.94 34.30 L 63.21 32.25 L 66.56 30.33 L 69.97 28.52 L 73.44 26.84 L 76.97 25.28 L 80.55 23.84 L 84.18 22.53 L 87.85 21.35 L 91.57 20.30 L 95.32 19.38 L 99.09 18.59 L 102.90 17.94 L 106.72 17.43 L 110.56 17.04 L 114.41 16.79 L 118.27 16.68 L 122.12 16.71 L 125.98 16.87 L 129.83 17.17 L 133.66 17.60 L 137.48 18.17 L 141.27 18.87 L 145.04 19.71 L 148.77 20.68 L 152.47 21.78 L 156.13 23.01 L 159.74 24.37 L 163.30 25.85 L 166.80 27.46 L 170.25 29.19 L 173.64 31.04 L 176.97 33.00 L 180.23 35.05 L 183.45 37.19 L 186.64 39.38 L 189.80 41.61 L 192.95 43.85 L 196.09 46.11 L 199.23 48.36 L 202.37 50.62 L 205.50 52.88 L 208.64 55.14 L 211.78 57.40 L 214.92 59.67 L 218.05 61.93 L 221.19 64.19 L 224.33 66.45 L 227.47 68.71 L 230.60 70.98 L 233.74 73.24 L 236.88 75.50 L 240.01 77.77 L 243.15 80.03 L 246.29 82.30 L 249.43 84.56 L 252.57 86.83 L 255.71 89.09 L 258.85 91.36 L 261.99 93.62 L 265.13 95.88 L 268.27 98.15 L 271.42 100.42 L 274.56 102.68 L 277.70 104.95 L 280.84 107.22 L 283.98 109.48 L 287.13 111.75 L 290.27 114.02 L 293.41 116.29 L 296.55 118.56 L 299.70 120.83 L 302.84 123.10 L 305.97 125.39 L 309.08 127.69 L 312.16 130.04 L 315.17 132.47 L 318.06 135.01 L 320.82 137.70 L 323.41 140.54 L 325.81 143.54 L 328.01 146.69 L 330.01 149.98 L 331.78 153.39 L 333.33 156.90 L 334.65 160.51 L 335.73 164.20 L 336.56 167.95 L 337.14 171.75 L 337.48 175.58 L 337.57 179.42 L 337.40 183.26 L 336.98 187.08 L 336.32 190.87 L 335.41 194.60 L 334.26 198.26 L 332.87 201.85 L 331.25 205.33 Z" />
</symbol>
<symbol id="bl2">
<path d="M 432.33 283.75 L 430.19 285.87 L 428.06 287.99 L 425.92 290.10 L 423.79 292.22 L 421.66 294.33 L 419.52 296.45 L 417.39 298.57 L 415.25 300.68 L 413.12 302.80 L 410.98 304.91 L 408.85 307.03 L 406.71 309.15 L 404.58 311.26 L 402.44 313.38 L 400.31 315.49 L 398.17 317.61 L 396.03 319.73 L 393.89 321.84 L 391.75 323.96 L 389.61 326.07 L 387.47 328.18 L 385.32 330.28 L 383.14 332.35 L 380.93 334.39 L 378.66 336.37 L 376.34 338.27 L 373.94 340.09 L 371.47 341.80 L 368.93 343.39 L 366.32 344.87 L 363.64 346.23 L 360.90 347.46 L 358.11 348.55 L 355.26 349.52 L 352.38 350.35 L 349.46 351.05 L 346.51 351.61 L 343.54 352.03 L 340.55 352.31 L 337.56 352.45 L 334.55 352.44 L 331.55 352.30 L 328.57 352.02 L 325.60 351.59 L 322.65 351.03 L 319.73 350.33 L 316.85 349.49 L 314.01 348.52 L 311.21 347.41 L 308.47 346.16 L 305.78 344.76 L 303.12 343.20 L 300.48 341.45 L 297.82 339.50 L 295.16 337.35 L 292.56 335.04 L 290.07 332.67 L 287.74 330.26 L 285.57 327.87 L 283.51 325.48 L 281.51 323.09 L 279.55 320.69 L 277.59 318.30 L 275.65 315.90 L 273.70 313.51 L 271.75 311.12 L 269.81 308.72 L 267.86 306.33 L 265.92 303.93 L 263.98 301.53 L 262.04 299.14 L 260.10 296.75 L 258.15 294.35 L 256.20 291.95 L 254.26 289.55 L 252.31 287.16 L 250.37 284.76 L 248.43 282.37 L 246.48 279.97 L 244.53 277.57 L 242.59 275.18 L 240.65 272.78 L 238.71 270.38 L 236.78 267.98 L 234.87 265.55 L 233.00 263.09 L 231.21 260.57 L 229.57 257.97 L 228.18 255.26 L 227.12 252.45 L 226.50 249.54 L 226.35 246.58 L 226.70 243.65 L 227.56 240.83 L 228.89 238.19 L 230.65 235.84 L 232.80 233.82 L 235.27 232.21 L 237.99 231.05 L 240.87 230.38 L 243.86 230.22 L 246.88 230.53 L 249.88 231.24 L 252.86 232.23 L 255.81 233.32 L 258.73 234.38 L 261.65 235.34 L 264.59 236.14 L 267.54 236.80 L 270.52 237.30 L 273.52 237.65 L 276.53 237.84 L 279.54 237.88 L 282.56 237.76 L 285.56 237.49 L 288.55 237.07 L 291.51 236.49 L 294.44 235.76 L 297.33 234.89 L 300.17 233.87 L 302.95 232.70 L 305.66 231.40 L 308.31 229.96 L 310.88 228.39 L 313.37 226.70 L 315.77 224.89 L 318.08 222.97 L 320.32 220.96 L 322.49 218.88 L 324.60 216.73 L 326.67 214.55 L 328.72 212.34 L 330.76 210.13 L 332.79 207.91 L 334.82 205.69 L 336.85 203.47 L 338.88 201.24 L 340.91 199.02 L 342.94 196.80 L 344.97 194.58 L 346.99 192.36 L 349.02 190.14 L 351.05 187.92 L 353.08 185.70 L 355.11 183.48 L 357.14 181.26 L 359.17 179.04 L 361.20 176.82 L 363.22 174.60 L 365.25 172.38 L 367.28 170.16 L 369.31 167.94 L 371.34 165.72 L 373.38 163.51 L 375.42 161.30 L 377.47 159.11 L 379.56 156.95 L 381.68 154.83 L 383.87 152.78 L 386.14 150.82 L 388.49 148.97 L 390.92 147.22 L 393.43 145.59 L 396.02 144.08 L 398.66 142.69 L 401.38 141.43 L 404.15 140.30 L 406.97 139.30 L 409.84 138.44 L 412.74 137.71 L 415.68 137.12 L 418.64 136.67 L 421.61 136.36 L 424.60 136.20 L 427.59 136.17 L 430.59 136.29 L 433.57 136.54 L 436.53 136.94 L 439.48 137.48 L 442.40 138.16 L 445.28 138.97 L 448.12 139.92 L 450.91 141.01 L 453.65 142.22 L 456.33 143.56 L 458.94 145.03 L 461.48 146.62 L 463.94 148.32 L 466.32 150.14 L 468.61 152.08 L 470.80 154.11 L 472.90 156.25 L 474.90 158.49 L 476.78 160.82 L 478.56 163.23 L 480.22 165.73 L 481.75 168.30 L 483.17 170.94 L 484.46 173.64 L 485.62 176.40 L 486.65 179.22 L 487.54 182.08 L 488.30 184.98 L 488.92 187.91 L 489.40 190.87 L 489.74 193.85 L 489.94 196.84 L 490.00 199.83 L 489.92 202.82 L 489.69 205.81 L 489.33 208.78 L 488.82 211.74 L 488.18 214.67 L 487.40 217.56 L 486.48 220.41 L 485.43 223.22 L 484.25 225.97 L 482.94 228.66 L 481.50 231.29 L 479.94 233.85 L 478.26 236.33 L 476.48 238.74 L 474.60 241.07 L 472.63 243.34 L 470.61 245.55 L 468.53 247.73 L 466.43 249.87 L 464.31 252.00 L 462.19 254.12 L 460.06 256.24 L 457.93 258.36 L 455.79 260.48 L 453.66 262.59 L 451.53 264.71 L 449.39 266.82 L 447.26 268.94 L 445.13 271.06 L 443.00 273.17 L 440.86 275.29 L 438.73 277.40 L 436.59 279.52 L 434.46 281.64 Z" />
</symbol>
<symbol id="bl3">
<path d="M 336.91 364.53 L 340.11 366.55 L 343.29 368.60 L 346.45 370.71 L 349.54 372.88 L 352.56 375.16 L 355.46 377.57 L 358.23 380.13 L 360.84 382.85 L 363.28 385.72 L 365.54 388.73 L 367.60 391.88 L 369.46 395.15 L 371.11 398.53 L 372.55 402.01 L 373.77 405.57 L 374.76 409.20 L 375.52 412.88 L 376.05 416.61 L 376.35 420.36 L 376.40 424.13 L 376.23 427.89 L 375.81 431.63 L 375.17 435.34 L 374.29 439.00 L 373.19 442.60 L 371.86 446.12 L 370.32 449.55 L 368.56 452.88 L 366.60 456.10 L 364.44 459.18 L 362.09 462.12 L 359.56 464.91 L 356.86 467.54 L 354.00 469.99 L 351.00 472.26 L 347.86 474.34 L 344.59 476.22 L 341.22 477.89 L 337.74 479.34 L 334.18 480.58 L 330.55 481.59 L 326.87 482.37 L 323.14 482.92 L 319.39 483.23 L 315.63 483.32 L 311.87 483.16 L 308.12 482.77 L 304.41 482.15 L 300.74 481.30 L 297.13 480.22 L 293.60 478.91 L 290.16 477.39 L 286.82 475.66 L 283.60 473.72 L 280.50 471.58 L 277.54 469.25 L 274.74 466.74 L 272.10 464.06 L 269.63 461.23 L 267.34 458.24 L 265.25 455.11 L 263.35 451.87 L 261.66 448.51 L 260.19 445.04 L 258.94 441.50 L 257.90 437.88 L 257.10 434.20 L 256.52 430.49 L 256.15 426.74 L 255.99 422.97 L 255.98 419.19 L 256.09 415.41 L 256.27 411.63 L 256.50 407.84 L 256.76 404.07 L 257.02 400.29 L 257.29 396.51 L 257.56 392.73 L 257.83 388.96 L 258.11 385.18 L 258.38 381.40 L 258.65 377.62 L 258.92 373.84 L 259.19 370.05 L 259.45 366.26 L 259.71 362.43 L 259.96 358.57 L 260.19 354.66 L 260.39 350.72 L 260.57 346.75 L 260.71 342.78 L 260.81 338.82 L 260.89 334.86 L 260.94 330.90 L 260.98 326.95 L 261.01 322.99 L 261.05 319.04 L 261.08 315.08 L 261.11 311.13 L 261.14 307.17 L 261.17 303.22 L 261.20 299.26 L 261.23 295.31 L 261.26 291.35 L 261.29 287.40 L 261.32 283.44 L 261.36 279.48 L 261.39 275.53 L 261.42 271.58 L 261.44 267.62 L 261.45 263.66 L 261.43 259.71 L 261.31 255.76 L 261.01 251.81 L 260.41 247.91 L 259.39 244.10 L 257.88 240.49 L 255.82 237.17 L 253.25 234.20 L 250.30 231.50 L 247.17 228.96 L 244.01 226.44 L 240.94 223.87 L 238.01 221.17 L 235.26 218.32 L 232.71 215.30 L 230.36 212.13 L 228.23 208.80 L 226.33 205.34 L 224.67 201.76 L 223.25 198.08 L 222.08 194.31 L 221.17 190.47 L 220.53 186.57 L 220.16 182.63 L 220.08 178.66 L 220.29 174.65 L 220.81 170.58 L 221.64 166.44 L 222.76 162.25 L 224.17 158.09 L 225.83 154.05 L 227.71 150.22 L 229.82 146.62 L 232.15 143.24 L 234.70 140.07 L 237.46 137.12 L 240.42 134.36 L 243.57 131.83 L 246.88 129.52 L 250.35 127.45 L 253.95 125.62 L 257.67 124.04 L 261.48 122.71 L 265.38 121.66 L 269.34 120.87 L 273.35 120.36 L 277.38 120.13 L 281.42 120.17 L 285.45 120.49 L 289.44 121.09 L 293.38 121.96 L 297.26 123.10 L 301.04 124.50 L 304.72 126.16 L 308.28 128.07 L 311.70 130.21 L 314.96 132.59 L 318.05 135.18 L 320.96 137.99 L 323.67 140.98 L 326.16 144.16 L 328.43 147.50 L 330.47 150.98 L 332.26 154.60 L 333.80 158.33 L 335.08 162.16 L 336.09 166.07 L 336.83 170.04 L 337.30 174.05 L 337.49 178.09 L 337.40 182.12 L 337.03 186.15 L 336.39 190.13 L 335.47 194.07 L 334.29 197.93 L 332.85 201.70 L 331.15 205.36 L 329.19 208.90 L 327.01 212.30 L 324.59 215.53 L 321.96 218.60 L 319.13 221.49 L 316.12 224.20 L 312.97 226.74 L 309.70 229.15 L 306.36 231.46 L 303.02 233.76 L 299.72 236.11 L 296.53 238.59 L 293.47 241.22 L 290.57 244.03 L 287.85 247.01 L 285.31 250.15 L 282.99 253.45 L 280.87 256.89 L 278.98 260.45 L 277.32 264.12 L 275.90 267.90 L 274.71 271.76 L 273.77 275.68 L 273.09 279.66 L 272.65 283.67 L 272.48 287.69 L 272.55 291.72 L 272.89 295.75 L 273.47 299.74 L 274.31 303.68 L 275.40 307.57 L 276.73 311.38 L 278.30 315.09 L 280.10 318.70 L 282.13 322.19 L 284.38 325.54 L 286.84 328.76 L 289.51 331.81 L 292.35 334.69 L 295.34 337.38 L 298.43 339.89 L 301.58 342.21 L 304.76 344.38 L 307.97 346.46 L 311.18 348.49 L 314.40 350.50 L 317.61 352.50 L 320.83 354.51 L 324.05 356.51 L 327.26 358.52 L 330.48 360.52 L 333.69 362.52 Z" />
</symbol>
</defs>
<!-- isDone: 0 -->
<rect width="700" height="500" style="fill:#fff;stroke-width:0" />
<use class="p0 borderLine" xlink:href="#bl0"/>
<use class="p1 borderLine" xlink:href="#bl1"/>
<use class="p2 borderLine" xlink:href="#bl2"/>
<use class="p3 borderLine" xlink:href="#bl3"/>
<use class="q0 outLine" xlink:href="#bl0"/>
<use class="q1 outLine" xlink:href="#bl1"/>
<use class="q2 outLine" xlink:href="#bl2"/>
<use class="q3 outLine" xlink:href="#bl3"/>
<circle onclick="fromCircle(8)" class="circle" cx="152.0793" cy="345.3413" r="103.9191" />
<text class="nLabel" x="152.08" y="340.34">1912</text>
<text class="belong" x="152.08" y="350.34">(1)</text>
<circle onclick="fromCircle(4)" class="circle" cx="118.7771" cy="125.4942" r="105.0543" />
<text class="nLabel" x="118.78" y="120.49">1954</text>
<text class="belong" x="118.78" y="130.49">(2)</text>
<circle onclick="fromCircle(6)" class="circle" cx="243.1981" cy="247.0577" r="13.4439" />
<text class="nLabel" x="243.20" y="242.06">32</text>
<text class="belong" x="243.20" y="252.06">(2, 3)</text>
<circle onclick="fromCircle(5)" class="circle" cx="278.7695" cy="178.6359" r="54.6095" />
<text class="nLabel" x="278.77" y="173.64">528</text>
<text class="belong" x="278.77" y="183.64">(2, 4)</text>
<circle onclick="fromCircle(2)" class="circle" cx="427.0904" cy="199.3420" r="58.8892" />
<text class="nLabel" x="427.09" y="194.34">614</text>
<text class="belong" x="427.09" y="204.34">(3)</text>
<circle onclick="fromCircle(10)" class="circle" cx="336.2289" cy="288.5226" r="59.4619" />
<text class="nLabel" x="336.23" y="283.52">626</text>
<text class="belong" x="336.23" y="293.52">(1, 3)</text>
<circle onclick="fromCircle(1)" class="circle" cx="316.3632" cy="423.6014" r="55.9379" />
<text class="nLabel" x="316.36" y="418.60">554</text>
<text class="belong" x="316.36" y="428.60">(4)</text>
<circle onclick="fromCircle(9)" class="circle" cx="280.1300" cy="351.9492" r="16.4654" />
<text class="nLabel" x="280.13" y="346.95">48</text>
<text class="belong" x="280.13" y="356.95">(1, 4)</text>
<g id="legendBox">
<rect class="p0 borderLine" x="500.00" y="50.00" width="30.00" height="15.00" />
<rect class="q0" x="500.00" y="50.00" width="30.00" height="15.00" />
<text class="legend" x="540.00" y="65.00">DOWN_KO</text>
<rect class="p1 borderLine" x="500.00" y="90.00" width="30.00" height="15.00" />
<rect class="q1" x="500.00" y="90.00" width="30.00" height="15.00" />
<text class="legend" x="540.00" y="105.00">UP_KO</text>
<rect class="p2 borderLine" x="500.00" y="130.00" width="30.00" height="15.00" />
<rect class="q2" x="500.00" y="130.00" width="30.00" height="15.00" />
<text class="legend" x="540.00" y="145.00">DOWN_TG</text>
<rect class="p3 borderLine" x="500.00" y="170.00" width="30.00" height="15.00" />
<rect class="q3" x="500.00" y="170.00" width="30.00" height="15.00" />
<text class="legend" x="540.00" y="185.00">UP_TG</text>
</g>
</svg>
