<svg xmlns="http://www.w3.org/2000/svg" xmlns:xlink="http://www.w3.org/1999/xlink" width="700" height="500">
<defs>
<style type="text/css"><![CDATA[
  .borderLine {
	   stroke: none;
	   fill-opacity:  0.4 ;
  }
  .outLine {
	   stroke-width:  1 ;
	   fill: none;
  }
  .circle {
	   stroke: #888888;
	   stroke-width: 0.5;
	   fill: none;
    pointer-events: all;
  }
  .nLabel {
	   font-family: Arial;
    pointer-events: none;
	   font-size: 20px;
	   text-anchor: middle;
	   alignment-baseline: central;
  }
  .belong { 
 display: none;
	   font-family: Arial;
    pointer-events: none;
	   font-size: 10px;
	   text-anchor: middle;
	   alignment-baseline: central;
  }
  .legend {
    font-family: Arial;
    font-size: 15px;
  }
  #legendBox {
    display:  inline ;
  }
  .p0{
    stroke: none;
    fill: #e6194b;
  }
  .q0{
    fill: none;
    stroke: #e6194b;
  }
  .p1{
    stroke: none;
    fill: #3cb44b;
  }
  .q1{
    fill: none;
    stroke: #3cb44b;
  }
  .p2{
    stroke: none;
    fill: #ffe119;
  }
  .q2{
    fill: none;
    stroke: #ffe119;
  }
  .p3{
    stroke: none;
    fill: #0082c8;
  }
  .q3{
    fill: none;
    stroke: #0082c8;
  }
]]>
</style>
<symbol id="bl0">
<path d="M 304.98 281.30 L 300.82 282.71 L 296.71 284.29 L 292.67 286.04 L 288.70 287.95 L 284.82 290.03 L 281.02 292.26 L 277.33 294.65 L 273.73 297.18 L 270.24 299.87 L 266.86 302.69 L 263.61 305.65 L 260.49 308.74 L 257.51 311.95 L 254.68 315.26 L 252.04 318.61 L 249.57 321.94 L 247.25 325.17 L 245.01 328.22 L 242.75 331.05 L 240.42 333.64 L 238.03 336.02 L 235.58 338.29 L 233.11 340.49 L 230.63 342.67 L 228.15 344.85 L 225.66 347.02 L 223.18 349.19 L 220.69 351.36 L 218.21 353.53 L 215.73 355.70 L 213.24 357.87 L 210.76 360.04 L 208.28 362.22 L 205.79 364.39 L 203.31 366.56 L 200.82 368.73 L 198.34 370.90 L 195.86 373.07 L 193.38 375.24 L 190.89 377.40 L 188.39 379.55 L 185.86 381.67 L 183.30 383.74 L 180.68 385.73 L 177.99 387.63 L 175.22 389.41 L 172.37 391.06 L 169.44 392.55 L 166.44 393.90 L 163.38 395.08 L 160.25 396.10 L 157.08 396.96 L 153.86 397.64 L 150.61 398.15 L 147.34 398.50 L 144.06 398.67 L 140.77 398.67 L 137.49 398.49 L 134.22 398.14 L 130.97 397.61 L 127.76 396.92 L 124.58 396.06 L 121.46 395.03 L 118.39 393.84 L 115.39 392.49 L 112.47 390.98 L 109.63 389.32 L 106.88 387.52 L 104.23 385.57 L 101.68 383.48 L 99.26 381.26 L 96.95 378.92 L 94.76 376.46 L 92.71 373.89 L 90.80 371.21 L 89.03 368.43 L 87.41 365.57 L 85.95 362.62 L 84.63 359.60 L 83.49 356.52 L 82.50 353.38 L 81.68 350.19 L 81.04 346.97 L 80.56 343.71 L 80.25 340.44 L 80.12 337.15 L 80.16 333.86 L 80.37 330.58 L 80.76 327.31 L 81.32 324.07 L 82.05 320.86 L 82.95 317.70 L 84.01 314.59 L 85.23 311.53 L 86.62 308.55 L 88.16 305.65 L 89.85 302.83 L 91.69 300.10 L 93.67 297.47 L 95.78 294.95 L 98.03 292.55 L 100.40 290.27 L 102.88 288.12 L 105.48 286.10 L 108.18 284.22 L 110.98 282.48 L 113.86 280.90 L 116.82 279.47 L 119.85 278.20 L 122.95 277.09 L 126.10 276.15 L 129.30 275.37 L 132.53 274.76 L 135.80 274.33 L 139.08 274.06 L 142.37 273.97 L 145.66 274.05 L 148.94 274.29 L 152.22 274.67 L 155.48 275.16 L 158.74 275.71 L 162.00 276.30 L 165.25 276.90 L 168.50 277.51 L 171.76 278.12 L 175.01 278.74 L 178.26 279.35 L 181.51 279.96 L 184.77 280.57 L 188.02 281.18 L 191.27 281.79 L 194.53 282.40 L 197.78 283.01 L 201.03 283.62 L 204.28 284.23 L 207.54 284.84 L 210.80 285.46 L 214.05 286.07 L 217.31 286.69 L 220.59 287.34 L 223.89 288.03 L 227.26 288.80 L 230.73 289.64 L 234.35 290.51 L 238.17 291.35 L 242.20 292.06 L 246.42 292.57 L 250.75 292.84 L 255.14 292.84 L 259.54 292.55 L 263.91 291.99 L 268.24 291.14 L 272.51 290.02 L 276.69 288.63 L 280.78 286.97 L 284.76 285.05 L 288.60 282.89 L 292.30 280.49 L 295.84 277.85 L 299.20 275.00 L 302.38 271.93 L 305.35 268.67 L 308.11 265.23 L 310.67 261.62 L 313.02 257.87 L 315.20 254.02 L 317.27 250.10 L 319.30 246.16 L 321.38 242.26 L 323.62 238.49 L 326.14 234.98 L 329.05 231.85 L 332.37 229.23 L 336.06 227.22 L 340.03 225.88 L 344.16 225.25 L 348.29 225.33 L 352.25 226.08 L 355.89 227.39 L 359.12 229.15 L 361.90 231.21 L 364.23 233.50 L 366.15 235.96 L 367.66 238.56 L 368.80 241.27 L 369.58 244.08 L 370.00 246.96 L 370.08 249.87 L 369.80 252.76 L 369.19 255.60 L 368.24 258.34 L 366.97 260.95 L 365.40 263.40 L 363.55 265.64 L 361.45 267.65 L 359.11 269.40 L 356.56 270.89 L 353.77 272.10 L 350.69 273.08 L 347.28 273.87 L 343.50 274.53 L 339.43 275.09 L 335.18 275.61 L 330.84 276.13 L 326.48 276.69 L 322.13 277.33 L 317.79 278.08 L 313.48 278.99 L 309.21 280.06 Z" />
</symbol>
<symbol id="bl1">
<path d="M 319.58 205.63 L 320.44 209.16 L 321.11 212.73 L 321.60 216.33 L 321.89 219.96 L 322.00 223.59 L 321.92 227.23 L 321.64 230.85 L 321.17 234.45 L 320.52 238.03 L 319.68 241.57 L 318.65 245.06 L 317.45 248.49 L 316.06 251.84 L 314.50 255.13 L 312.77 258.32 L 310.87 261.42 L 308.81 264.42 L 306.60 267.31 L 304.24 270.07 L 301.74 272.71 L 299.10 275.21 L 296.34 277.57 L 293.45 279.78 L 290.46 281.84 L 287.36 283.74 L 284.16 285.47 L 280.88 287.03 L 277.52 288.41 L 274.09 289.62 L 270.61 290.65 L 267.07 291.49 L 263.49 292.15 L 259.89 292.62 L 256.26 292.89 L 252.62 292.97 L 248.99 292.86 L 245.35 292.55 L 241.71 292.05 L 238.07 291.34 L 234.45 290.43 L 230.86 289.34 L 227.34 288.06 L 223.93 286.62 L 220.62 285.01 L 217.41 283.25 L 214.31 281.33 L 211.29 279.29 L 208.33 277.16 L 205.42 274.95 L 202.55 272.69 L 199.70 270.42 L 196.86 268.13 L 194.03 265.84 L 191.19 263.54 L 188.36 261.24 L 185.52 258.95 L 182.69 256.65 L 179.86 254.36 L 177.02 252.06 L 174.19 249.76 L 171.36 247.47 L 168.53 245.17 L 165.69 242.88 L 162.86 240.58 L 160.03 238.29 L 157.19 235.99 L 154.36 233.70 L 151.53 231.40 L 148.70 229.11 L 145.86 226.81 L 143.03 224.52 L 140.20 222.23 L 137.37 219.93 L 134.54 217.64 L 131.71 215.34 L 128.88 213.05 L 126.05 210.75 L 123.22 208.46 L 120.39 206.17 L 117.56 203.87 L 114.73 201.58 L 111.90 199.29 L 109.07 196.99 L 106.24 194.70 L 103.41 192.41 L 100.58 190.11 L 97.75 187.82 L 94.92 185.53 L 92.10 183.23 L 89.28 180.93 L 86.47 178.61 L 83.70 176.26 L 80.98 173.85 L 78.33 171.37 L 75.77 168.79 L 73.30 166.13 L 70.94 163.37 L 68.68 160.53 L 66.53 157.60 L 64.50 154.59 L 62.59 151.50 L 60.80 148.35 L 59.14 145.12 L 57.60 141.83 L 56.19 138.49 L 54.91 135.09 L 53.76 131.64 L 52.75 128.16 L 51.87 124.63 L 51.13 121.08 L 50.53 117.50 L 50.07 113.90 L 49.75 110.28 L 49.56 106.66 L 49.52 103.02 L 49.63 99.39 L 49.87 95.77 L 50.25 92.16 L 50.77 88.57 L 51.43 84.99 L 52.22 81.45 L 53.16 77.94 L 54.23 74.47 L 55.43 71.04 L 56.77 67.67 L 58.23 64.34 L 59.82 61.08 L 61.54 57.88 L 63.38 54.74 L 65.34 51.69 L 67.42 48.71 L 69.61 45.81 L 71.91 42.99 L 74.32 40.28 L 76.83 37.65 L 79.45 35.13 L 82.15 32.70 L 84.95 30.39 L 87.84 28.18 L 90.81 26.09 L 93.86 24.11 L 96.98 22.26 L 100.17 20.53 L 103.43 18.91 L 106.74 17.43 L 110.11 16.08 L 113.53 14.86 L 117.00 13.77 L 120.51 12.82 L 124.05 12.00 L 127.61 11.32 L 131.20 10.78 L 134.81 10.38 L 138.43 10.12 L 142.06 10.00 L 145.69 10.02 L 149.32 10.19 L 152.94 10.49 L 156.54 10.93 L 160.13 11.51 L 163.68 12.23 L 167.21 13.08 L 170.70 14.07 L 174.15 15.20 L 177.56 16.46 L 180.91 17.85 L 184.21 19.37 L 187.44 21.01 L 190.61 22.78 L 193.70 24.67 L 196.72 26.68 L 199.66 28.81 L 202.52 31.05 L 205.29 33.39 L 207.96 35.85 L 210.54 38.40 L 213.02 41.05 L 215.40 43.79 L 217.69 46.61 L 219.89 49.50 L 222.02 52.45 L 224.09 55.43 L 226.13 58.43 L 228.16 61.45 L 230.18 64.47 L 232.21 67.49 L 234.23 70.51 L 236.25 73.54 L 238.27 76.56 L 240.29 79.59 L 242.31 82.61 L 244.33 85.64 L 246.36 88.67 L 248.38 91.69 L 250.40 94.72 L 252.42 97.74 L 254.44 100.77 L 256.46 103.79 L 258.49 106.82 L 260.51 109.84 L 262.53 112.87 L 264.55 115.89 L 266.57 118.92 L 268.60 121.95 L 270.62 124.97 L 272.64 128.00 L 274.66 131.03 L 276.68 134.06 L 278.71 137.09 L 280.73 140.11 L 282.75 143.14 L 284.77 146.17 L 286.79 149.20 L 288.82 152.23 L 290.84 155.26 L 292.86 158.29 L 294.88 161.32 L 296.90 164.35 L 298.93 167.38 L 300.95 170.41 L 302.97 173.44 L 304.98 176.48 L 306.98 179.52 L 308.94 182.59 L 310.85 185.70 L 312.66 188.86 L 314.36 192.08 L 315.91 195.37 L 317.31 198.73 L 318.53 202.15 Z" />
</symbol>
<symbol id="bl2">
<path d="M 446.87 206.97 L 446.22 208.58 L 445.52 210.17 L 444.78 211.74 L 443.98 213.28 L 443.14 214.80 L 442.25 216.28 L 441.31 217.75 L 440.33 219.18 L 439.30 220.57 L 438.23 221.94 L 437.12 223.27 L 435.96 224.56 L 434.77 225.82 L 433.53 227.04 L 432.26 228.22 L 430.95 229.36 L 429.61 230.45 L 428.23 231.51 L 426.82 232.52 L 425.38 233.49 L 423.92 234.42 L 422.43 235.31 L 420.92 236.18 L 419.41 237.04 L 417.89 237.88 L 416.37 238.72 L 414.85 239.57 L 413.33 240.41 L 411.81 241.25 L 410.28 242.10 L 408.76 242.94 L 407.24 243.79 L 405.72 244.63 L 404.20 245.47 L 402.67 246.31 L 401.15 247.15 L 399.64 247.99 L 398.12 248.83 L 396.59 249.68 L 395.07 250.52 L 393.55 251.37 L 392.02 252.21 L 390.50 253.05 L 388.98 253.90 L 387.45 254.74 L 385.93 255.58 L 384.41 256.42 L 382.89 257.26 L 381.37 258.10 L 379.84 258.94 L 378.32 259.79 L 376.79 260.63 L 375.27 261.47 L 373.75 262.31 L 372.23 263.16 L 370.70 264.00 L 369.18 264.85 L 367.65 265.69 L 366.13 266.53 L 364.61 267.37 L 363.09 268.21 L 361.56 269.05 L 360.03 269.88 L 358.49 270.68 L 356.93 271.45 L 355.34 272.14 L 353.72 272.74 L 352.07 273.23 L 350.39 273.61 L 348.68 273.88 L 346.96 274.03 L 345.24 274.06 L 343.51 273.97 L 341.80 273.77 L 340.10 273.45 L 338.43 273.01 L 336.80 272.46 L 335.20 271.79 L 333.66 271.02 L 332.17 270.15 L 330.75 269.17 L 329.40 268.10 L 328.12 266.94 L 326.93 265.69 L 325.82 264.36 L 324.81 262.96 L 323.90 261.49 L 323.09 259.97 L 322.39 258.39 L 321.79 256.77 L 321.31 255.11 L 320.95 253.42 L 320.70 251.71 L 320.57 249.99 L 320.56 248.26 L 320.66 246.53 L 320.87 244.82 L 321.17 243.11 L 321.55 241.42 L 321.98 239.74 L 322.45 238.07 L 322.95 236.41 L 323.45 234.75 L 323.95 233.09 L 324.46 231.43 L 324.97 229.77 L 325.49 228.11 L 326.00 226.45 L 326.51 224.80 L 327.02 223.14 L 327.53 221.48 L 328.04 219.82 L 328.55 218.16 L 329.06 216.50 L 329.57 214.84 L 330.07 213.19 L 330.58 211.53 L 331.09 209.88 L 331.59 208.22 L 332.10 206.55 L 332.61 204.89 L 333.12 203.24 L 333.63 201.58 L 334.14 199.92 L 334.65 198.27 L 335.16 196.61 L 335.67 194.95 L 336.18 193.29 L 336.69 191.63 L 337.20 189.98 L 337.71 188.32 L 338.22 186.67 L 338.72 185.01 L 339.23 183.34 L 339.74 181.69 L 340.25 180.03 L 340.76 178.38 L 341.27 176.72 L 341.79 175.06 L 342.31 173.41 L 342.85 171.76 L 343.41 170.12 L 344.00 168.49 L 344.63 166.87 L 345.30 165.28 L 346.02 163.70 L 346.79 162.15 L 347.61 160.63 L 348.47 159.12 L 349.38 157.65 L 350.34 156.21 L 351.35 154.80 L 352.39 153.42 L 353.48 152.07 L 354.61 150.76 L 355.78 149.49 L 356.99 148.25 L 358.24 147.05 L 359.53 145.89 L 360.86 144.78 L 362.21 143.71 L 363.60 142.67 L 365.03 141.68 L 366.48 140.74 L 367.97 139.85 L 369.48 139.00 L 371.01 138.20 L 372.57 137.46 L 374.16 136.76 L 375.76 136.11 L 377.39 135.50 L 379.03 134.96 L 380.69 134.46 L 382.36 134.02 L 384.05 133.63 L 385.75 133.30 L 387.46 133.01 L 389.18 132.78 L 390.90 132.61 L 392.63 132.49 L 394.36 132.42 L 396.10 132.41 L 397.83 132.46 L 399.56 132.56 L 401.28 132.71 L 403.00 132.92 L 404.71 133.18 L 406.42 133.50 L 408.11 133.87 L 409.79 134.29 L 411.46 134.76 L 413.11 135.29 L 414.74 135.88 L 416.35 136.51 L 417.95 137.19 L 419.52 137.92 L 421.06 138.71 L 422.59 139.53 L 424.08 140.41 L 425.55 141.33 L 426.99 142.31 L 428.39 143.32 L 429.76 144.38 L 431.10 145.48 L 432.40 146.63 L 433.67 147.81 L 434.90 149.03 L 436.09 150.30 L 437.24 151.59 L 438.35 152.93 L 439.42 154.30 L 440.44 155.70 L 441.41 157.13 L 442.34 158.60 L 443.23 160.09 L 444.07 161.61 L 444.85 163.15 L 445.59 164.73 L 446.28 166.32 L 446.92 167.93 L 447.51 169.56 L 448.05 171.21 L 448.53 172.88 L 448.96 174.56 L 449.34 176.25 L 449.67 177.95 L 449.94 179.67 L 450.15 181.39 L 450.32 183.12 L 450.42 184.85 L 450.48 186.58 L 450.47 188.32 L 450.41 190.05 L 450.30 191.78 L 450.13 193.51 L 449.91 195.23 L 449.64 196.95 L 449.31 198.65 L 448.92 200.34 L 448.49 202.02 L 448.00 203.69 L 447.46 205.34 Z" />
</symbol>
<symbol id="bl3">
<path d="M 443.09 369.50 L 443.51 373.38 L 443.80 377.27 L 443.94 381.17 L 443.94 385.06 L 443.80 388.96 L 443.51 392.84 L 443.08 396.72 L 442.52 400.57 L 441.81 404.40 L 440.96 408.21 L 439.98 411.98 L 438.86 415.71 L 437.60 419.40 L 436.21 423.04 L 434.69 426.63 L 433.03 430.16 L 431.25 433.63 L 429.35 437.03 L 427.32 440.36 L 425.17 443.61 L 422.90 446.78 L 420.52 449.87 L 418.03 452.87 L 415.43 455.78 L 412.73 458.59 L 409.93 461.30 L 407.03 463.90 L 404.03 466.40 L 400.95 468.79 L 397.79 471.06 L 394.54 473.22 L 391.21 475.26 L 387.82 477.17 L 384.35 478.96 L 380.83 480.62 L 377.24 482.15 L 373.60 483.55 L 369.91 484.82 L 366.19 485.95 L 362.41 486.95 L 358.61 487.80 L 354.78 488.52 L 350.92 489.10 L 347.05 489.54 L 343.17 489.84 L 339.27 489.99 L 335.37 490.00 L 331.47 489.87 L 327.59 489.60 L 323.71 489.18 L 319.85 488.63 L 316.02 487.93 L 312.21 487.10 L 308.44 486.13 L 304.70 485.02 L 301.01 483.77 L 297.36 482.39 L 293.77 480.88 L 290.24 479.24 L 286.76 477.47 L 283.36 475.57 L 280.03 473.56 L 276.77 471.42 L 273.59 469.16 L 270.50 466.80 L 267.49 464.32 L 264.58 461.73 L 261.76 459.04 L 259.05 456.24 L 256.44 453.35 L 253.93 450.36 L 251.54 447.29 L 249.26 444.13 L 247.09 440.89 L 245.05 437.57 L 243.13 434.18 L 241.32 430.72 L 239.64 427.21 L 238.08 423.64 L 236.61 420.02 L 235.21 416.38 L 233.87 412.71 L 232.56 409.04 L 231.27 405.35 L 229.99 401.66 L 228.71 397.98 L 227.44 394.28 L 226.16 390.60 L 224.88 386.90 L 223.61 383.21 L 222.33 379.52 L 221.06 375.83 L 219.78 372.14 L 218.51 368.45 L 217.23 364.76 L 215.96 361.06 L 214.68 357.37 L 213.40 353.68 L 212.13 349.99 L 210.85 346.29 L 209.58 342.60 L 208.31 338.90 L 207.05 335.19 L 205.82 331.45 L 204.63 327.68 L 203.49 323.87 L 202.41 320.02 L 201.38 316.16 L 200.42 312.29 L 199.52 308.44 L 198.67 304.59 L 197.84 300.75 L 197.04 296.92 L 196.24 293.08 L 195.44 289.24 L 194.64 285.41 L 193.85 281.57 L 193.05 277.74 L 192.25 273.90 L 191.46 270.06 L 190.66 266.23 L 189.87 262.39 L 189.07 258.56 L 188.28 254.72 L 187.49 250.89 L 186.70 247.05 L 185.94 243.21 L 185.23 239.36 L 184.60 235.50 L 184.11 231.63 L 183.81 227.74 L 183.70 223.84 L 183.81 219.95 L 184.14 216.07 L 184.68 212.21 L 185.44 208.39 L 186.42 204.62 L 187.61 200.92 L 189.00 197.28 L 190.61 193.73 L 192.42 190.28 L 194.44 186.93 L 196.69 183.68 L 199.18 180.52 L 201.91 177.43 L 204.88 174.43 L 208.04 171.55 L 211.30 168.86 L 214.63 166.42 L 218.00 164.24 L 221.43 162.29 L 224.95 160.59 L 228.55 159.10 L 232.23 157.83 L 235.97 156.77 L 239.77 155.93 L 243.61 155.30 L 247.48 154.89 L 251.36 154.70 L 255.26 154.72 L 259.14 154.97 L 263.00 155.44 L 266.83 156.12 L 270.61 157.01 L 274.35 158.12 L 278.01 159.43 L 281.59 160.95 L 285.08 162.67 L 288.47 164.58 L 291.74 166.68 L 294.89 168.96 L 297.91 171.41 L 300.79 174.03 L 303.51 176.81 L 306.07 179.74 L 308.47 182.81 L 310.68 186.01 L 312.72 189.32 L 314.56 192.75 L 316.21 196.27 L 317.66 199.88 L 318.90 203.57 L 319.93 207.32 L 320.76 211.13 L 321.36 214.97 L 321.76 218.84 L 321.95 222.74 L 321.96 226.63 L 321.81 230.53 L 321.59 234.44 L 321.35 238.34 L 321.18 242.24 L 321.22 246.15 L 321.55 250.04 L 322.26 253.85 L 323.45 257.52 L 325.14 260.96 L 327.34 264.10 L 329.99 266.88 L 333.02 269.25 L 336.36 271.22 L 339.91 272.84 L 343.57 274.16 L 347.31 275.28 L 351.09 276.27 L 354.87 277.23 L 358.66 278.18 L 362.44 279.19 L 366.19 280.27 L 369.91 281.44 L 373.59 282.72 L 377.23 284.13 L 380.82 285.66 L 384.35 287.31 L 387.82 289.10 L 391.22 291.01 L 394.54 293.05 L 397.79 295.20 L 400.96 297.47 L 404.04 299.85 L 407.04 302.35 L 409.94 304.95 L 412.75 307.66 L 415.45 310.47 L 418.05 313.37 L 420.54 316.37 L 422.91 319.45 L 425.18 322.62 L 427.33 325.87 L 429.36 329.20 L 431.26 332.60 L 433.04 336.07 L 434.70 339.60 L 436.22 343.18 L 437.61 346.82 L 438.87 350.51 L 439.98 354.24 L 440.97 358.01 L 441.81 361.82 L 442.52 365.65 Z" />
</symbol>
</defs>
<!-- isDone: 0 -->
<rect width="700" height="500" style="fill:#fff;stroke-width:0" />
<use class="p0 borderLine" xlink:href="#bl0"/>
<use class="p1 borderLine" xlink:href="#bl1"/>
<use class="p2 borderLine" xlink:href="#bl2"/>
<use class="p3 borderLine" xlink:href="#bl3"/>
<use class="q0 outLine" xlink:href="#bl0"/>
<use class="q1 outLine" xlink:href="#bl1"/>
<use class="q2 outLine" xlink:href="#bl2"/>
<use class="q3 outLine" xlink:href="#bl3"/>
<circle onclick="fromCircle(8)" class="circle" cx="142.1982" cy="336.5027" r="58.0266" />
<text class="nLabel" x="142.20" y="331.50">8</text>
<text class="belong" x="142.20" y="341.50">(1)</text>
<circle onclick="fromCircle(4)" class="circle" cx="142.8957" cy="103.2567" r="89.4250" />
<text class="nLabel" x="142.90" y="98.26">19</text>
<text class="belong" x="142.90" y="108.26">(2)</text>
<circle onclick="fromCircle(5)" class="circle" cx="252.8024" cy="223.7443" r="64.8757" />
<text class="nLabel" x="252.80" y="218.74">10</text>
<text class="belong" x="252.80" y="228.74">(2, 4)</text>
<circle onclick="fromCircle(2)" class="circle" cx="395.8622" cy="187.2011" r="50.2525" />
<text class="nLabel" x="395.86" y="182.20">6</text>
<text class="belong" x="395.86" y="192.20">(3)</text>
<circle onclick="fromCircle(10)" class="circle" cx="345.7633" cy="248.9784" r="20.5155" />
<text class="nLabel" x="345.76" y="243.98">1</text>
<text class="belong" x="345.76" y="253.98">(1, 3)</text>
<circle onclick="fromCircle(1)" class="circle" cx="337.2698" cy="383.4935" r="102.5776" />
<text class="nLabel" x="337.27" y="378.49">25</text>
<text class="belong" x="337.27" y="388.49">(4)</text>
<circle onclick="fromCircle(9)" class="circle" cx="225.3219" cy="313.8690" r="20.5155" />
<text class="nLabel" x="225.32" y="308.87">1</text>
<text class="belong" x="225.32" y="318.87">(1, 4)</text>
<g id="legendBox">
<rect class="p0 borderLine" x="500.00" y="50.00" width="30.00" height="15.00" />
<rect class="q0" x="500.00" y="50.00" width="30.00" height="15.00" />
<text class="legend" x="540.00" y="65.00">TMS DOWN</text>
<rect class="p1 borderLine" x="500.00" y="90.00" width="30.00" height="15.00" />
<rect class="q1" x="500.00" y="90.00" width="30.00" height="15.00" />
<text class="legend" x="540.00" y="105.00">TMS UP</text>
<rect class="p2 borderLine" x="500.00" y="130.00" width="30.00" height="15.00" />
<rect class="q2" x="500.00" y="130.00" width="30.00" height="15.00" />
<text class="legend" x="540.00" y="145.00">ZHOU DOWN</text>
<rect class="p3 borderLine" x="500.00" y="170.00" width="30.00" height="15.00" />
<rect class="q3" x="500.00" y="170.00" width="30.00" height="15.00" />
<text class="legend" x="540.00" y="185.00">ZHOU UP</text>
</g>
</svg>
