<svg xmlns="http://www.w3.org/2000/svg" xmlns:xlink="http://www.w3.org/1999/xlink" width="700" height="500">
<defs>
<style type="text/css"><![CDATA[
  .borderLine {
	   stroke: none;
	   fill-opacity:  0.4 ;
  }
  .outLine {
	   stroke-width:  1 ;
	   fill: none;
  }
  .circle {
	   stroke: #888888;
	   stroke-width: 0.5;
	   fill: none;
    pointer-events: all;
  }
  .nLabel {
	   font-family: Arial;
    pointer-events: none;
	   font-size: 20px;
	   text-anchor: middle;
	   alignment-baseline: central;
  }
  .belong { 
 display: none;
	   font-family: Arial;
    pointer-events: none;
	   font-size: 10px;
	   text-anchor: middle;
	   alignment-baseline: central;
  }
  .legend {
    font-family: Arial;
    font-size: 15px;
  }
  #legendBox {
    display:  inline ;
  }
  .p0{
    stroke: none;
    fill: #e6194b;
  }
  .q0{
    fill: none;
    stroke: #e6194b;
  }
  .p1{
    stroke: none;
    fill: #3cb44b;
  }
  .q1{
    fill: none;
    stroke: #3cb44b;
  }
  .p2{
    stroke: none;
    fill: #ffe119;
  }
  .q2{
    fill: none;
    stroke: #ffe119;
  }
  .p3{
    stroke: none;
    fill: #0082c8;
  }
  .q3{
    fill: none;
    stroke: #0082c8;
  }
]]>
</style>
<symbol id="bl0">
<path d="M 357.79 210.62 L 357.77 212.34 L 357.69 214.06 L 357.56 215.77 L 357.38 217.48 L 357.14 219.19 L 356.85 220.89 L 356.51 222.58 L 356.12 224.25 L 355.67 225.92 L 355.18 227.56 L 354.63 229.20 L 354.04 230.81 L 353.39 232.41 L 352.69 233.98 L 351.95 235.54 L 351.16 237.07 L 350.33 238.57 L 349.45 240.05 L 348.52 241.50 L 347.54 242.92 L 346.53 244.31 L 345.47 245.67 L 344.37 247.00 L 343.24 248.29 L 342.06 249.54 L 340.84 250.76 L 339.59 251.94 L 338.30 253.09 L 336.97 254.19 L 335.62 255.25 L 334.23 256.27 L 332.81 257.24 L 331.36 258.17 L 329.88 259.05 L 328.38 259.90 L 326.85 260.69 L 325.30 261.44 L 323.73 262.14 L 322.13 262.79 L 320.52 263.38 L 318.88 263.93 L 317.24 264.44 L 315.58 264.88 L 313.90 265.28 L 312.21 265.63 L 310.51 265.92 L 308.81 266.17 L 307.10 266.35 L 305.38 266.49 L 303.66 266.57 L 301.94 266.60 L 300.22 266.58 L 298.50 266.51 L 296.78 266.38 L 295.06 266.20 L 293.36 265.96 L 291.66 265.68 L 289.97 265.33 L 288.29 264.94 L 286.63 264.51 L 284.98 264.01 L 283.34 263.47 L 281.73 262.88 L 280.13 262.24 L 278.55 261.54 L 277.00 260.81 L 275.46 260.02 L 273.96 259.18 L 272.48 258.31 L 271.03 257.38 L 269.60 256.41 L 268.21 255.40 L 266.85 254.35 L 265.52 253.25 L 264.23 252.12 L 262.98 250.94 L 261.75 249.73 L 260.57 248.48 L 259.42 247.19 L 258.32 245.87 L 257.26 244.52 L 256.24 243.13 L 255.26 241.71 L 254.33 240.27 L 253.44 238.79 L 252.60 237.29 L 251.80 235.77 L 251.06 234.22 L 250.36 232.65 L 249.70 231.06 L 249.10 229.44 L 248.55 227.81 L 248.05 226.17 L 247.60 224.51 L 247.20 222.83 L 246.85 221.15 L 246.55 219.45 L 246.31 217.75 L 246.12 216.04 L 245.98 214.32 L 245.90 212.61 L 245.87 210.89 L 245.89 209.16 L 245.96 207.44 L 246.09 205.73 L 246.27 204.02 L 246.50 202.31 L 246.78 200.61 L 247.12 198.93 L 247.51 197.25 L 247.95 195.59 L 248.44 193.94 L 248.98 192.31 L 249.57 190.69 L 250.21 189.09 L 250.90 187.52 L 251.64 185.96 L 252.43 184.43 L 253.25 182.92 L 254.12 181.43 L 255.03 179.97 L 255.96 178.52 L 256.91 177.08 L 257.86 175.64 L 258.81 174.21 L 259.77 172.78 L 260.72 171.34 L 261.67 169.90 L 262.63 168.46 L 263.58 167.03 L 264.53 165.60 L 265.49 164.16 L 266.45 162.73 L 267.40 161.29 L 268.36 159.85 L 269.32 158.42 L 270.27 156.98 L 271.23 155.55 L 272.18 154.12 L 273.14 152.68 L 274.09 151.25 L 275.05 149.81 L 276.00 148.37 L 276.95 146.94 L 277.90 145.51 L 278.86 144.07 L 279.81 142.64 L 280.77 141.20 L 281.73 139.76 L 282.69 138.33 L 283.64 136.90 L 284.60 135.46 L 285.55 134.03 L 286.51 132.59 L 287.46 131.15 L 288.42 129.72 L 289.37 128.28 L 290.33 126.85 L 291.29 125.42 L 292.26 124.00 L 293.27 122.61 L 294.34 121.27 L 295.49 119.99 L 296.73 118.79 L 298.05 117.69 L 299.46 116.70 L 300.93 115.82 L 302.45 115.06 L 303.99 114.44 L 305.55 113.95 L 307.12 113.58 L 308.71 113.34 L 310.31 113.23 L 311.92 113.24 L 313.52 113.37 L 315.11 113.63 L 316.67 114.00 L 318.20 114.50 L 319.69 115.11 L 321.13 115.84 L 322.51 116.69 L 323.83 117.66 L 325.11 118.76 L 326.33 119.97 L 327.47 121.30 L 328.51 122.71 L 329.44 124.19 L 330.27 125.72 L 331.01 127.28 L 331.68 128.87 L 332.31 130.48 L 332.91 132.09 L 333.51 133.71 L 334.10 135.32 L 334.69 136.94 L 335.28 138.57 L 335.87 140.19 L 336.46 141.81 L 337.05 143.42 L 337.64 145.04 L 338.23 146.67 L 338.81 148.29 L 339.40 149.91 L 339.99 151.52 L 340.57 153.14 L 341.16 154.76 L 341.75 156.38 L 342.34 158.00 L 342.93 159.62 L 343.52 161.24 L 344.11 162.86 L 344.70 164.48 L 345.29 166.10 L 345.88 167.72 L 346.47 169.33 L 347.06 170.95 L 347.64 172.58 L 348.23 174.19 L 348.82 175.81 L 349.40 177.43 L 349.99 179.05 L 350.58 180.67 L 351.17 182.29 L 351.76 183.91 L 352.35 185.53 L 352.94 187.15 L 353.52 188.77 L 354.08 190.39 L 354.63 192.03 L 355.16 193.67 L 355.65 195.32 L 356.10 196.98 L 356.49 198.66 L 356.83 200.35 L 357.12 202.04 L 357.36 203.75 L 357.55 205.46 L 357.68 207.18 L 357.77 208.90 Z" />
</symbol>
<symbol id="bl1">
<path d="M 275.45 133.28 L 273.19 134.83 L 270.93 136.39 L 268.68 137.95 L 266.42 139.50 L 264.17 141.06 L 261.91 142.62 L 259.65 144.18 L 257.39 145.74 L 255.14 147.30 L 252.88 148.86 L 250.63 150.41 L 248.37 151.97 L 246.12 153.53 L 243.86 155.10 L 241.60 156.65 L 239.35 158.21 L 237.09 159.77 L 234.83 161.32 L 232.58 162.88 L 230.32 164.44 L 228.07 166.00 L 225.81 167.55 L 223.54 169.10 L 221.27 170.63 L 218.98 172.14 L 216.67 173.61 L 214.32 175.03 L 211.94 176.39 L 209.52 177.67 L 207.07 178.88 L 204.57 180.02 L 202.05 181.07 L 199.49 182.05 L 196.90 182.95 L 194.29 183.77 L 191.65 184.50 L 189.00 185.16 L 186.32 185.73 L 183.63 186.22 L 180.92 186.63 L 178.20 186.95 L 175.48 187.19 L 172.74 187.35 L 170.01 187.42 L 167.27 187.41 L 164.54 187.31 L 161.81 187.12 L 159.08 186.86 L 156.37 186.51 L 153.67 186.07 L 150.98 185.56 L 148.32 184.96 L 145.67 184.27 L 143.04 183.51 L 140.44 182.67 L 137.86 181.74 L 135.32 180.74 L 132.81 179.66 L 130.33 178.50 L 127.89 177.27 L 125.49 175.96 L 123.13 174.57 L 120.81 173.12 L 118.54 171.60 L 116.32 170.00 L 114.15 168.34 L 112.03 166.61 L 109.97 164.82 L 107.96 162.96 L 106.01 161.04 L 104.12 159.07 L 102.29 157.03 L 100.53 154.94 L 98.83 152.80 L 97.19 150.61 L 95.63 148.36 L 94.14 146.07 L 92.71 143.74 L 91.36 141.36 L 90.09 138.94 L 88.89 136.48 L 87.77 133.99 L 86.72 131.46 L 85.75 128.90 L 84.86 126.32 L 84.05 123.70 L 83.32 121.06 L 82.68 118.40 L 82.12 115.73 L 81.63 113.03 L 81.24 110.33 L 80.92 107.61 L 80.69 104.89 L 80.55 102.15 L 80.49 99.42 L 80.51 96.68 L 80.62 93.95 L 80.81 91.22 L 81.08 88.50 L 81.44 85.78 L 81.89 83.08 L 82.41 80.40 L 83.02 77.73 L 83.71 75.08 L 84.48 72.46 L 85.34 69.85 L 86.27 67.28 L 87.28 64.74 L 88.36 62.23 L 89.53 59.75 L 90.77 57.31 L 92.09 54.91 L 93.48 52.55 L 94.94 50.24 L 96.47 47.97 L 98.07 45.75 L 99.74 43.58 L 101.47 41.46 L 103.27 39.40 L 105.14 37.39 L 107.06 35.45 L 109.04 33.56 L 111.08 31.73 L 113.18 29.97 L 115.32 28.27 L 117.52 26.64 L 119.77 25.08 L 122.07 23.59 L 124.41 22.17 L 126.79 20.83 L 129.21 19.55 L 131.68 18.35 L 134.17 17.23 L 136.70 16.19 L 139.26 15.22 L 141.85 14.34 L 144.47 13.53 L 147.11 12.81 L 149.77 12.17 L 152.45 11.61 L 155.14 11.13 L 157.85 10.74 L 160.57 10.43 L 163.30 10.20 L 166.03 10.06 L 168.77 10.00 L 171.50 10.03 L 174.24 10.14 L 176.97 10.34 L 179.69 10.61 L 182.40 10.98 L 185.10 11.43 L 187.79 11.96 L 190.45 12.57 L 193.10 13.27 L 195.72 14.04 L 198.32 14.90 L 200.89 15.84 L 203.44 16.85 L 205.95 17.93 L 208.44 19.08 L 210.90 20.26 L 213.35 21.49 L 215.79 22.73 L 218.22 23.99 L 220.65 25.26 L 223.08 26.52 L 225.51 27.79 L 227.93 29.06 L 230.36 30.32 L 232.79 31.59 L 235.22 32.86 L 237.65 34.12 L 240.08 35.39 L 242.51 36.66 L 244.94 37.93 L 247.37 39.19 L 249.80 40.46 L 252.23 41.73 L 254.65 43.00 L 257.08 44.27 L 259.51 45.53 L 261.94 46.80 L 264.37 48.07 L 266.80 49.34 L 269.23 50.61 L 271.66 51.87 L 274.09 53.14 L 276.52 54.41 L 278.95 55.68 L 281.38 56.95 L 283.82 58.22 L 286.24 59.49 L 288.67 60.76 L 291.10 62.04 L 293.52 63.33 L 295.92 64.65 L 298.28 66.05 L 300.58 67.55 L 302.79 69.18 L 304.86 70.96 L 306.75 72.92 L 308.46 75.05 L 309.95 77.33 L 311.20 79.77 L 312.21 82.35 L 312.97 85.06 L 313.46 87.88 L 313.69 90.76 L 313.65 93.61 L 313.34 96.38 L 312.77 99.05 L 311.94 101.62 L 310.86 104.07 L 309.55 106.41 L 308.02 108.61 L 306.29 110.67 L 304.40 112.59 L 302.36 114.38 L 300.22 116.07 L 298.02 117.68 L 295.77 119.25 L 293.51 120.81 L 291.25 122.36 L 289.00 123.93 L 286.74 125.48 L 284.48 127.04 L 282.22 128.60 L 279.96 130.16 L 277.71 131.71 Z" />
</symbol>
<symbol id="bl2">
<path d="M 374.65 138.22 L 372.91 138.73 L 371.16 139.23 L 369.42 139.73 L 367.68 140.23 L 365.94 140.73 L 364.19 141.23 L 362.45 141.74 L 360.71 142.24 L 358.97 142.74 L 357.23 143.24 L 355.48 143.74 L 353.74 144.25 L 352.00 144.75 L 350.26 145.25 L 348.52 145.76 L 346.77 146.26 L 345.03 146.76 L 343.29 147.27 L 341.54 147.77 L 339.80 148.27 L 338.06 148.78 L 336.32 149.28 L 334.58 149.78 L 332.83 150.29 L 331.09 150.79 L 329.35 151.29 L 327.61 151.79 L 325.86 152.29 L 324.12 152.79 L 322.38 153.29 L 320.63 153.77 L 318.87 154.23 L 317.09 154.63 L 315.28 154.95 L 313.42 155.16 L 311.49 155.23 L 309.50 155.15 L 307.49 154.91 L 305.54 154.52 L 303.70 153.97 L 301.97 153.29 L 300.34 152.47 L 298.81 151.51 L 297.37 150.42 L 296.02 149.22 L 294.76 147.92 L 293.56 146.56 L 292.40 145.16 L 291.26 143.75 L 290.12 142.33 L 288.98 140.91 L 287.84 139.49 L 286.69 138.07 L 285.55 136.65 L 284.41 135.23 L 283.27 133.81 L 282.13 132.39 L 280.99 130.97 L 279.85 129.55 L 278.71 128.13 L 277.57 126.71 L 276.44 125.29 L 275.30 123.87 L 274.16 122.45 L 273.01 121.03 L 271.87 119.61 L 270.73 118.19 L 269.60 116.77 L 268.46 115.35 L 267.32 113.92 L 266.19 112.50 L 265.07 111.06 L 263.97 109.61 L 262.91 108.14 L 261.92 106.62 L 261.01 105.05 L 260.21 103.43 L 259.51 101.75 L 258.94 100.00 L 258.48 98.18 L 258.13 96.27 L 257.89 94.27 L 257.77 92.22 L 257.76 90.21 L 257.87 88.27 L 258.10 86.41 L 258.46 84.61 L 258.94 82.86 L 259.54 81.16 L 260.24 79.49 L 261.07 77.88 L 261.99 76.33 L 263.00 74.83 L 264.11 73.41 L 265.31 72.06 L 266.60 70.78 L 267.96 69.60 L 269.39 68.50 L 270.89 67.48 L 272.45 66.56 L 274.06 65.72 L 275.69 64.93 L 277.35 64.19 L 279.02 63.49 L 280.69 62.80 L 282.37 62.12 L 284.05 61.44 L 285.73 60.76 L 287.41 60.08 L 289.09 59.40 L 290.77 58.71 L 292.45 58.03 L 294.13 57.35 L 295.81 56.67 L 297.49 55.99 L 299.17 55.32 L 300.85 54.64 L 302.53 53.96 L 304.21 53.29 L 305.89 52.61 L 307.57 51.93 L 309.25 51.24 L 310.93 50.56 L 312.61 49.88 L 314.29 49.21 L 315.97 48.53 L 317.65 47.85 L 319.33 47.18 L 321.00 46.50 L 322.69 45.82 L 324.37 45.14 L 326.05 44.46 L 327.73 43.78 L 329.40 43.10 L 331.09 42.42 L 332.77 41.74 L 334.45 41.07 L 336.13 40.38 L 337.81 39.71 L 339.49 39.03 L 341.17 38.36 L 342.85 37.68 L 344.54 37.02 L 346.23 36.37 L 347.93 35.75 L 349.64 35.17 L 351.37 34.63 L 353.11 34.14 L 354.87 33.71 L 356.64 33.34 L 358.43 33.04 L 360.22 32.79 L 362.02 32.60 L 363.83 32.48 L 365.64 32.42 L 367.45 32.42 L 369.25 32.48 L 371.06 32.60 L 372.86 32.78 L 374.65 33.03 L 376.43 33.34 L 378.21 33.70 L 379.97 34.14 L 381.71 34.62 L 383.43 35.17 L 385.14 35.77 L 386.82 36.44 L 388.48 37.16 L 390.12 37.94 L 391.73 38.77 L 393.31 39.66 L 394.85 40.60 L 396.36 41.59 L 397.84 42.63 L 399.28 43.73 L 400.68 44.87 L 402.05 46.06 L 403.37 47.30 L 404.65 48.57 L 405.89 49.90 L 407.08 51.26 L 408.22 52.67 L 409.31 54.11 L 410.35 55.59 L 411.35 57.10 L 412.29 58.65 L 413.17 60.22 L 414.00 61.83 L 414.78 63.47 L 415.50 65.13 L 416.16 66.81 L 416.77 68.51 L 417.31 70.24 L 417.80 71.98 L 418.23 73.74 L 418.59 75.51 L 418.90 77.29 L 419.15 79.09 L 419.33 80.89 L 419.45 82.69 L 419.51 84.50 L 419.51 86.31 L 419.44 88.12 L 419.32 89.92 L 419.13 91.72 L 418.88 93.52 L 418.57 95.30 L 418.20 97.07 L 417.77 98.83 L 417.28 100.57 L 416.73 102.29 L 416.12 104.00 L 415.46 105.68 L 414.73 107.34 L 413.95 108.97 L 413.12 110.58 L 412.22 112.15 L 411.28 113.70 L 410.29 115.21 L 409.24 116.68 L 408.14 118.12 L 407.00 119.52 L 405.80 120.88 L 404.57 122.21 L 403.28 123.48 L 401.96 124.71 L 400.59 125.90 L 399.19 127.04 L 397.74 128.12 L 396.26 129.16 L 394.74 130.15 L 393.19 131.09 L 391.61 131.97 L 390.00 132.80 L 388.37 133.57 L 386.71 134.29 L 385.02 134.95 L 383.32 135.56 L 381.59 136.13 L 379.87 136.68 L 378.13 137.20 L 376.39 137.71 Z" />
</symbol>
<symbol id="bl3">
<path d="M 388.97 472.96 L 388.66 473.64 L 388.33 474.30 L 387.99 474.96 L 387.63 475.61 L 387.25 476.25 L 386.86 476.89 L 386.44 477.51 L 386.01 478.13 L 385.57 478.73 L 385.11 479.31 L 384.64 479.88 L 384.15 480.44 L 383.65 480.99 L 383.14 481.53 L 382.61 482.06 L 382.06 482.56 L 381.50 483.06 L 380.93 483.54 L 380.35 484.00 L 379.75 484.45 L 379.15 484.88 L 378.53 485.29 L 377.90 485.70 L 377.26 486.09 L 376.61 486.45 L 375.95 486.80 L 375.29 487.14 L 374.61 487.46 L 373.93 487.75 L 373.24 488.04 L 372.54 488.30 L 371.83 488.55 L 371.12 488.77 L 370.41 488.98 L 369.68 489.17 L 368.96 489.34 L 368.23 489.49 L 367.49 489.62 L 366.75 489.73 L 366.01 489.82 L 365.27 489.89 L 364.52 489.95 L 363.78 489.98 L 363.03 490.00 L 362.29 490.00 L 361.54 489.97 L 360.80 489.93 L 360.06 489.87 L 359.31 489.78 L 358.57 489.68 L 357.83 489.56 L 357.10 489.42 L 356.38 489.26 L 355.65 489.08 L 354.93 488.88 L 354.22 488.66 L 353.51 488.43 L 352.81 488.17 L 352.11 487.90 L 351.42 487.62 L 350.74 487.31 L 350.08 486.99 L 349.41 486.65 L 348.76 486.29 L 348.12 485.91 L 347.48 485.52 L 346.86 485.10 L 346.25 484.68 L 345.65 484.24 L 345.06 483.78 L 344.48 483.31 L 343.92 482.83 L 343.37 482.33 L 342.83 481.81 L 342.31 481.28 L 341.80 480.73 L 341.30 480.17 L 340.82 479.61 L 340.35 479.03 L 339.91 478.44 L 339.47 477.84 L 339.06 477.22 L 338.65 476.58 L 338.26 475.95 L 337.90 475.30 L 337.54 474.65 L 337.21 473.99 L 336.89 473.31 L 336.60 472.63 L 336.32 471.94 L 336.06 471.24 L 335.81 470.54 L 335.58 469.83 L 335.38 469.11 L 335.19 468.39 L 335.02 467.67 L 334.87 466.94 L 334.74 466.21 L 334.63 465.47 L 334.54 464.73 L 334.46 463.99 L 334.41 463.25 L 334.38 462.51 L 334.36 461.76 L 334.37 461.02 L 334.39 460.27 L 334.44 459.53 L 334.50 458.79 L 334.59 458.05 L 334.69 457.31 L 334.81 456.57 L 334.95 455.84 L 335.12 455.12 L 335.30 454.39 L 335.50 453.68 L 335.71 452.97 L 335.95 452.26 L 336.21 451.56 L 336.48 450.87 L 336.77 450.18 L 337.08 449.50 L 337.41 448.83 L 337.75 448.17 L 338.11 447.52 L 338.49 446.88 L 338.89 446.25 L 339.30 445.63 L 339.72 445.02 L 340.17 444.41 L 340.63 443.83 L 341.10 443.25 L 341.59 442.69 L 342.10 442.14 L 342.62 441.60 L 343.15 441.08 L 343.69 440.58 L 344.25 440.08 L 344.82 439.60 L 345.40 439.13 L 346.00 438.69 L 346.61 438.25 L 347.23 437.84 L 347.86 437.44 L 348.50 437.05 L 349.15 436.68 L 349.80 436.33 L 350.47 436.00 L 351.15 435.68 L 351.84 435.38 L 352.53 435.10 L 353.23 434.84 L 353.93 434.60 L 354.64 434.37 L 355.36 434.17 L 356.09 433.98 L 356.81 433.81 L 357.54 433.66 L 358.28 433.53 L 359.02 433.42 L 359.76 433.33 L 360.51 433.25 L 361.25 433.20 L 362.00 433.17 L 362.74 433.16 L 363.49 433.16 L 364.24 433.19 L 364.98 433.23 L 365.73 433.29 L 366.47 433.38 L 367.21 433.48 L 367.94 433.60 L 368.68 433.74 L 369.41 433.90 L 370.13 434.08 L 370.84 434.28 L 371.56 434.50 L 372.27 434.73 L 372.97 434.99 L 373.67 435.26 L 374.35 435.55 L 375.03 435.85 L 375.70 436.18 L 376.37 436.52 L 377.02 436.88 L 377.66 437.26 L 378.29 437.65 L 378.91 438.06 L 379.53 438.49 L 380.13 438.93 L 380.71 439.39 L 381.29 439.86 L 381.85 440.35 L 382.40 440.85 L 382.94 441.37 L 383.46 441.90 L 383.97 442.44 L 384.46 443.00 L 384.94 443.57 L 385.40 444.15 L 385.85 444.74 L 386.29 445.34 L 386.71 445.96 L 387.11 446.59 L 387.49 447.22 L 387.86 447.87 L 388.21 448.53 L 388.54 449.19 L 388.86 449.87 L 389.15 450.55 L 389.43 451.23 L 389.69 451.93 L 389.93 452.63 L 390.16 453.34 L 390.36 454.06 L 390.55 454.78 L 390.72 455.50 L 390.87 456.23 L 391.00 456.96 L 391.11 457.69 L 391.20 458.43 L 391.27 459.17 L 391.33 459.91 L 391.36 460.65 L 391.37 461.40 L 391.36 462.14 L 391.34 462.88 L 391.29 463.62 L 391.23 464.36 L 391.14 465.10 L 391.04 465.84 L 390.92 466.57 L 390.77 467.30 L 390.61 468.03 L 390.43 468.75 L 390.23 469.46 L 390.02 470.18 L 389.78 470.88 L 389.53 471.58 L 389.26 472.27 Z" />
</symbol>
</defs>
<!-- isDone: 0 -->
<rect width="700" height="500" style="fill:#fff;stroke-width:0" />
<use class="p0 borderLine" xlink:href="#bl0"/>
<use class="p1 borderLine" xlink:href="#bl1"/>
<use class="p2 borderLine" xlink:href="#bl2"/>
<use class="p3 borderLine" xlink:href="#bl3"/>
<use class="q0 outLine" xlink:href="#bl0"/>
<use class="q1 outLine" xlink:href="#bl1"/>
<use class="q2 outLine" xlink:href="#bl2"/>
<use class="q3 outLine" xlink:href="#bl3"/>
<circle onclick="fromCircle(8)" class="circle" cx="301.8145" cy="210.6586" r="52.0901" />
<text class="nLabel" x="301.81" y="205.66">9</text>
<text class="belong" x="301.81" y="215.66">(1)</text>
<circle onclick="fromCircle(4)" class="circle" cx="168.8145" cy="98.3885" r="85.0628" />
<text class="nLabel" x="168.81" y="93.39">24</text>
<text class="belong" x="168.81" y="103.39">(2)</text>
<circle onclick="fromCircle(6)" class="circle" cx="285.8226" cy="91.2390" r="24.5555" />
<text class="nLabel" x="285.82" y="86.24">2</text>
<text class="belong" x="285.82" y="96.24">(2, 3)</text>
<circle onclick="fromCircle(2)" class="circle" cx="366.6663" cy="85.0337" r="49.1110" />
<text class="nLabel" x="366.67" y="80.03">8</text>
<text class="belong" x="366.67" y="90.03">(3)</text>
<circle onclick="fromCircle(10)" class="circle" cx="310.9459" cy="134.1447" r="17.3634" />
<text class="nLabel" x="310.95" y="129.14">1</text>
<text class="belong" x="310.95" y="139.14">(1, 3)</text>
<circle onclick="fromCircle(1)" class="circle" cx="363.0937" cy="462.5848" r="24.5555" />
<text class="nLabel" x="363.09" y="457.58">2</text>
<text class="belong" x="363.09" y="467.58">(4)</text>
<g id="legendBox">
<rect class="p0 borderLine" x="500.00" y="50.00" width="30.00" height="15.00" />
<rect class="q0" x="500.00" y="50.00" width="30.00" height="15.00" />
<text class="legend" x="540.00" y="65.00">TMS InvCorr</text>
<rect class="p1 borderLine" x="500.00" y="90.00" width="30.00" height="15.00" />
<rect class="q1" x="500.00" y="90.00" width="30.00" height="15.00" />
<text class="legend" x="540.00" y="105.00">TMS DirCorr</text>
<rect class="p2 borderLine" x="500.00" y="130.00" width="30.00" height="15.00" />
<rect class="q2" x="500.00" y="130.00" width="30.00" height="15.00" />
<text class="legend" x="540.00" y="145.00">Zhou DirCorr</text>
<rect class="p3 borderLine" x="500.00" y="170.00" width="30.00" height="15.00" />
<rect class="q3" x="500.00" y="170.00" width="30.00" height="15.00" />
<text class="legend" x="540.00" y="185.00">Zhou InvCorr</text>
</g>
</svg>
