<svg xmlns="http://www.w3.org/2000/svg" xmlns:xlink="http://www.w3.org/1999/xlink" width="700" height="500">
<defs>
<style type="text/css"><![CDATA[
  .borderLine {
	   stroke: none;
	   fill-opacity:  0.4 ;
  }
  .outLine {
	   stroke-width:  1 ;
	   fill: none;
  }
  .circle {
	   stroke: #888888;
	   stroke-width: 0.5;
	   fill: none;
    pointer-events: all;
  }
  .nLabel {
	   font-family: Arial;
    pointer-events: none;
	   font-size: 10px;
	   text-anchor: middle;
	   alignment-baseline: central;
  }
  .belong {
	   font-family: Arial;
    pointer-events: none;
	   font-size: 5px;
	   text-anchor: middle;
	   alignment-baseline: central;
  }
  .legend {
    font-family: Arial;
    font-size: 15px;
  }
  #legendBox {
    display:  inline ;
  }
  .p0{
    stroke: none;
    fill: #e6194b;
  }
  .q0{
    fill: none;
    stroke: #e6194b;
  }
  .p1{
    stroke: none;
    fill: #3cb44b;
  }
  .q1{
    fill: none;
    stroke: #3cb44b;
  }
  .p2{
    stroke: none;
    fill: #ffe119;
  }
  .q2{
    fill: none;
    stroke: #ffe119;
  }
  .p3{
    stroke: none;
    fill: #0082c8;
  }
  .q3{
    fill: none;
    stroke: #0082c8;
  }
  .p4{
    stroke: none;
    fill: #f58231;
  }
  .q4{
    fill: none;
    stroke: #f58231;
  }
  .p5{
    stroke: none;
    fill: #911eb4;
  }
  .q5{
    fill: none;
    stroke: #911eb4;
  }
]]>
</style>
<symbol id="bl0">
<path d="M 248.87 375.41 L 248.87 376.41 L 248.86 377.42 L 248.86 378.42 L 248.86 379.43 L 248.86 380.43 L 248.86 381.44 L 248.85 382.44 L 248.85 383.45 L 248.84 384.45 L 248.84 385.46 L 248.84 386.47 L 248.84 387.47 L 248.83 388.48 L 248.83 389.48 L 248.83 390.49 L 248.82 391.49 L 248.80 392.50 L 248.77 393.50 L 248.73 394.49 L 248.68 395.49 L 248.61 396.49 L 248.52 397.48 L 248.41 398.48 L 248.28 399.47 L 248.13 400.46 L 247.97 401.46 L 247.79 402.45 L 247.58 403.43 L 247.36 404.41 L 247.12 405.39 L 246.86 406.36 L 246.59 407.32 L 246.29 408.29 L 245.98 409.24 L 245.65 410.19 L 245.30 411.13 L 244.93 412.06 L 244.54 412.98 L 244.14 413.90 L 243.72 414.80 L 243.28 415.70 L 242.83 416.59 L 242.35 417.48 L 241.86 418.36 L 241.36 419.23 L 240.84 420.08 L 240.30 420.93 L 239.74 421.77 L 239.17 422.59 L 238.58 423.41 L 237.99 424.22 L 237.37 425.01 L 236.73 425.79 L 236.09 426.57 L 235.43 427.32 L 234.75 428.07 L 234.07 428.79 L 233.37 429.51 L 232.65 430.21 L 231.93 430.89 L 231.19 431.57 L 230.44 432.22 L 229.67 432.87 L 228.90 433.50 L 228.11 434.12 L 227.30 434.72 L 226.49 435.30 L 225.66 435.88 L 224.83 436.44 L 223.98 436.97 L 223.12 437.49 L 222.26 438.01 L 221.38 438.49 L 220.49 438.97 L 219.60 439.43 L 218.69 439.86 L 217.78 440.29 L 216.86 440.69 L 215.93 441.08 L 215.00 441.45 L 214.06 441.80 L 213.12 442.13 L 212.17 442.45 L 211.22 442.74 L 210.26 443.02 L 209.29 443.28 L 208.32 443.53 L 207.34 443.75 L 206.35 443.95 L 205.37 444.14 L 204.38 444.31 L 203.38 444.46 L 202.39 444.59 L 201.38 444.70 L 200.38 444.79 L 199.38 444.86 L 198.37 444.91 L 197.37 444.95 L 196.37 444.96 L 195.37 444.95 L 194.37 444.93 L 193.37 444.89 L 192.37 444.83 L 191.38 444.75 L 190.38 444.65 L 189.39 444.53 L 188.39 444.39 L 187.40 444.23 L 186.41 444.06 L 185.43 443.86 L 184.44 443.65 L 183.46 443.42 L 182.49 443.17 L 181.52 442.90 L 180.56 442.61 L 179.60 442.31 L 178.65 441.98 L 177.71 441.64 L 176.77 441.28 L 175.85 440.90 L 174.93 440.51 L 174.02 440.09 L 173.11 439.66 L 172.22 439.21 L 171.33 438.75 L 170.45 438.27 L 169.58 437.77 L 168.72 437.25 L 167.86 436.73 L 167.02 436.18 L 166.19 435.61 L 165.36 435.04 L 164.56 434.44 L 163.76 433.83 L 162.97 433.21 L 162.19 432.56 L 161.43 431.91 L 160.68 431.24 L 159.95 430.56 L 159.22 429.87 L 158.51 429.16 L 157.82 428.45 L 157.14 427.71 L 156.47 426.97 L 155.82 426.21 L 155.19 425.44 L 154.57 424.65 L 153.96 423.85 L 153.37 423.04 L 152.79 422.22 L 152.23 421.38 L 151.68 420.54 L 151.15 419.69 L 150.64 418.82 L 150.14 417.95 L 149.66 417.07 L 149.20 416.18 L 148.75 415.28 L 148.32 414.38 L 147.91 413.46 L 147.51 412.54 L 147.13 411.62 L 146.78 410.68 L 146.43 409.74 L 146.11 408.80 L 145.80 407.84 L 145.51 406.88 L 145.24 405.91 L 144.99 404.94 L 144.76 403.96 L 144.55 402.98 L 144.35 401.99 L 144.18 401.00 L 144.02 400.01 L 143.89 399.02 L 143.77 398.02 L 143.67 397.02 L 143.59 396.02 L 143.53 395.02 L 143.48 394.02 L 143.46 393.02 L 143.46 392.03 L 143.47 391.03 L 143.51 390.03 L 143.56 389.02 L 143.63 388.02 L 143.73 387.02 L 143.84 386.02 L 143.96 385.03 L 144.11 384.03 L 144.28 383.04 L 144.46 382.05 L 144.67 381.07 L 144.89 380.09 L 145.13 379.11 L 145.40 378.14 L 145.68 377.18 L 145.97 376.23 L 146.29 375.28 L 146.63 374.34 L 146.98 373.40 L 147.35 372.47 L 147.74 371.55 L 148.14 370.63 L 148.56 369.72 L 149.00 368.81 L 149.46 367.92 L 149.93 367.03 L 150.41 366.16 L 150.92 365.29 L 151.44 364.43 L 151.97 363.59 L 152.52 362.75 L 153.09 361.92 L 153.68 361.11 L 154.28 360.30 L 154.90 359.51 L 155.53 358.73 L 156.18 357.97 L 156.84 357.21 L 157.52 356.48 L 158.21 355.75 L 158.91 355.04 L 159.63 354.34 L 160.36 353.66 L 161.11 352.98 L 161.87 352.32 L 162.63 351.68 L 163.42 351.05 L 164.21 350.43 L 165.01 349.83 L 165.83 349.25 L 166.66 348.68 L 167.50 348.12 L 168.34 347.58 L 169.19 347.06 L 170.06 346.55 L 170.93 346.06 L 171.81 345.59 L 172.71 345.14 L 173.61 344.70 L 174.52 344.28 L 175.44 343.88 L 176.37 343.49 L 177.30 343.13 L 178.24 342.77 L 179.19 342.44 L 180.15 342.13 L 181.10 341.82 L 182.06 341.53 L 183.02 341.25 L 183.99 340.97 L 184.95 340.70 L 185.91 340.43 L 186.88 340.16 L 187.84 339.89 L 188.81 339.62 L 189.78 339.35 L 190.75 339.07 L 191.72 338.80 L 192.69 338.52 L 193.65 338.22 L 194.60 337.91 L 195.55 337.58 L 196.48 337.21 L 197.39 336.80 L 198.27 336.35 L 199.12 335.85 L 199.94 335.28 L 200.72 334.67 L 201.46 334.00 L 202.14 333.29 L 202.78 332.53 L 203.36 331.72 L 203.88 330.88 L 204.34 330.01 L 204.74 329.10 L 205.07 328.17 L 205.35 327.22 L 205.55 326.25 L 205.68 325.26 L 205.75 324.28 L 205.75 323.29 L 205.67 322.30 L 205.53 321.32 L 205.32 320.35 L 205.04 319.40 L 204.70 318.47 L 204.29 317.57 L 203.83 316.69 L 203.30 315.85 L 202.73 315.04 L 202.12 314.25 L 201.46 313.50 L 200.77 312.77 L 200.07 312.06 L 199.35 311.36 L 198.62 310.67 L 197.88 309.98 L 197.14 309.30 L 196.40 308.62 L 195.66 307.94 L 194.92 307.26 L 194.18 306.58 L 193.43 305.90 L 192.69 305.22 L 191.95 304.54 L 191.22 303.86 L 190.48 303.18 L 189.74 302.50 L 188.99 301.82 L 188.25 301.14 L 187.51 300.46 L 186.77 299.78 L 186.03 299.10 L 185.29 298.42 L 184.56 297.74 L 183.82 297.06 L 183.08 296.38 L 182.34 295.70 L 181.61 295.02 L 180.87 294.34 L 180.13 293.66 L 179.40 292.98 L 178.66 292.30 L 177.92 291.62 L 177.19 290.94 L 176.45 290.26 L 175.71 289.58 L 174.97 288.90 L 174.23 288.22 L 173.49 287.54 L 172.74 286.86 L 172.00 286.18 L 171.26 285.50 L 170.52 284.82 L 169.78 284.14 L 169.05 283.46 L 168.32 282.76 L 167.61 282.06 L 166.92 281.34 L 166.25 280.59 L 165.63 279.82 L 165.05 279.01 L 164.53 278.17 L 164.06 277.30 L 163.67 276.40 L 163.33 275.47 L 163.07 274.52 L 162.88 273.55 L 162.77 272.58 L 162.73 271.59 L 162.76 270.61 L 162.87 269.63 L 163.05 268.66 L 163.31 267.71 L 163.65 266.78 L 164.05 265.88 L 164.52 265.01 L 165.05 264.18 L 165.64 263.40 L 166.30 262.65 L 167.01 261.96 L 167.77 261.33 L 168.59 260.74 L 169.45 260.22 L 170.36 259.75 L 171.29 259.33 L 172.25 258.96 L 173.22 258.63 L 174.20 258.33 L 175.19 258.06 L 176.17 257.80 L 177.16 257.55 L 178.15 257.31 L 179.14 257.07 L 180.13 256.83 L 181.11 256.59 L 182.10 256.35 L 183.08 256.11 L 184.07 255.86 L 185.05 255.62 L 186.04 255.38 L 187.02 255.14 L 188.00 254.90 L 188.99 254.66 L 189.98 254.42 L 190.96 254.18 L 191.95 253.94 L 192.94 253.70 L 193.93 253.47 L 194.92 253.26 L 195.91 253.07 L 196.91 252.91 L 197.91 252.79 L 198.90 252.72 L 199.90 252.73 L 200.90 252.81 L 201.88 252.96 L 202.85 253.20 L 203.80 253.51 L 204.73 253.88 L 205.64 254.31 L 206.54 254.77 L 207.44 255.22 L 208.35 255.66 L 209.28 256.06 L 210.22 256.42 L 211.18 256.73 L 212.15 257.00 L 213.12 257.23 L 214.10 257.44 L 215.09 257.64 L 216.08 257.82 L 217.08 258.00 L 218.07 258.18 L 219.06 258.36 L 220.05 258.54 L 221.05 258.72 L 222.04 258.90 L 223.03 259.08 L 224.02 259.26 L 225.02 259.43 L 226.01 259.61 L 227.00 259.79 L 227.99 259.97 L 228.99 260.14 L 229.98 260.32 L 230.97 260.50 L 231.96 260.68 L 232.96 260.86 L 233.95 261.03 L 234.94 261.21 L 235.93 261.39 L 236.92 261.57 L 237.91 261.75 L 238.90 261.95 L 239.88 262.15 L 240.86 262.38 L 241.83 262.63 L 242.81 262.90 L 243.77 263.19 L 244.72 263.51 L 245.66 263.87 L 246.59 264.24 L 247.51 264.65 L 248.41 265.09 L 249.30 265.55 L 250.18 266.04 L 251.04 266.55 L 251.90 267.09 L 252.73 267.65 L 253.55 268.23 L 254.35 268.84 L 255.12 269.47 L 255.88 270.13 L 256.61 270.81 L 257.33 271.52 L 258.02 272.24 L 258.69 272.99 L 259.33 273.77 L 259.96 274.57 L 260.56 275.39 L 261.14 276.24 L 261.70 277.10 L 262.24 277.99 L 262.76 278.88 L 263.25 279.78 L 263.72 280.69 L 264.15 281.60 L 264.55 282.52 L 264.92 283.43 L 265.26 284.36 L 265.57 285.29 L 265.84 286.23 L 266.09 287.18 L 266.31 288.13 L 266.50 289.09 L 266.66 290.05 L 266.79 291.02 L 266.90 291.99 L 266.98 292.97 L 267.03 293.95 L 267.05 294.93 L 267.04 295.91 L 267.00 296.90 L 266.93 297.88 L 266.84 298.85 L 266.71 299.82 L 266.56 300.78 L 266.38 301.74 L 266.17 302.70 L 265.94 303.65 L 265.67 304.59 L 265.38 305.53 L 265.07 306.46 L 264.72 307.38 L 264.36 308.29 L 263.97 309.19 L 263.57 310.09 L 263.16 310.98 L 262.75 311.87 L 262.34 312.77 L 261.96 313.67 L 261.61 314.59 L 261.29 315.52 L 261.01 316.46 L 260.76 317.41 L 260.52 318.36 L 260.31 319.33 L 260.10 320.29 L 259.90 321.26 L 259.71 322.22 L 259.51 323.19 L 259.31 324.15 L 259.12 325.12 L 258.93 326.08 L 258.74 327.05 L 258.54 328.01 L 258.35 328.98 L 258.16 329.94 L 257.97 330.91 L 257.78 331.88 L 257.59 332.84 L 257.40 333.81 L 257.21 334.77 L 257.01 335.73 L 256.82 336.69 L 256.63 337.66 L 256.44 338.62 L 256.25 339.58 L 256.06 340.54 L 255.87 341.50 L 255.67 342.46 L 255.46 343.42 L 255.23 344.38 L 254.98 345.34 L 254.70 346.29 L 254.37 347.23 L 254.00 348.15 L 253.58 349.07 L 253.13 349.98 L 252.66 350.89 L 252.19 351.81 L 251.73 352.73 L 251.30 353.64 L 250.90 354.57 L 250.54 355.51 L 250.22 356.46 L 249.94 357.42 L 249.70 358.40 L 249.50 359.38 L 249.33 360.37 L 249.20 361.36 L 249.10 362.35 L 249.03 363.35 L 248.98 364.35 L 248.95 365.36 L 248.93 366.36 L 248.92 367.37 L 248.91 368.37 L 248.90 369.38 L 248.90 370.38 L 248.89 371.38 L 248.88 372.39 L 248.88 373.39 L 248.87 374.40 Z" />
</symbol>
<symbol id="bl1">
<path d="M 185.61 340.52 L 184.76 340.75 L 183.92 340.99 L 183.08 341.22 L 182.24 341.46 L 181.39 341.72 L 180.55 341.98 L 179.72 342.25 L 178.88 342.54 L 178.05 342.83 L 177.23 343.14 L 176.41 343.46 L 175.59 343.79 L 174.78 344.13 L 173.98 344.48 L 173.17 344.84 L 172.37 345.20 L 171.57 345.56 L 170.77 345.93 L 169.97 346.29 L 169.17 346.65 L 168.37 347.01 L 167.56 347.38 L 166.76 347.74 L 165.96 348.11 L 165.16 348.47 L 164.36 348.84 L 163.56 349.21 L 162.76 349.57 L 161.96 349.94 L 161.16 350.31 L 160.36 350.68 L 159.56 351.05 L 158.76 351.42 L 157.96 351.80 L 157.16 352.17 L 156.37 352.54 L 155.57 352.91 L 154.77 353.28 L 153.97 353.63 L 153.16 353.98 L 152.35 354.31 L 151.53 354.64 L 150.71 354.96 L 149.89 355.27 L 149.05 355.56 L 148.22 355.84 L 147.38 356.10 L 146.53 356.35 L 145.68 356.57 L 144.82 356.78 L 143.96 356.97 L 143.09 357.15 L 142.22 357.31 L 141.36 357.45 L 140.48 357.57 L 139.61 357.67 L 138.73 357.76 L 137.85 357.83 L 136.97 357.89 L 136.09 357.92 L 135.22 357.94 L 134.34 357.93 L 133.46 357.91 L 132.59 357.87 L 131.72 357.81 L 130.84 357.74 L 129.97 357.65 L 129.10 357.54 L 128.23 357.41 L 127.36 357.27 L 126.49 357.11 L 125.62 356.93 L 124.76 356.74 L 123.91 356.54 L 123.05 356.34 L 122.20 356.13 L 121.35 355.91 L 120.49 355.69 L 119.64 355.47 L 118.79 355.25 L 117.93 355.03 L 117.08 354.81 L 116.22 354.59 L 115.37 354.37 L 114.51 354.15 L 113.66 353.93 L 112.81 353.71 L 111.95 353.48 L 111.10 353.26 L 110.24 353.04 L 109.39 352.82 L 108.54 352.60 L 107.68 352.39 L 106.83 352.16 L 105.97 351.94 L 105.12 351.72 L 104.26 351.50 L 103.41 351.28 L 102.56 351.06 L 101.70 350.84 L 100.85 350.62 L 100.00 350.40 L 99.14 350.18 L 98.29 349.96 L 97.44 349.74 L 96.58 349.52 L 95.73 349.30 L 94.88 349.08 L 94.03 348.86 L 93.18 348.64 L 92.33 348.42 L 91.48 348.20 L 90.63 347.98 L 89.78 347.76 L 88.93 347.54 L 88.08 347.32 L 87.23 347.10 L 86.38 346.88 L 85.53 346.66 L 84.67 346.44 L 83.82 346.22 L 82.97 346.00 L 82.11 345.78 L 81.26 345.56 L 80.40 345.34 L 79.55 345.12 L 78.70 344.90 L 77.84 344.68 L 76.99 344.46 L 76.14 344.24 L 75.28 344.02 L 74.43 343.79 L 73.57 343.57 L 72.72 343.35 L 71.86 343.13 L 71.01 342.91 L 70.16 342.69 L 69.30 342.47 L 68.45 342.25 L 67.60 342.03 L 66.74 341.81 L 65.89 341.59 L 65.04 341.37 L 64.19 341.15 L 63.34 340.93 L 62.49 340.71 L 61.64 340.49 L 60.79 340.27 L 59.94 340.05 L 59.10 339.83 L 58.25 339.61 L 57.40 339.39 L 56.54 339.17 L 55.69 338.95 L 54.84 338.73 L 53.98 338.51 L 53.13 338.29 L 52.28 338.07 L 51.42 337.85 L 50.57 337.63 L 49.71 337.41 L 48.86 337.19 L 48.00 336.97 L 47.15 336.75 L 46.30 336.53 L 45.44 336.31 L 44.59 336.09 L 43.74 335.87 L 42.89 335.65 L 42.04 335.41 L 41.20 335.17 L 40.36 334.92 L 39.52 334.66 L 38.69 334.39 L 37.86 334.10 L 37.03 333.79 L 36.21 333.47 L 35.40 333.13 L 34.60 332.77 L 33.80 332.40 L 33.01 332.00 L 32.23 331.59 L 31.46 331.17 L 30.71 330.73 L 29.96 330.28 L 29.22 329.81 L 28.49 329.32 L 27.76 328.82 L 27.05 328.30 L 26.35 327.77 L 25.66 327.22 L 24.97 326.66 L 24.31 326.09 L 23.65 325.50 L 23.01 324.90 L 22.38 324.29 L 21.76 323.67 L 21.15 323.03 L 20.57 322.38 L 19.99 321.72 L 19.43 321.05 L 18.89 320.36 L 18.36 319.66 L 17.84 318.95 L 17.34 318.22 L 16.86 317.49 L 16.38 316.75 L 15.93 315.99 L 15.49 315.23 L 15.06 314.46 L 14.65 313.68 L 14.26 312.89 L 13.87 312.10 L 13.52 311.29 L 13.17 310.48 L 12.84 309.66 L 12.53 308.84 L 12.24 308.02 L 11.97 307.18 L 11.71 306.35 L 11.47 305.50 L 11.25 304.65 L 11.05 303.80 L 10.86 302.94 L 10.69 302.07 L 10.54 301.20 L 10.41 300.33 L 10.29 299.46 L 10.20 298.58 L 10.13 297.70 L 10.07 296.82 L 10.03 295.94 L 10.01 295.06 L 10.00 294.18 L 10.02 293.31 L 10.05 292.43 L 10.10 291.56 L 10.17 290.69 L 10.26 289.82 L 10.36 288.95 L 10.49 288.07 L 10.63 287.20 L 10.79 286.33 L 10.98 285.47 L 11.17 284.62 L 11.39 283.76 L 11.62 282.91 L 11.87 282.06 L 12.14 281.22 L 12.43 280.39 L 12.73 279.56 L 13.05 278.75 L 13.39 277.94 L 13.75 277.14 L 14.12 276.34 L 14.51 275.56 L 14.91 274.78 L 15.33 274.01 L 15.77 273.25 L 16.22 272.49 L 16.69 271.74 L 17.17 271.01 L 17.67 270.28 L 18.18 269.56 L 18.71 268.86 L 19.25 268.16 L 19.80 267.48 L 20.37 266.81 L 20.95 266.15 L 21.55 265.51 L 22.16 264.88 L 22.79 264.26 L 23.42 263.65 L 24.07 263.06 L 24.74 262.48 L 25.41 261.91 L 26.10 261.37 L 26.80 260.83 L 27.50 260.31 L 28.23 259.81 L 28.96 259.32 L 29.70 258.85 L 30.44 258.39 L 31.20 257.95 L 31.96 257.52 L 32.74 257.11 L 33.52 256.72 L 34.31 256.34 L 35.11 255.97 L 35.92 255.63 L 36.74 255.30 L 37.56 254.99 L 38.40 254.69 L 39.23 254.41 L 40.08 254.15 L 40.92 253.91 L 41.77 253.68 L 42.62 253.48 L 43.48 253.29 L 44.34 253.11 L 45.20 252.96 L 46.06 252.83 L 46.93 252.71 L 47.80 252.62 L 48.68 252.54 L 49.56 252.47 L 50.44 252.43 L 51.32 252.41 L 52.21 252.40 L 53.09 252.41 L 53.97 252.44 L 54.84 252.49 L 55.72 252.56 L 56.59 252.64 L 57.46 252.74 L 58.33 252.86 L 59.19 253.00 L 60.05 253.15 L 60.91 253.32 L 61.77 253.50 L 62.63 253.70 L 63.49 253.90 L 64.34 254.10 L 65.19 254.31 L 66.05 254.53 L 66.90 254.74 L 67.75 254.96 L 68.61 255.18 L 69.46 255.40 L 70.32 255.61 L 71.17 255.83 L 72.03 256.05 L 72.88 256.27 L 73.73 256.48 L 74.59 256.70 L 75.44 256.92 L 76.30 257.13 L 77.15 257.35 L 78.00 257.57 L 78.86 257.79 L 79.71 258.01 L 80.56 258.23 L 81.42 258.44 L 82.27 258.66 L 83.13 258.88 L 83.98 259.10 L 84.84 259.32 L 85.69 259.53 L 86.54 259.75 L 87.40 259.97 L 88.25 260.19 L 89.10 260.40 L 89.95 260.62 L 90.80 260.84 L 91.65 261.06 L 92.50 261.28 L 93.35 261.49 L 94.20 261.71 L 95.05 261.93 L 95.90 262.15 L 96.75 262.37 L 97.60 262.59 L 98.45 262.80 L 99.31 263.02 L 100.16 263.24 L 101.01 263.46 L 101.87 263.67 L 102.73 263.88 L 103.58 264.09 L 104.44 264.29 L 105.29 264.49 L 106.15 264.69 L 107.01 264.88 L 107.87 265.07 L 108.73 265.26 L 109.60 265.44 L 110.46 265.61 L 111.33 265.78 L 112.19 265.95 L 113.06 266.12 L 113.93 266.29 L 114.79 266.45 L 115.66 266.61 L 116.53 266.77 L 117.40 266.94 L 118.26 267.10 L 119.13 267.27 L 119.99 267.43 L 120.86 267.60 L 121.73 267.76 L 122.59 267.93 L 123.46 268.09 L 124.32 268.25 L 125.19 268.41 L 126.05 268.58 L 126.91 268.74 L 127.78 268.91 L 128.64 269.07 L 129.50 269.24 L 130.36 269.40 L 131.22 269.57 L 132.09 269.73 L 132.95 269.90 L 133.81 270.06 L 134.67 270.22 L 135.54 270.39 L 136.40 270.55 L 137.27 270.71 L 138.14 270.87 L 139.00 271.04 L 139.87 271.20 L 140.73 271.37 L 141.60 271.53 L 142.46 271.71 L 143.33 271.89 L 144.19 272.09 L 145.06 272.29 L 145.91 272.51 L 146.76 272.74 L 147.60 272.99 L 148.44 273.26 L 149.27 273.55 L 150.09 273.85 L 150.91 274.17 L 151.72 274.50 L 152.53 274.85 L 153.33 275.22 L 154.12 275.60 L 154.91 275.99 L 155.68 276.41 L 156.45 276.84 L 157.22 277.28 L 157.96 277.75 L 158.71 278.22 L 159.44 278.71 L 160.16 279.21 L 160.87 279.72 L 161.58 280.25 L 162.27 280.78 L 162.97 281.33 L 163.66 281.88 L 164.35 282.44 L 165.03 282.99 L 165.71 283.55 L 166.39 284.11 L 167.07 284.67 L 167.74 285.24 L 168.42 285.80 L 169.10 286.36 L 169.78 286.92 L 170.46 287.49 L 171.14 288.05 L 171.82 288.62 L 172.50 289.18 L 173.18 289.74 L 173.85 290.30 L 174.53 290.87 L 175.21 291.43 L 175.89 291.99 L 176.57 292.56 L 177.24 293.12 L 177.92 293.68 L 178.59 294.24 L 179.27 294.80 L 179.95 295.37 L 180.62 295.93 L 181.30 296.50 L 181.97 297.06 L 182.65 297.63 L 183.32 298.19 L 184.00 298.75 L 184.67 299.31 L 185.35 299.87 L 186.03 300.44 L 186.71 301.00 L 187.39 301.56 L 188.06 302.13 L 188.74 302.69 L 189.42 303.26 L 190.10 303.82 L 190.78 304.38 L 191.46 304.95 L 192.13 305.51 L 192.81 306.07 L 193.49 306.63 L 194.17 307.20 L 194.85 307.76 L 195.53 308.32 L 196.21 308.89 L 196.89 309.45 L 197.57 310.02 L 198.24 310.58 L 198.92 311.16 L 199.58 311.73 L 200.23 312.32 L 200.88 312.92 L 201.50 313.54 L 202.09 314.18 L 202.65 314.85 L 203.17 315.55 L 203.66 316.28 L 204.10 317.03 L 204.49 317.82 L 204.84 318.61 L 205.13 319.43 L 205.38 320.27 L 205.57 321.12 L 205.70 321.98 L 205.79 322.84 L 205.83 323.71 L 205.81 324.58 L 205.74 325.45 L 205.61 326.32 L 205.44 327.17 L 205.21 328.01 L 204.93 328.83 L 204.60 329.64 L 204.22 330.42 L 203.80 331.18 L 203.32 331.91 L 202.81 332.61 L 202.25 333.28 L 201.65 333.91 L 201.02 334.51 L 200.35 335.07 L 199.64 335.58 L 198.91 336.06 L 198.15 336.49 L 197.37 336.88 L 196.57 337.23 L 195.75 337.55 L 194.92 337.84 L 194.09 338.11 L 193.24 338.37 L 192.39 338.61 L 191.55 338.85 L 190.70 339.09 L 189.85 339.33 L 189.00 339.57 L 188.15 339.81 L 187.30 340.05 L 186.46 340.28 Z" />
</symbol>
<symbol id="bl2">
<path d="M 230.07 213.02 L 229.85 214.52 L 229.64 216.02 L 229.42 217.51 L 229.20 219.01 L 228.99 220.51 L 228.77 222.01 L 228.55 223.50 L 228.33 225.00 L 228.11 226.50 L 227.90 228.00 L 227.68 229.50 L 227.47 231.00 L 227.25 232.49 L 227.04 233.99 L 226.82 235.49 L 226.60 236.99 L 226.38 238.49 L 226.16 239.98 L 225.92 241.47 L 225.67 242.96 L 225.40 244.44 L 225.08 245.90 L 224.70 247.34 L 224.25 248.75 L 223.70 250.13 L 223.08 251.48 L 222.38 252.78 L 221.62 254.06 L 220.82 255.32 L 220.00 256.56 L 219.16 257.79 L 218.31 259.01 L 217.45 260.24 L 216.59 261.46 L 215.73 262.68 L 214.88 263.90 L 214.02 265.13 L 213.15 266.35 L 212.28 267.57 L 211.40 268.79 L 210.51 270.00 L 209.61 271.21 L 208.70 272.41 L 207.80 273.62 L 206.91 274.85 L 206.05 276.09 L 205.23 277.36 L 204.46 278.67 L 203.75 280.01 L 203.10 281.37 L 202.51 282.77 L 201.98 284.18 L 201.52 285.62 L 201.12 287.08 L 200.78 288.55 L 200.52 290.04 L 200.32 291.54 L 200.19 293.05 L 200.13 294.56 L 200.14 296.07 L 200.22 297.59 L 200.35 299.10 L 200.55 300.60 L 200.80 302.09 L 201.09 303.58 L 201.43 305.06 L 201.79 306.54 L 202.16 308.02 L 202.55 309.48 L 202.94 310.95 L 203.34 312.42 L 203.73 313.88 L 204.11 315.35 L 204.48 316.82 L 204.80 318.30 L 205.08 319.78 L 205.28 321.27 L 205.39 322.76 L 205.38 324.24 L 205.23 325.71 L 204.94 327.15 L 204.51 328.55 L 203.93 329.89 L 203.21 331.16 L 202.37 332.36 L 201.40 333.46 L 200.32 334.44 L 199.15 335.31 L 197.89 336.04 L 196.56 336.64 L 195.17 337.09 L 193.74 337.39 L 192.29 337.55 L 190.83 337.54 L 189.38 337.38 L 187.95 337.06 L 186.57 336.59 L 185.24 335.98 L 183.99 335.23 L 182.82 334.35 L 181.75 333.35 L 180.80 332.25 L 179.97 331.04 L 179.28 329.75 L 178.72 328.37 L 178.31 326.93 L 178.04 325.43 L 177.89 323.89 L 177.85 322.31 L 177.89 320.71 L 177.96 319.12 L 178.04 317.54 L 178.10 315.97 L 178.12 314.43 L 178.10 312.90 L 178.02 311.39 L 177.89 309.88 L 177.70 308.38 L 177.46 306.89 L 177.17 305.40 L 176.82 303.93 L 176.42 302.48 L 175.98 301.04 L 175.48 299.61 L 174.93 298.21 L 174.34 296.82 L 173.70 295.45 L 173.02 294.11 L 172.29 292.79 L 171.51 291.50 L 170.69 290.24 L 169.82 289.00 L 168.90 287.80 L 167.95 286.63 L 166.96 285.50 L 165.93 284.40 L 164.86 283.33 L 163.76 282.31 L 162.62 281.32 L 161.44 280.37 L 160.23 279.46 L 159.00 278.60 L 157.73 277.78 L 156.44 277.01 L 155.12 276.28 L 153.77 275.60 L 152.40 274.97 L 151.01 274.38 L 149.61 273.84 L 148.18 273.34 L 146.74 272.89 L 145.29 272.48 L 143.83 272.11 L 142.35 271.76 L 140.88 271.44 L 139.39 271.14 L 137.90 270.84 L 136.41 270.56 L 134.93 270.27 L 133.44 269.99 L 131.96 269.71 L 130.48 269.43 L 128.99 269.15 L 127.51 268.87 L 126.03 268.58 L 124.54 268.30 L 123.06 268.01 L 121.57 267.73 L 120.08 267.45 L 118.59 267.16 L 117.10 266.87 L 115.62 266.59 L 114.13 266.29 L 112.64 266.00 L 111.15 265.71 L 109.67 265.40 L 108.19 265.09 L 106.72 264.75 L 105.25 264.41 L 103.79 264.05 L 102.32 263.66 L 100.87 263.25 L 99.41 262.83 L 97.97 262.38 L 96.53 261.91 L 95.09 261.42 L 93.67 260.91 L 92.25 260.38 L 90.84 259.84 L 89.44 259.26 L 88.05 258.67 L 86.67 258.06 L 85.30 257.43 L 83.94 256.78 L 82.58 256.12 L 81.23 255.43 L 79.90 254.72 L 78.56 254.00 L 77.25 253.25 L 75.94 252.49 L 74.64 251.72 L 73.36 250.92 L 72.08 250.11 L 70.82 249.27 L 69.58 248.42 L 68.35 247.55 L 67.13 246.66 L 65.92 245.76 L 64.73 244.83 L 63.54 243.89 L 62.37 242.93 L 61.21 241.96 L 60.06 240.97 L 58.94 239.96 L 57.82 238.94 L 56.71 237.90 L 55.63 236.85 L 54.56 235.78 L 53.50 234.70 L 52.47 233.60 L 51.45 232.49 L 50.45 231.36 L 49.46 230.22 L 48.49 229.07 L 47.53 227.90 L 46.59 226.72 L 45.66 225.52 L 44.75 224.31 L 43.86 223.09 L 42.99 221.85 L 42.13 220.61 L 41.30 219.34 L 40.47 218.07 L 39.67 216.79 L 38.89 215.49 L 38.13 214.19 L 37.39 212.88 L 36.66 211.55 L 35.96 210.22 L 35.28 208.88 L 34.61 207.53 L 33.96 206.16 L 33.33 204.78 L 32.72 203.40 L 32.13 202.00 L 31.55 200.60 L 31.00 199.19 L 30.47 197.78 L 29.95 196.36 L 29.47 194.93 L 29.00 193.49 L 28.54 192.05 L 28.12 190.61 L 27.71 189.16 L 27.32 187.70 L 26.95 186.23 L 26.61 184.75 L 26.29 183.27 L 25.99 181.79 L 25.71 180.30 L 25.45 178.81 L 25.22 177.32 L 25.00 175.82 L 24.81 174.33 L 24.63 172.83 L 24.48 171.32 L 24.34 169.82 L 24.23 168.31 L 24.14 166.81 L 24.07 165.30 L 24.03 163.78 L 24.00 162.27 L 24.00 160.76 L 24.02 159.25 L 24.06 157.74 L 24.11 156.23 L 24.20 154.72 L 24.30 153.21 L 24.42 151.71 L 24.57 150.20 L 24.74 148.70 L 24.92 147.20 L 25.14 145.71 L 25.37 144.21 L 25.62 142.72 L 25.90 141.24 L 26.19 139.76 L 26.50 138.28 L 26.84 136.80 L 27.20 135.33 L 27.58 133.87 L 27.98 132.42 L 28.40 130.96 L 28.84 129.52 L 29.31 128.08 L 29.79 126.65 L 30.29 125.22 L 30.82 123.80 L 31.36 122.39 L 31.92 120.99 L 32.51 119.60 L 33.11 118.21 L 33.73 116.83 L 34.38 115.46 L 35.04 114.11 L 35.72 112.76 L 36.42 111.42 L 37.14 110.08 L 37.88 108.77 L 38.64 107.46 L 39.41 106.16 L 40.20 104.88 L 41.01 103.60 L 41.84 102.34 L 42.68 101.08 L 43.54 99.84 L 44.42 98.62 L 45.32 97.40 L 46.24 96.20 L 47.17 95.02 L 48.12 93.84 L 49.10 92.68 L 50.08 91.53 L 51.08 90.40 L 52.10 89.28 L 53.13 88.18 L 54.18 87.09 L 55.25 86.02 L 56.33 84.96 L 57.42 83.91 L 58.53 82.88 L 59.66 81.87 L 60.79 80.87 L 61.94 79.90 L 63.10 78.93 L 64.28 77.99 L 65.47 77.06 L 66.67 76.15 L 67.88 75.25 L 69.12 74.37 L 70.36 73.51 L 71.61 72.66 L 72.88 71.84 L 74.16 71.03 L 75.45 70.25 L 76.76 69.48 L 78.07 68.73 L 79.40 68.00 L 80.73 67.28 L 82.07 66.59 L 83.42 65.91 L 84.77 65.25 L 86.14 64.61 L 87.52 63.99 L 88.91 63.39 L 90.31 62.82 L 91.71 62.26 L 93.13 61.72 L 94.55 61.21 L 95.98 60.71 L 97.42 60.23 L 98.86 59.78 L 100.30 59.34 L 101.75 58.93 L 103.21 58.53 L 104.67 58.16 L 106.14 57.81 L 107.61 57.48 L 109.09 57.17 L 110.58 56.88 L 112.07 56.61 L 113.56 56.36 L 115.06 56.13 L 116.56 55.93 L 118.06 55.74 L 119.56 55.58 L 121.06 55.44 L 122.56 55.32 L 124.07 55.22 L 125.57 55.14 L 127.09 55.09 L 128.60 55.05 L 130.11 55.04 L 131.63 55.05 L 133.14 55.08 L 134.66 55.13 L 136.16 55.20 L 137.67 55.30 L 139.17 55.41 L 140.67 55.55 L 142.17 55.71 L 143.67 55.89 L 145.17 56.09 L 146.66 56.32 L 148.16 56.56 L 149.65 56.83 L 151.13 57.12 L 152.62 57.43 L 154.09 57.76 L 155.56 58.11 L 157.02 58.48 L 158.48 58.87 L 159.93 59.28 L 161.37 59.71 L 162.81 60.17 L 164.24 60.64 L 165.67 61.14 L 167.10 61.65 L 168.51 62.19 L 169.92 62.74 L 171.33 63.32 L 172.72 63.91 L 174.10 64.52 L 175.47 65.15 L 176.82 65.81 L 178.17 66.48 L 179.51 67.17 L 180.84 67.89 L 182.16 68.62 L 183.48 69.37 L 184.78 70.13 L 186.07 70.92 L 187.36 71.72 L 188.62 72.54 L 189.88 73.39 L 191.13 74.24 L 192.36 75.12 L 193.58 76.01 L 194.79 76.92 L 195.98 77.85 L 197.15 78.79 L 198.32 79.75 L 199.46 80.73 L 200.60 81.73 L 201.72 82.74 L 202.83 83.76 L 203.93 84.80 L 205.01 85.86 L 206.07 86.93 L 207.13 88.02 L 208.16 89.12 L 209.18 90.24 L 210.18 91.37 L 211.17 92.51 L 212.14 93.67 L 213.09 94.84 L 214.03 96.03 L 214.95 97.23 L 215.85 98.44 L 216.73 99.66 L 217.60 100.90 L 218.44 102.15 L 219.27 103.41 L 220.08 104.69 L 220.87 105.97 L 221.64 107.27 L 222.40 108.57 L 223.14 109.89 L 223.86 111.22 L 224.56 112.56 L 225.25 113.91 L 225.92 115.26 L 226.56 116.63 L 227.18 118.00 L 227.79 119.39 L 228.37 120.78 L 228.94 122.18 L 229.49 123.59 L 230.01 125.01 L 230.51 126.43 L 231.00 127.86 L 231.46 129.30 L 231.91 130.75 L 232.33 132.20 L 232.73 133.65 L 233.11 135.11 L 233.47 136.58 L 233.81 138.06 L 234.13 139.53 L 234.43 141.01 L 234.70 142.50 L 234.96 143.99 L 235.19 145.48 L 235.40 146.98 L 235.59 148.48 L 235.77 149.98 L 235.91 151.48 L 236.04 152.99 L 236.15 154.49 L 236.23 156.01 L 236.29 157.52 L 236.33 159.03 L 236.35 160.53 L 236.35 162.04 L 236.33 163.55 L 236.29 165.07 L 236.22 166.58 L 236.14 168.09 L 236.03 169.59 L 235.89 171.10 L 235.74 172.60 L 235.57 174.10 L 235.40 175.60 L 235.20 177.10 L 235.00 178.60 L 234.80 180.10 L 234.60 181.60 L 234.39 183.10 L 234.18 184.60 L 233.96 186.10 L 233.75 187.59 L 233.53 189.09 L 233.32 190.59 L 233.10 192.09 L 232.88 193.59 L 232.67 195.09 L 232.45 196.58 L 232.23 198.08 L 232.02 199.58 L 231.80 201.07 L 231.58 202.56 L 231.37 204.06 L 231.15 205.55 L 230.94 207.04 L 230.72 208.53 L 230.50 210.03 L 230.28 211.52 Z" />
</symbol>
<symbol id="bl3">
<path d="M 486.37 245.83 L 485.82 247.93 L 485.24 250.02 L 484.62 252.09 L 483.96 254.16 L 483.27 256.21 L 482.55 258.26 L 481.77 260.29 L 480.97 262.31 L 480.14 264.31 L 479.27 266.30 L 478.36 268.27 L 477.42 270.22 L 476.45 272.16 L 475.45 274.08 L 474.42 275.98 L 473.35 277.87 L 472.24 279.73 L 471.11 281.58 L 469.93 283.40 L 468.72 285.20 L 467.48 286.98 L 466.21 288.73 L 464.90 290.47 L 463.57 292.19 L 462.20 293.87 L 460.81 295.54 L 459.39 297.18 L 457.94 298.79 L 456.46 300.38 L 454.96 301.94 L 453.43 303.47 L 451.87 304.97 L 450.28 306.45 L 448.66 307.90 L 447.02 309.32 L 445.36 310.72 L 443.68 312.08 L 441.97 313.41 L 440.23 314.72 L 438.47 315.99 L 436.68 317.23 L 434.88 318.43 L 433.06 319.60 L 431.22 320.74 L 429.36 321.85 L 427.47 322.92 L 425.57 323.96 L 423.65 324.97 L 421.71 325.94 L 419.76 326.88 L 417.79 327.79 L 415.80 328.66 L 413.80 329.49 L 411.78 330.29 L 409.74 331.05 L 407.70 331.78 L 405.64 332.47 L 403.58 333.12 L 401.50 333.74 L 399.41 334.32 L 397.31 334.86 L 395.19 335.37 L 393.07 335.84 L 390.95 336.27 L 388.82 336.66 L 386.68 337.01 L 384.53 337.34 L 382.38 337.63 L 380.22 337.90 L 378.07 338.14 L 375.91 338.36 L 373.76 338.57 L 371.60 338.78 L 369.44 338.98 L 367.27 339.17 L 365.10 339.37 L 362.94 339.56 L 360.77 339.75 L 358.61 339.95 L 356.44 340.15 L 354.28 340.34 L 352.12 340.54 L 349.96 340.73 L 347.80 340.93 L 345.64 341.12 L 343.48 341.31 L 341.32 341.51 L 339.15 341.70 L 336.99 341.90 L 334.82 342.10 L 332.66 342.30 L 330.49 342.50 L 328.32 342.71 L 326.16 342.92 L 324.00 343.15 L 321.84 343.40 L 319.69 343.68 L 317.54 344.00 L 315.39 344.35 L 313.26 344.73 L 311.13 345.13 L 309.00 345.54 L 306.87 345.94 L 304.74 346.30 L 302.61 346.58 L 300.47 346.75 L 298.35 346.78 L 296.24 346.62 L 294.16 346.28 L 292.12 345.75 L 290.12 345.06 L 288.15 344.26 L 286.20 343.40 L 284.25 342.52 L 282.29 341.67 L 280.31 340.84 L 278.31 340.07 L 276.30 339.33 L 274.28 338.62 L 272.25 337.92 L 270.21 337.24 L 268.17 336.56 L 266.13 335.88 L 264.09 335.21 L 262.05 334.53 L 260.01 333.85 L 257.97 333.18 L 255.93 332.51 L 253.89 331.85 L 251.84 331.21 L 249.79 330.61 L 247.72 330.06 L 245.64 329.58 L 243.54 329.20 L 241.44 328.91 L 239.32 328.71 L 237.20 328.58 L 235.08 328.47 L 232.96 328.34 L 230.85 328.15 L 228.75 327.86 L 226.66 327.47 L 224.61 326.96 L 222.59 326.33 L 220.61 325.57 L 218.68 324.71 L 216.79 323.74 L 214.95 322.67 L 213.14 321.54 L 211.36 320.36 L 209.60 319.15 L 207.85 317.92 L 206.08 316.70 L 204.30 315.51 L 202.50 314.38 L 200.65 313.34 L 198.75 312.43 L 196.79 311.69 L 194.80 311.17 L 192.78 310.91 L 190.75 310.92 L 188.77 311.23 L 186.86 311.83 L 185.06 312.71 L 183.40 313.85 L 181.93 315.23 L 180.65 316.81 L 179.56 318.55 L 178.63 320.42 L 177.83 322.37 L 177.11 324.37 L 176.41 326.37 L 175.69 328.37 L 174.92 330.34 L 174.08 332.27 L 173.16 334.16 L 172.15 336.00 L 171.05 337.80 L 169.87 339.53 L 168.61 341.21 L 167.27 342.82 L 165.85 344.36 L 164.36 345.84 L 162.80 347.24 L 161.17 348.56 L 159.48 349.80 L 157.73 350.96 L 155.93 352.02 L 154.08 353.00 L 152.18 353.89 L 150.24 354.69 L 148.26 355.39 L 146.26 355.99 L 144.22 356.49 L 142.16 356.90 L 140.09 357.20 L 138.00 357.40 L 135.91 357.51 L 133.81 357.50 L 131.72 357.40 L 129.63 357.19 L 127.56 356.88 L 125.50 356.48 L 123.47 355.97 L 121.46 355.37 L 119.49 354.67 L 117.55 353.87 L 115.66 352.97 L 113.81 351.98 L 112.01 350.91 L 110.26 349.75 L 108.57 348.51 L 106.94 347.18 L 105.38 345.78 L 103.90 344.31 L 102.48 342.76 L 101.14 341.15 L 99.89 339.47 L 98.71 337.73 L 97.62 335.94 L 96.62 334.10 L 95.72 332.21 L 94.90 330.28 L 94.18 328.31 L 93.55 326.30 L 93.03 324.27 L 92.61 322.22 L 92.28 320.15 L 92.07 318.06 L 91.95 315.96 L 91.93 313.85 L 92.03 311.73 L 92.24 309.60 L 92.55 307.47 L 92.97 305.34 L 93.49 303.22 L 94.11 301.12 L 94.83 299.06 L 95.66 297.06 L 96.58 295.10 L 97.59 293.20 L 98.70 291.36 L 99.89 289.58 L 101.18 287.86 L 102.55 286.21 L 104.00 284.63 L 105.53 283.13 L 107.13 281.70 L 108.80 280.36 L 110.53 279.10 L 112.33 277.93 L 114.18 276.85 L 116.08 275.86 L 118.03 274.97 L 120.02 274.18 L 122.05 273.49 L 124.12 272.90 L 126.20 272.41 L 128.31 272.03 L 130.44 271.76 L 132.58 271.58 L 134.72 271.52 L 136.87 271.57 L 139.00 271.72 L 141.13 271.98 L 143.24 272.34 L 145.34 272.80 L 147.41 273.36 L 149.46 274.01 L 151.48 274.75 L 153.48 275.56 L 155.46 276.43 L 157.42 277.33 L 159.38 278.25 L 161.33 279.18 L 163.29 280.09 L 165.27 280.95 L 167.27 281.75 L 169.31 282.44 L 171.37 282.98 L 173.46 283.34 L 175.58 283.49 L 177.71 283.44 L 179.83 283.19 L 181.95 282.78 L 184.05 282.24 L 186.14 281.62 L 188.21 280.94 L 190.28 280.23 L 192.34 279.50 L 194.39 278.76 L 196.43 277.99 L 198.45 277.20 L 200.44 276.35 L 202.38 275.42 L 204.23 274.39 L 205.99 273.22 L 207.63 271.91 L 209.18 270.46 L 210.62 268.89 L 212.00 267.25 L 213.33 265.56 L 214.62 263.83 L 215.90 262.08 L 217.15 260.32 L 218.39 258.54 L 219.60 256.74 L 220.79 254.92 L 221.92 253.07 L 223.00 251.17 L 224.01 249.24 L 224.97 247.28 L 225.86 245.29 L 226.71 243.28 L 227.53 241.26 L 228.33 239.24 L 229.11 237.22 L 229.88 235.19 L 230.66 233.15 L 231.42 231.12 L 232.19 229.08 L 232.96 227.05 L 233.73 225.01 L 234.50 222.98 L 235.26 220.94 L 236.03 218.91 L 236.80 216.87 L 237.57 214.84 L 238.33 212.81 L 239.10 210.78 L 239.87 208.75 L 240.64 206.72 L 241.41 204.69 L 242.17 202.67 L 242.94 200.64 L 243.71 198.61 L 244.48 196.58 L 245.24 194.54 L 246.01 192.51 L 246.78 190.48 L 247.55 188.44 L 248.31 186.41 L 249.08 184.37 L 249.85 182.34 L 250.61 180.31 L 251.38 178.29 L 252.16 176.26 L 252.95 174.24 L 253.76 172.23 L 254.59 170.22 L 255.44 168.22 L 256.31 166.24 L 257.22 164.27 L 258.16 162.32 L 259.13 160.38 L 260.15 158.46 L 261.19 156.56 L 262.27 154.67 L 263.38 152.81 L 264.52 150.96 L 265.70 149.14 L 266.91 147.34 L 268.14 145.56 L 269.41 143.80 L 270.71 142.06 L 272.04 140.35 L 273.40 138.66 L 274.79 137.00 L 276.21 135.36 L 277.66 133.75 L 279.14 132.16 L 280.64 130.60 L 282.18 129.07 L 283.74 127.56 L 285.33 126.08 L 286.94 124.63 L 288.58 123.21 L 290.24 121.82 L 291.92 120.46 L 293.63 119.13 L 295.37 117.83 L 297.13 116.56 L 298.92 115.32 L 300.72 114.11 L 302.54 112.94 L 304.38 111.80 L 306.24 110.69 L 308.12 109.61 L 310.02 108.57 L 311.94 107.56 L 313.88 106.59 L 315.84 105.65 L 317.81 104.74 L 319.80 103.87 L 321.79 103.04 L 323.81 102.24 L 325.84 101.48 L 327.88 100.76 L 329.94 100.07 L 332.01 99.41 L 334.09 98.79 L 336.17 98.21 L 338.27 97.67 L 340.38 97.17 L 342.50 96.70 L 344.63 96.27 L 346.76 95.88 L 348.90 95.53 L 351.04 95.21 L 353.19 94.93 L 355.35 94.69 L 357.51 94.49 L 359.67 94.33 L 361.84 94.20 L 364.00 94.12 L 366.17 94.07 L 368.33 94.07 L 370.50 94.10 L 372.67 94.17 L 374.84 94.27 L 377.00 94.42 L 379.16 94.60 L 381.32 94.82 L 383.47 95.08 L 385.62 95.38 L 387.76 95.71 L 389.90 96.09 L 392.03 96.50 L 394.15 96.95 L 396.26 97.44 L 398.36 97.96 L 400.46 98.52 L 402.55 99.12 L 404.62 99.76 L 406.68 100.43 L 408.73 101.14 L 410.76 101.88 L 412.78 102.66 L 414.79 103.48 L 416.79 104.33 L 418.77 105.22 L 420.73 106.14 L 422.68 107.10 L 424.60 108.09 L 426.51 109.12 L 428.40 110.18 L 430.28 111.28 L 432.14 112.40 L 433.97 113.56 L 435.78 114.75 L 437.57 115.97 L 439.34 117.23 L 441.08 118.51 L 442.81 119.83 L 444.51 121.18 L 446.19 122.55 L 447.84 123.96 L 449.47 125.39 L 451.06 126.86 L 452.63 128.35 L 454.18 129.88 L 455.70 131.42 L 457.19 133.00 L 458.66 134.60 L 460.09 136.23 L 461.50 137.88 L 462.87 139.55 L 464.21 141.25 L 465.52 142.98 L 466.81 144.73 L 468.07 146.50 L 469.29 148.29 L 470.49 150.10 L 471.65 151.93 L 472.78 153.79 L 473.87 155.66 L 474.94 157.55 L 475.96 159.47 L 476.95 161.39 L 477.92 163.34 L 478.84 165.30 L 479.72 167.28 L 480.58 169.28 L 481.40 171.28 L 482.18 173.30 L 482.93 175.34 L 483.64 177.39 L 484.31 179.45 L 484.95 181.53 L 485.55 183.62 L 486.11 185.72 L 486.63 187.82 L 487.12 189.93 L 487.57 192.05 L 487.98 194.18 L 488.36 196.32 L 488.69 198.46 L 488.99 200.61 L 489.25 202.77 L 489.47 204.92 L 489.66 207.08 L 489.80 209.24 L 489.91 211.41 L 489.97 213.58 L 490.00 215.76 L 489.99 217.93 L 489.94 220.09 L 489.85 222.26 L 489.73 224.42 L 489.56 226.58 L 489.36 228.75 L 489.12 230.91 L 488.84 233.06 L 488.52 235.20 L 488.17 237.34 L 487.78 239.47 L 487.34 241.59 L 486.87 243.71 Z" />
</symbol>
<symbol id="bl4">
<path d="M 342.49 380.04 L 342.21 380.51 L 341.91 380.97 L 341.61 381.42 L 341.29 381.87 L 340.97 382.31 L 340.63 382.75 L 340.28 383.17 L 339.92 383.59 L 339.55 384.00 L 339.18 384.40 L 338.79 384.79 L 338.40 385.17 L 337.99 385.54 L 337.58 385.91 L 337.16 386.26 L 336.73 386.60 L 336.30 386.94 L 335.86 387.26 L 335.41 387.57 L 334.95 387.87 L 334.49 388.17 L 334.02 388.45 L 333.54 388.72 L 333.06 388.99 L 332.57 389.24 L 332.07 389.48 L 331.58 389.72 L 331.07 389.93 L 330.56 390.14 L 330.05 390.34 L 329.53 390.52 L 329.01 390.69 L 328.49 390.86 L 327.97 391.00 L 327.44 391.14 L 326.91 391.27 L 326.37 391.38 L 325.84 391.48 L 325.30 391.57 L 324.75 391.64 L 324.20 391.70 L 323.65 391.76 L 323.11 391.79 L 322.56 391.82 L 322.01 391.83 L 321.46 391.83 L 320.91 391.82 L 320.36 391.80 L 319.81 391.76 L 319.26 391.72 L 318.71 391.66 L 318.17 391.58 L 317.62 391.49 L 317.08 391.40 L 316.54 391.29 L 316.00 391.17 L 315.47 391.03 L 314.95 390.89 L 314.42 390.73 L 313.91 390.56 L 313.39 390.38 L 312.88 390.19 L 312.38 389.98 L 311.87 389.77 L 311.37 389.55 L 310.88 389.31 L 310.39 389.06 L 309.91 388.81 L 309.43 388.54 L 308.96 388.26 L 308.49 387.97 L 308.03 387.66 L 307.58 387.35 L 307.14 387.02 L 306.70 386.69 L 306.27 386.34 L 305.85 385.99 L 305.44 385.63 L 305.03 385.25 L 304.64 384.87 L 304.25 384.48 L 303.87 384.08 L 303.50 383.67 L 303.14 383.26 L 302.79 382.83 L 302.45 382.40 L 302.12 381.96 L 301.80 381.51 L 301.49 381.06 L 301.19 380.60 L 300.90 380.13 L 300.63 379.65 L 300.36 379.17 L 300.11 378.69 L 299.87 378.19 L 299.64 377.70 L 299.42 377.20 L 299.21 376.69 L 299.01 376.18 L 298.82 375.67 L 298.64 375.16 L 298.48 374.64 L 298.33 374.11 L 298.18 373.59 L 298.05 373.05 L 297.94 372.52 L 297.83 371.98 L 297.74 371.44 L 297.66 370.89 L 297.59 370.35 L 297.53 369.80 L 297.49 369.25 L 297.46 368.70 L 297.44 368.15 L 297.43 367.60 L 297.42 367.05 L 297.43 366.50 L 297.45 365.95 L 297.47 365.40 L 297.49 364.85 L 297.50 364.30 L 297.51 363.75 L 297.51 363.20 L 297.49 362.66 L 297.46 362.11 L 297.42 361.56 L 297.36 361.01 L 297.29 360.47 L 297.22 359.92 L 297.12 359.38 L 297.02 358.85 L 296.91 358.31 L 296.78 357.78 L 296.64 357.26 L 296.49 356.74 L 296.33 356.22 L 296.16 355.70 L 295.97 355.19 L 295.77 354.68 L 295.56 354.18 L 295.34 353.68 L 295.11 353.19 L 294.87 352.69 L 294.62 352.21 L 294.35 351.73 L 294.07 351.26 L 293.79 350.78 L 293.49 350.33 L 293.18 349.87 L 292.87 349.42 L 292.54 348.98 L 292.20 348.55 L 291.85 348.13 L 291.50 347.71 L 291.13 347.30 L 290.76 346.90 L 290.37 346.51 L 289.98 346.13 L 289.58 345.75 L 289.17 345.39 L 288.75 345.04 L 288.33 344.69 L 287.90 344.36 L 287.46 344.03 L 287.03 343.71 L 286.58 343.40 L 286.13 343.09 L 285.68 342.78 L 285.22 342.48 L 284.76 342.17 L 284.31 341.87 L 283.85 341.57 L 283.39 341.26 L 282.93 340.96 L 282.47 340.66 L 282.01 340.36 L 281.55 340.06 L 281.10 339.76 L 280.64 339.46 L 280.18 339.17 L 279.72 338.87 L 279.26 338.57 L 278.80 338.27 L 278.35 337.97 L 277.89 337.68 L 277.43 337.38 L 276.97 337.08 L 276.51 336.79 L 276.05 336.49 L 275.60 336.19 L 275.14 335.89 L 274.68 335.60 L 274.22 335.30 L 273.76 335.00 L 273.31 334.70 L 272.85 334.40 L 272.39 334.11 L 271.93 333.81 L 271.47 333.51 L 271.01 333.21 L 270.56 332.91 L 270.10 332.60 L 269.64 332.30 L 269.18 332.00 L 268.72 331.70 L 268.27 331.39 L 267.82 331.08 L 267.37 330.78 L 266.92 330.47 L 266.48 330.15 L 266.04 329.82 L 265.61 329.47 L 265.20 329.11 L 264.80 328.74 L 264.41 328.36 L 264.04 327.96 L 263.69 327.55 L 263.35 327.13 L 263.02 326.69 L 262.72 326.24 L 262.44 325.78 L 262.17 325.31 L 261.93 324.82 L 261.70 324.32 L 261.50 323.81 L 261.32 323.29 L 261.15 322.77 L 261.01 322.24 L 260.89 321.71 L 260.80 321.18 L 260.72 320.64 L 260.67 320.10 L 260.64 319.56 L 260.64 319.02 L 260.66 318.48 L 260.70 317.93 L 260.76 317.38 L 260.84 316.84 L 260.95 316.30 L 261.08 315.77 L 261.23 315.25 L 261.40 314.74 L 261.59 314.23 L 261.81 313.73 L 262.04 313.24 L 262.30 312.76 L 262.57 312.28 L 262.87 311.82 L 263.18 311.36 L 263.52 310.93 L 263.87 310.50 L 264.23 310.09 L 264.62 309.69 L 265.02 309.32 L 265.43 308.96 L 265.86 308.62 L 266.30 308.30 L 266.75 308.00 L 267.22 307.72 L 267.70 307.45 L 268.19 307.21 L 268.70 306.98 L 269.21 306.78 L 269.73 306.59 L 270.26 306.43 L 270.79 306.30 L 271.32 306.18 L 271.86 306.08 L 272.40 306.01 L 272.94 305.96 L 273.49 305.94 L 274.04 305.93 L 274.60 305.95 L 275.15 305.99 L 275.69 306.06 L 276.24 306.14 L 276.78 306.26 L 277.31 306.39 L 277.83 306.54 L 278.35 306.72 L 278.86 306.92 L 279.36 307.13 L 279.85 307.37 L 280.34 307.63 L 280.82 307.91 L 281.28 308.21 L 281.73 308.52 L 282.17 308.85 L 282.58 309.20 L 282.99 309.57 L 283.37 309.96 L 283.74 310.37 L 284.09 310.79 L 284.43 311.22 L 284.75 311.67 L 285.05 312.14 L 285.33 312.61 L 285.59 313.09 L 285.84 313.58 L 286.06 314.08 L 286.26 314.59 L 286.44 315.11 L 286.60 315.63 L 286.73 316.16 L 286.84 316.70 L 286.93 317.25 L 287.00 317.80 L 287.04 318.35 L 287.07 318.90 L 287.06 319.45 L 287.04 319.99 L 286.99 320.53 L 286.92 321.08 L 286.83 321.61 L 286.72 322.15 L 286.58 322.68 L 286.42 323.21 L 286.24 323.74 L 286.04 324.25 L 285.82 324.76 L 285.59 325.26 L 285.34 325.76 L 285.09 326.26 L 284.85 326.75 L 284.61 327.25 L 284.39 327.75 L 284.19 328.25 L 284.00 328.77 L 283.83 329.29 L 283.68 329.82 L 283.55 330.36 L 283.44 330.90 L 283.35 331.44 L 283.28 331.99 L 283.23 332.53 L 283.20 333.07 L 283.20 333.62 L 283.22 334.16 L 283.25 334.70 L 283.31 335.25 L 283.39 335.79 L 283.48 336.33 L 283.61 336.86 L 283.75 337.40 L 283.91 337.93 L 284.09 338.45 L 284.28 338.96 L 284.50 339.46 L 284.74 339.95 L 284.99 340.43 L 285.26 340.90 L 285.55 341.36 L 285.85 341.81 L 286.18 342.25 L 286.52 342.68 L 286.88 343.09 L 287.25 343.50 L 287.64 343.88 L 288.05 344.26 L 288.47 344.61 L 288.90 344.95 L 289.35 345.28 L 289.80 345.58 L 290.27 345.87 L 290.75 346.14 L 291.23 346.39 L 291.72 346.63 L 292.22 346.84 L 292.73 347.03 L 293.25 347.20 L 293.77 347.36 L 294.31 347.49 L 294.85 347.60 L 295.39 347.69 L 295.93 347.76 L 296.48 347.81 L 297.03 347.84 L 297.58 347.86 L 298.13 347.85 L 298.68 347.82 L 299.22 347.77 L 299.76 347.70 L 300.30 347.61 L 300.84 347.52 L 301.38 347.41 L 301.92 347.30 L 302.46 347.17 L 302.99 347.05 L 303.53 346.92 L 304.06 346.79 L 304.60 346.66 L 305.13 346.53 L 305.66 346.41 L 306.20 346.28 L 306.73 346.15 L 307.26 346.02 L 307.80 345.90 L 308.33 345.77 L 308.86 345.64 L 309.40 345.51 L 309.93 345.39 L 310.46 345.26 L 311.00 345.13 L 311.53 345.00 L 312.06 344.88 L 312.60 344.75 L 313.13 344.62 L 313.67 344.49 L 314.21 344.37 L 314.74 344.25 L 315.28 344.13 L 315.81 344.01 L 316.35 343.90 L 316.89 343.78 L 317.43 343.68 L 317.97 343.60 L 318.52 343.52 L 319.07 343.45 L 319.61 343.40 L 320.16 343.36 L 320.71 343.33 L 321.26 343.32 L 321.81 343.31 L 322.36 343.32 L 322.91 343.34 L 323.46 343.38 L 324.01 343.42 L 324.56 343.48 L 325.11 343.55 L 325.65 343.64 L 326.19 343.73 L 326.73 343.84 L 327.26 343.96 L 327.80 344.09 L 328.33 344.24 L 328.85 344.39 L 329.38 344.56 L 329.89 344.74 L 330.40 344.93 L 330.91 345.14 L 331.41 345.35 L 331.91 345.58 L 332.40 345.82 L 332.89 346.06 L 333.37 346.33 L 333.85 346.60 L 334.32 346.88 L 334.79 347.17 L 335.25 347.48 L 335.70 347.79 L 336.14 348.11 L 336.58 348.45 L 337.01 348.79 L 337.43 349.14 L 337.85 349.50 L 338.25 349.87 L 338.65 350.25 L 339.04 350.64 L 339.42 351.04 L 339.79 351.44 L 340.15 351.86 L 340.50 352.28 L 340.85 352.71 L 341.18 353.15 L 341.50 353.60 L 341.81 354.05 L 342.11 354.51 L 342.41 354.97 L 342.69 355.44 L 342.95 355.91 L 343.21 356.39 L 343.46 356.88 L 343.69 357.37 L 343.91 357.87 L 344.12 358.37 L 344.32 358.89 L 344.51 359.40 L 344.69 359.92 L 344.85 360.45 L 345.01 360.97 L 345.15 361.50 L 345.28 362.04 L 345.40 362.58 L 345.50 363.12 L 345.60 363.66 L 345.68 364.20 L 345.75 364.75 L 345.81 365.29 L 345.86 365.84 L 345.89 366.39 L 345.91 366.94 L 345.92 367.49 L 345.92 368.04 L 345.90 368.59 L 345.87 369.14 L 345.83 369.68 L 345.77 370.23 L 345.71 370.77 L 345.63 371.31 L 345.54 371.85 L 345.44 372.38 L 345.32 372.92 L 345.20 373.45 L 345.06 373.98 L 344.91 374.51 L 344.74 375.03 L 344.57 375.56 L 344.38 376.07 L 344.18 376.58 L 343.97 377.09 L 343.75 377.59 L 343.52 378.09 L 343.28 378.59 L 343.03 379.08 L 342.77 379.56 Z" />
</symbol>
<symbol id="bl5">
<path d="M 282.31 329.10 L 282.94 328.54 L 283.54 327.94 L 284.11 327.32 L 284.67 326.68 L 285.20 326.02 L 285.73 325.36 L 286.28 324.71 L 286.84 324.08 L 287.43 323.48 L 288.04 322.91 L 288.68 322.37 L 289.35 321.86 L 290.06 321.40 L 290.79 320.99 L 291.53 320.61 L 292.30 320.28 L 293.09 319.99 L 293.89 319.75 L 294.71 319.55 L 295.53 319.41 L 296.36 319.31 L 297.20 319.27 L 298.04 319.27 L 298.87 319.32 L 299.70 319.43 L 300.53 319.58 L 301.35 319.79 L 302.15 320.04 L 302.94 320.35 L 303.72 320.70 L 304.48 321.10 L 305.21 321.54 L 305.92 322.02 L 306.60 322.55 L 307.24 323.10 L 307.84 323.69 L 308.41 324.31 L 308.93 324.96 L 309.42 325.64 L 309.86 326.35 L 310.26 327.09 L 310.61 327.84 L 310.92 328.62 L 311.18 329.42 L 311.40 330.23 L 311.56 331.05 L 311.68 331.88 L 311.76 332.71 L 311.78 333.54 L 311.75 334.38 L 311.67 335.21 L 311.55 336.04 L 311.37 336.85 L 311.15 337.66 L 310.89 338.46 L 310.59 339.24 L 310.24 340.01 L 309.86 340.76 L 309.45 341.50 L 309.03 342.23 L 308.59 342.95 L 308.14 343.66 L 307.68 344.37 L 307.23 345.09 L 306.77 345.80 L 306.32 346.52 L 305.87 347.23 L 305.41 347.94 L 304.96 348.65 L 304.50 349.37 L 304.05 350.08 L 303.59 350.80 L 303.13 351.51 L 302.68 352.23 L 302.22 352.95 L 301.77 353.67 L 301.34 354.40 L 300.91 355.13 L 300.51 355.87 L 300.12 356.62 L 299.76 357.38 L 299.42 358.16 L 299.10 358.94 L 298.81 359.74 L 298.55 360.54 L 298.32 361.36 L 298.11 362.17 L 297.93 362.99 L 297.76 363.82 L 297.62 364.65 L 297.48 365.49 L 297.35 366.33 L 297.21 367.16 L 297.05 367.99 L 296.87 368.81 L 296.67 369.63 L 296.45 370.44 L 296.19 371.25 L 295.92 372.05 L 295.61 372.84 L 295.28 373.62 L 294.92 374.38 L 294.53 375.13 L 294.12 375.86 L 293.69 376.58 L 293.23 377.28 L 292.75 377.97 L 292.24 378.64 L 291.71 379.29 L 291.16 379.93 L 290.58 380.55 L 289.97 381.15 L 289.35 381.72 L 288.71 382.27 L 288.05 382.80 L 287.37 383.31 L 286.68 383.78 L 285.98 384.24 L 285.26 384.67 L 284.52 385.07 L 283.77 385.45 L 283.01 385.80 L 282.23 386.13 L 281.44 386.43 L 280.64 386.70 L 279.83 386.95 L 279.02 387.16 L 278.20 387.35 L 277.37 387.51 L 276.54 387.64 L 275.71 387.74 L 274.87 387.82 L 274.02 387.86 L 273.18 387.87 L 272.33 387.86 L 271.48 387.81 L 270.65 387.73 L 269.81 387.63 L 268.99 387.50 L 268.16 387.33 L 267.34 387.14 L 266.53 386.92 L 265.72 386.67 L 264.92 386.40 L 264.13 386.09 L 263.35 385.76 L 262.59 385.41 L 261.84 385.03 L 261.11 384.62 L 260.39 384.19 L 259.69 383.73 L 259.00 383.25 L 258.32 382.74 L 257.67 382.20 L 257.03 381.65 L 256.41 381.07 L 255.80 380.49 L 255.21 379.88 L 254.63 379.27 L 254.06 378.64 L 253.50 378.01 L 252.93 377.38 L 252.37 376.74 L 251.82 376.10 L 251.26 375.46 L 250.70 374.82 L 250.15 374.18 L 249.60 373.54 L 249.04 372.90 L 248.49 372.26 L 247.94 371.62 L 247.39 370.98 L 246.84 370.34 L 246.28 369.70 L 245.73 369.05 L 245.18 368.41 L 244.63 367.77 L 244.08 367.13 L 243.53 366.49 L 242.98 365.85 L 242.43 365.21 L 241.88 364.57 L 241.32 363.93 L 240.77 363.29 L 240.21 362.65 L 239.66 362.01 L 239.10 361.37 L 238.54 360.73 L 237.99 360.09 L 237.42 359.46 L 236.86 358.83 L 236.30 358.20 L 235.73 357.57 L 235.17 356.95 L 234.59 356.32 L 233.99 355.70 L 233.38 355.09 L 232.76 354.46 L 232.12 353.81 L 231.47 353.13 L 230.79 352.41 L 230.11 351.63 L 229.42 350.80 L 228.75 349.91 L 228.08 348.98 L 227.43 348.02 L 226.78 347.05 L 226.14 346.07 L 225.51 345.08 L 224.87 344.10 L 224.24 343.11 L 223.60 342.13 L 222.96 341.14 L 222.33 340.15 L 221.69 339.17 L 221.06 338.18 L 220.42 337.19 L 219.79 336.20 L 219.16 335.21 L 218.52 334.22 L 217.89 333.23 L 217.26 332.24 L 216.62 331.25 L 215.99 330.26 L 215.36 329.26 L 214.72 328.28 L 214.08 327.29 L 213.45 326.29 L 212.81 325.30 L 212.18 324.31 L 211.54 323.32 L 210.91 322.33 L 210.27 321.34 L 209.64 320.35 L 209.01 319.36 L 208.37 318.37 L 207.74 317.38 L 207.12 316.38 L 206.49 315.38 L 205.88 314.38 L 205.27 313.37 L 204.69 312.36 L 204.12 311.33 L 203.58 310.29 L 203.07 309.24 L 202.59 308.16 L 202.13 307.08 L 201.69 305.99 L 201.27 304.89 L 200.87 303.79 L 200.46 302.68 L 200.06 301.57 L 199.67 300.46 L 199.28 299.35 L 198.88 298.24 L 198.49 297.13 L 198.10 296.02 L 197.71 294.91 L 197.32 293.80 L 196.93 292.69 L 196.53 291.58 L 196.14 290.47 L 195.75 289.36 L 195.36 288.25 L 194.97 287.14 L 194.58 286.03 L 194.19 284.92 L 193.80 283.81 L 193.41 282.70 L 193.02 281.59 L 192.63 280.48 L 192.24 279.37 L 191.85 278.27 L 191.46 277.16 L 191.07 276.06 L 190.69 274.96 L 190.31 273.86 L 189.93 272.78 L 189.57 271.71 L 189.23 270.66 L 188.91 269.65 L 188.62 268.66 L 188.38 267.70 L 188.19 266.75 L 188.05 265.81 L 187.98 264.85 L 187.98 263.89 L 188.06 262.93 L 188.22 261.98 L 188.46 261.03 L 188.77 260.10 L 189.14 259.19 L 189.58 258.30 L 190.05 257.43 L 190.56 256.59 L 191.10 255.75 L 191.65 254.92 L 192.21 254.10 L 192.78 253.29 L 193.35 252.48 L 193.92 251.66 L 194.49 250.85 L 195.06 250.04 L 195.64 249.22 L 196.21 248.41 L 196.79 247.59 L 197.36 246.78 L 197.94 245.97 L 198.52 245.15 L 199.09 244.34 L 199.67 243.53 L 200.24 242.71 L 200.82 241.90 L 201.40 241.10 L 201.98 240.31 L 202.56 239.53 L 203.15 238.79 L 203.74 238.08 L 204.34 237.41 L 204.97 236.78 L 205.62 236.20 L 206.31 235.65 L 207.05 235.14 L 207.84 234.69 L 208.66 234.28 L 209.53 233.94 L 210.42 233.67 L 211.34 233.47 L 212.27 233.34 L 213.21 233.29 L 214.15 233.31 L 215.09 233.41 L 216.01 233.58 L 216.92 233.82 L 217.81 234.14 L 218.67 234.53 L 219.49 234.99 L 220.27 235.50 L 221.02 236.08 L 221.71 236.72 L 222.35 237.42 L 222.93 238.16 L 223.45 238.94 L 223.91 239.77 L 224.30 240.62 L 224.62 241.51 L 224.86 242.42 L 225.04 243.34 L 225.14 244.27 L 225.16 245.22 L 225.11 246.16 L 224.98 247.09 L 224.79 248.02 L 224.52 248.93 L 224.20 249.82 L 223.81 250.69 L 223.37 251.53 L 222.90 252.36 L 222.39 253.17 L 221.87 253.98 L 221.33 254.77 L 220.79 255.56 L 220.24 256.34 L 219.69 257.13 L 219.13 257.92 L 218.58 258.70 L 218.02 259.49 L 217.47 260.27 L 216.92 261.05 L 216.36 261.84 L 215.81 262.62 L 215.25 263.40 L 214.70 264.19 L 214.15 264.97 L 213.59 265.76 L 213.04 266.54 L 212.49 267.33 L 211.93 268.11 L 211.36 268.90 L 210.79 269.68 L 210.21 270.46 L 209.62 271.22 L 209.03 271.98 L 208.43 272.72 L 207.84 273.46 L 207.26 274.18 L 206.69 274.91 L 206.16 275.64 L 205.65 276.37 L 205.16 277.11 L 204.69 277.87 L 204.24 278.64 L 203.82 279.42 L 203.41 280.21 L 203.03 281.02 L 202.66 281.83 L 202.32 282.65 L 202.00 283.48 L 201.70 284.32 L 201.43 285.16 L 201.18 286.02 L 200.95 286.88 L 200.74 287.74 L 200.55 288.61 L 200.39 289.48 L 200.25 290.35 L 200.14 291.23 L 200.05 292.11 L 199.98 292.99 L 199.93 293.88 L 199.91 294.77 L 199.91 295.66 L 199.94 296.55 L 199.99 297.44 L 200.06 298.33 L 200.16 299.21 L 200.28 300.09 L 200.42 300.97 L 200.59 301.84 L 200.78 302.70 L 200.99 303.56 L 201.23 304.41 L 201.49 305.26 L 201.76 306.10 L 202.07 306.94 L 202.39 307.77 L 202.74 308.59 L 203.11 309.40 L 203.50 310.20 L 203.90 310.99 L 204.34 311.76 L 204.79 312.53 L 205.26 313.29 L 205.75 314.03 L 206.26 314.76 L 206.79 315.47 L 207.34 316.16 L 207.91 316.84 L 208.49 317.51 L 209.09 318.16 L 209.70 318.79 L 210.33 319.41 L 210.98 320.02 L 211.64 320.61 L 212.32 321.18 L 213.02 321.73 L 213.73 322.26 L 214.46 322.78 L 215.20 323.27 L 215.95 323.74 L 216.71 324.20 L 217.49 324.63 L 218.28 325.05 L 219.08 325.44 L 219.89 325.81 L 220.70 326.17 L 221.53 326.50 L 222.36 326.80 L 223.19 327.09 L 224.04 327.35 L 224.89 327.59 L 225.75 327.80 L 226.61 328.00 L 227.49 328.17 L 228.37 328.31 L 229.24 328.44 L 230.13 328.54 L 231.02 328.62 L 231.91 328.67 L 232.80 328.70 L 233.69 328.71 L 234.58 328.69 L 235.47 328.65 L 236.36 328.59 L 237.25 328.52 L 238.13 328.44 L 239.02 328.37 L 239.90 328.31 L 240.78 328.28 L 241.64 328.28 L 242.50 328.31 L 243.35 328.37 L 244.20 328.45 L 245.04 328.55 L 245.89 328.65 L 246.74 328.77 L 247.58 328.89 L 248.43 329.00 L 249.27 329.12 L 250.11 329.24 L 250.96 329.36 L 251.80 329.48 L 252.64 329.60 L 253.49 329.71 L 254.33 329.83 L 255.18 329.95 L 256.02 330.07 L 256.87 330.19 L 257.71 330.30 L 258.56 330.42 L 259.41 330.54 L 260.25 330.66 L 261.10 330.78 L 261.94 330.89 L 262.79 331.01 L 263.64 331.13 L 264.48 331.25 L 265.33 331.36 L 266.17 331.48 L 267.02 331.59 L 267.86 331.70 L 268.71 331.81 L 269.55 331.93 L 270.40 332.03 L 271.24 332.12 L 272.09 332.19 L 272.94 332.22 L 273.79 332.23 L 274.63 332.19 L 275.47 332.10 L 276.30 331.97 L 277.13 331.78 L 277.93 331.54 L 278.72 331.25 L 279.49 330.91 L 280.24 330.52 L 280.96 330.09 L 281.65 329.62 Z" />
</symbol>
</defs>
<!-- isDone: 0 -->
<rect width="700" height="500" style="fill:#fff;stroke-width:0" />
<use class="p0 borderLine" xlink:href="#bl0"/>
<use class="p1 borderLine" xlink:href="#bl1"/>
<use class="p2 borderLine" xlink:href="#bl2"/>
<use class="p3 borderLine" xlink:href="#bl3"/>
<use class="p4 borderLine" xlink:href="#bl4"/>
<use class="p5 borderLine" xlink:href="#bl5"/>
<use class="q0 outLine" xlink:href="#bl0"/>
<use class="q1 outLine" xlink:href="#bl1"/>
<use class="q2 outLine" xlink:href="#bl2"/>
<use class="q3 outLine" xlink:href="#bl3"/>
<use class="q4 outLine" xlink:href="#bl4"/>
<use class="q5 outLine" xlink:href="#bl5"/>
<circle onclick="fromCircle(32)" class="circle" cx="196.0943" cy="392.3731" r="44.5559" />
<text class="nLabel" x="196.09" y="387.37">153</text>
<text class="belong" x="196.09" y="397.37">(1)</text>
<circle onclick="fromCircle(16)" class="circle" cx="51.8900" cy="294.4690" r="33.9824" />
<text class="nLabel" x="51.89" y="289.47">89</text>
<text class="belong" x="51.89" y="299.47">(2)</text>
<circle onclick="fromCircle(24)" class="circle" cx="191.6135" cy="323.8573" r="6.2391" />
<text class="nLabel" x="191.61" y="318.86">3</text>
<text class="belong" x="191.61" y="328.86">(2, 3)</text>
<circle onclick="fromCircle(20)" class="circle" cx="134.8427" cy="314.5069" r="35.2935" />
<text class="nLabel" x="134.84" y="309.51">96</text>
<text class="belong" x="134.84" y="319.51">(2, 4)</text>
<circle onclick="fromCircle(8)" class="circle" cx="130.0477" cy="161.0151" r="98.1870" />
<text class="nLabel" x="130.05" y="156.02">743</text>
<text class="belong" x="130.05" y="166.02">(3)</text>
<circle onclick="fromCircle(40)" class="circle" cx="175.6620" cy="271.5446" r="5.0942" />
<text class="nLabel" x="175.66" y="266.54">2</text>
<text class="belong" x="175.66" y="276.54">(1, 3)</text>
<circle onclick="fromCircle(9)" class="circle" cx="213.3948" cy="245.0137" r="3.8992" />
<text class="nLabel" x="213.39" y="240.01">1</text>
<text class="belong" x="213.39" y="250.01">(3, 6)</text>
<circle onclick="fromCircle(41)" class="circle" cx="199.6893" cy="264.4460" r="3.8992" />
<text class="nLabel" x="199.69" y="259.45">1</text>
<text class="belong" x="199.69" y="269.45">(1, 3, 6)</text>
<circle onclick="fromCircle(4)" class="circle" cx="368.0241" cy="216.1397" r="114.3073" />
<text class="nLabel" x="368.02" y="211.14">1007</text>
<text class="belong" x="368.02" y="221.14">(4)</text>
<circle onclick="fromCircle(36)" class="circle" cx="233.5014" cy="295.1148" r="25.4709" />
<text class="nLabel" x="233.50" y="290.11">50</text>
<text class="belong" x="233.50" y="300.11">(1, 4)</text>
<circle onclick="fromCircle(6)" class="circle" cx="273.8921" cy="319.1478" r="5.0942" />
<text class="nLabel" x="273.89" y="314.15">2</text>
<text class="belong" x="273.89" y="324.15">(4, 5)</text>
<circle onclick="fromCircle(5)" class="circle" cx="297.6107" cy="333.5105" r="6.2391" />
<text class="nLabel" x="297.61" y="328.51">3</text>
<text class="belong" x="297.61" y="338.51">(4, 6)</text>
<circle onclick="fromCircle(2)" class="circle" cx="321.7638" cy="367.6369" r="16.1092" />
<text class="nLabel" x="321.76" y="362.64">20</text>
<text class="belong" x="321.76" y="372.64">(5)</text>
<circle onclick="fromCircle(1)" class="circle" cx="273.2746" cy="363.7335" r="16.1092" />
<text class="nLabel" x="273.27" y="358.73">20</text>
<text class="belong" x="273.27" y="368.73">(6)</text>
<circle onclick="fromCircle(33)" class="circle" cx="241.0057" cy="342.5581" r="6.2391" />
<text class="nLabel" x="241.01" y="337.56">3</text>
<text class="belong" x="241.01" y="347.56">(1, 6)</text>
<g id="legendBox">
<rect class="p0 borderLine" x="500.00" y="50.00" width="30.00" height="15.00" />
<rect class="q0" x="500.00" y="50.00" width="30.00" height="15.00" />
<text class="legend" x="540.00" y="65.00">TMS DOWN</text>
<rect class="p1 borderLine" x="500.00" y="90.00" width="30.00" height="15.00" />
<rect class="q1" x="500.00" y="90.00" width="30.00" height="15.00" />
<text class="legend" x="540.00" y="105.00">TMS UP</text>
<rect class="p2 borderLine" x="500.00" y="130.00" width="30.00" height="15.00" />
<rect class="q2" x="500.00" y="130.00" width="30.00" height="15.00" />
<text class="legend" x="540.00" y="145.00">Zhou DOWN</text>
<rect class="p3 borderLine" x="500.00" y="170.00" width="30.00" height="15.00" />
<rect class="q3" x="500.00" y="170.00" width="30.00" height="15.00" />
<text class="legend" x="540.00" y="185.00">Zhou UP</text>
<rect class="p4 borderLine" x="500.00" y="210.00" width="30.00" height="15.00" />
<rect class="q4" x="500.00" y="210.00" width="30.00" height="15.00" />
<text class="legend" x="540.00" y="225.00">Srivastava DOWN</text>
<rect class="p5 borderLine" x="500.00" y="250.00" width="30.00" height="15.00" />
<rect class="q5" x="500.00" y="250.00" width="30.00" height="15.00" />
<text class="legend" x="540.00" y="265.00">Srivastava UP</text>
</g>
</svg>
