<svg xmlns="http://www.w3.org/2000/svg" xmlns:xlink="http://www.w3.org/1999/xlink" width="700" height="500">
<defs>
<style type="text/css"><![CDATA[
  .borderLine {
	   stroke: none;
	   fill-opacity:  0.4 ;
  }
  .outLine {
	   stroke-width:  1 ;
	   fill: none;
  }
  .circle {
	   stroke: #888888;
	   stroke-width: 0.5;
	   fill: none;
    pointer-events: all;
  }
  .nLabel {
	   font-family: Arial;
    pointer-events: none;
	   font-size: 10px;
	   text-anchor: middle;
	   alignment-baseline: central;
  }
  .belong {
	   font-family: Arial;
    pointer-events: none;
	   font-size: 5px;
	   text-anchor: middle;
	   alignment-baseline: central;
  }
  .legend {
    font-family: Arial;
    font-size: 15px;
  }
  #legendBox {
    display:  inline ;
  }
  .p0{
    stroke: none;
    fill: #e6194b;
  }
  .q0{
    fill: none;
    stroke: #e6194b;
  }
  .p1{
    stroke: none;
    fill: #3cb44b;
  }
  .q1{
    fill: none;
    stroke: #3cb44b;
  }
  .p2{
    stroke: none;
    fill: #ffe119;
  }
  .q2{
    fill: none;
    stroke: #ffe119;
  }
]]>
</style>
<symbol id="bl0">
<path d="M 174.79 425.37 L 173.94 428.80 L 173.07 432.21 L 172.20 435.60 L 171.32 438.95 L 170.44 442.29 L 169.56 445.60 L 168.66 448.91 L 167.69 452.19 L 166.60 455.43 L 165.33 458.61 L 163.86 461.72 L 162.21 464.75 L 160.34 467.65 L 158.29 470.44 L 156.08 473.07 L 153.71 475.53 L 151.19 477.81 L 148.52 479.92 L 145.70 481.86 L 142.74 483.61 L 139.65 485.18 L 136.44 486.54 L 133.15 487.68 L 129.81 488.61 L 126.44 489.30 L 123.05 489.76 L 119.66 490.00 L 116.26 490.00 L 112.86 489.78 L 109.46 489.34 L 106.09 488.65 L 102.75 487.75 L 99.47 486.63 L 96.27 485.29 L 93.18 483.74 L 90.21 482.01 L 87.38 480.08 L 84.69 477.97 L 82.14 475.69 L 79.75 473.22 L 77.51 470.60 L 75.44 467.83 L 73.56 464.92 L 71.88 461.90 L 70.40 458.79 L 69.16 455.61 L 68.13 452.37 L 67.31 449.07 L 66.72 445.70 L 66.35 442.28 L 66.21 438.82 L 66.30 435.32 L 66.59 431.81 L 67.07 428.34 L 67.70 424.92 L 68.43 421.55 L 69.20 418.20 L 69.96 414.88 L 70.71 411.58 L 71.46 408.26 L 72.21 404.92 L 72.97 401.55 L 73.70 398.19 L 74.40 394.81 L 75.07 391.41 L 75.74 388.02 L 76.41 384.64 L 77.10 381.26 L 77.81 377.87 L 78.55 374.49 L 79.31 371.11 L 80.09 367.72 L 80.86 364.30 L 81.64 360.88 L 82.42 357.45 L 83.21 354.00 L 84.00 350.57 L 84.77 347.14 L 85.54 343.72 L 86.28 340.33 L 87.00 336.94 L 87.71 333.57 L 88.48 330.20 L 89.37 326.86 L 90.45 323.58 L 91.74 320.34 L 93.24 317.17 L 94.98 314.09 L 96.93 311.11 L 99.08 308.26 L 101.44 305.55 L 103.97 303.01 L 106.64 300.64 L 109.46 298.48 L 112.40 296.51 L 115.44 294.75 L 118.60 293.21 L 121.85 291.89 L 125.18 290.78 L 128.58 289.92 L 132.04 289.28 L 135.53 288.87 L 139.04 288.71 L 142.57 288.78 L 146.08 289.07 L 149.57 289.60 L 153.02 290.37 L 156.40 291.39 L 159.69 292.69 L 162.88 294.24 L 165.98 296.02 L 168.98 298.02 L 171.89 300.18 L 174.70 302.46 L 177.37 304.86 L 179.84 307.40 L 182.12 310.08 L 184.18 312.91 L 186.01 315.88 L 187.61 318.97 L 189.01 322.17 L 190.19 325.46 L 191.15 328.82 L 191.88 332.24 L 192.35 335.72 L 192.60 339.24 L 192.63 342.77 L 192.44 346.29 L 192.06 349.80 L 191.52 353.30 L 190.85 356.76 L 190.08 360.22 L 189.27 363.66 L 188.44 367.12 L 187.60 370.58 L 186.76 374.04 L 185.93 377.48 L 185.10 380.91 L 184.27 384.33 L 183.46 387.72 L 182.67 391.11 L 181.87 394.50 L 181.08 397.89 L 180.29 401.27 L 179.51 404.67 L 178.74 408.09 L 177.98 411.52 L 177.20 414.97 L 176.41 418.44 L 175.61 421.91 Z" />
</symbol>
<symbol id="bl1">
<path d="M 362.19 306.57 L 355.52 310.83 L 348.73 314.75 L 341.84 318.31 L 334.89 321.53 L 327.88 324.50 L 320.83 327.36 L 313.70 330.19 L 306.52 332.98 L 299.28 335.66 L 291.97 338.22 L 284.61 340.72 L 277.21 343.30 L 269.77 346.02 L 262.32 348.86 L 254.88 351.75 L 247.46 354.64 L 240.07 357.52 L 232.70 360.38 L 225.36 363.24 L 218.04 366.14 L 210.75 369.14 L 203.47 372.25 L 196.20 375.40 L 188.90 378.48 L 181.57 381.40 L 174.18 384.14 L 166.73 386.67 L 159.21 388.87 L 151.64 390.54 L 144.04 391.33 L 136.44 390.99 L 128.91 389.68 L 121.58 387.56 L 114.66 384.51 L 108.34 380.39 L 102.73 375.30 L 97.97 369.38 L 94.21 362.74 L 91.45 355.57 L 89.72 348.10 L 89.06 340.46 L 89.18 332.73 L 89.75 324.99 L 90.57 317.26 L 91.50 309.54 L 92.47 301.81 L 93.44 294.05 L 94.41 286.26 L 95.38 278.44 L 96.37 270.59 L 97.36 262.72 L 98.35 254.82 L 99.31 246.88 L 100.26 238.92 L 101.17 230.98 L 102.05 223.08 L 102.91 215.22 L 103.76 207.42 L 104.62 199.67 L 105.49 191.96 L 106.35 184.23 L 107.20 176.48 L 108.08 168.72 L 109.03 160.98 L 110.11 153.27 L 111.37 145.62 L 112.89 138.01 L 114.75 130.46 L 116.96 122.95 L 119.55 115.48 L 122.54 108.07 L 125.89 100.77 L 129.56 93.67 L 133.55 86.82 L 137.81 80.25 L 142.34 73.95 L 147.14 67.94 L 152.19 62.19 L 157.53 56.66 L 163.15 51.39 L 169.04 46.37 L 175.16 41.61 L 181.52 37.17 L 188.08 33.02 L 194.87 29.17 L 201.87 25.65 L 209.06 22.45 L 216.40 19.59 L 223.86 17.11 L 231.41 14.99 L 239.01 13.23 L 246.66 11.86 L 254.37 10.86 L 262.18 10.23 L 270.08 10.00 L 278.05 10.14 L 286.02 10.64 L 293.92 11.55 L 301.74 12.83 L 309.43 14.46 L 316.98 16.47 L 324.40 18.84 L 331.73 21.56 L 338.97 24.68 L 346.08 28.14 L 352.99 31.91 L 359.65 35.99 L 366.05 40.34 L 372.19 44.93 L 378.04 49.78 L 383.64 54.89 L 389.02 60.27 L 394.16 65.95 L 399.07 71.90 L 403.72 78.10 L 408.06 84.54 L 412.10 91.20 L 415.85 98.08 L 419.28 105.21 L 422.38 112.52 L 425.13 119.96 L 427.49 127.47 L 429.48 135.03 L 431.09 142.60 L 432.32 150.17 L 433.18 157.78 L 433.68 165.46 L 433.79 173.23 L 433.54 181.07 L 432.91 188.94 L 431.88 196.81 L 430.48 204.63 L 428.72 212.34 L 426.59 219.92 L 424.11 227.34 L 421.30 234.60 L 418.14 241.67 L 414.65 248.59 L 410.82 255.35 L 406.63 261.95 L 402.12 268.37 L 397.29 274.59 L 392.15 280.57 L 386.71 286.31 L 380.98 291.80 L 374.95 297.01 L 368.67 301.95 Z" />
</symbol>
<symbol id="bl2">
<path d="M 284.14 386.41 L 283.89 388.04 L 283.55 389.67 L 283.16 391.28 L 282.72 392.85 L 282.22 394.43 L 281.63 396.03 L 280.91 397.68 L 280.03 399.30 L 279.01 400.81 L 277.94 402.18 L 276.87 403.43 L 275.82 404.59 L 274.75 405.70 L 273.63 406.75 L 272.40 407.74 L 270.99 408.67 L 269.38 409.53 L 267.62 410.34 L 265.86 411.13 L 264.19 411.85 L 262.64 412.45 L 261.18 412.91 L 259.74 413.23 L 258.28 413.39 L 256.79 413.45 L 255.29 413.44 L 253.80 413.37 L 252.33 413.26 L 250.87 413.09 L 249.43 412.85 L 247.99 412.57 L 246.55 412.26 L 245.08 411.91 L 243.63 411.50 L 242.22 410.95 L 240.89 410.25 L 239.61 409.43 L 238.36 408.55 L 237.12 407.66 L 235.88 406.74 L 234.64 405.78 L 233.40 404.76 L 232.19 403.66 L 231.02 402.50 L 229.93 401.26 L 228.93 399.94 L 228.06 398.50 L 227.33 396.91 L 226.73 395.21 L 226.21 393.46 L 225.78 391.74 L 225.43 390.10 L 225.15 388.54 L 224.91 387.02 L 224.71 385.52 L 224.56 384.03 L 224.47 382.54 L 224.47 381.03 L 224.58 379.52 L 224.80 378.02 L 225.13 376.49 L 225.53 374.92 L 225.90 373.23 L 226.16 371.41 L 226.23 369.46 L 226.08 367.49 L 225.81 365.52 L 225.51 363.59 L 225.27 361.77 L 225.15 360.05 L 225.15 358.39 L 225.29 356.69 L 225.56 354.91 L 225.87 353.07 L 226.14 351.21 L 226.35 349.43 L 226.53 347.78 L 226.75 346.25 L 227.07 344.79 L 227.54 343.38 L 228.16 342.04 L 228.92 340.78 L 229.82 339.63 L 230.83 338.58 L 231.93 337.64 L 233.12 336.81 L 234.41 336.06 L 235.84 335.41 L 237.40 334.86 L 239.01 334.45 L 240.58 334.20 L 242.09 334.12 L 243.59 334.26 L 245.09 334.65 L 246.65 335.21 L 248.29 335.84 L 249.99 336.45 L 251.66 337.07 L 253.18 337.70 L 254.55 338.38 L 255.80 339.16 L 256.96 340.06 L 258.05 341.07 L 259.10 342.20 L 260.12 343.42 L 261.11 344.71 L 262.02 346.02 L 262.87 347.33 L 263.72 348.65 L 264.64 349.98 L 265.67 351.31 L 266.77 352.60 L 267.85 353.82 L 268.90 354.98 L 269.93 356.14 L 270.93 357.30 L 271.95 358.44 L 272.99 359.54 L 274.06 360.57 L 275.16 361.57 L 276.24 362.60 L 277.29 363.72 L 278.29 364.94 L 279.23 366.34 L 280.10 367.90 L 280.91 369.59 L 281.68 371.29 L 282.37 372.94 L 282.94 374.49 L 283.39 375.96 L 283.75 377.40 L 284.01 378.82 L 284.18 380.24 L 284.29 381.71 L 284.32 383.23 L 284.28 384.81 Z" />
</symbol>
</defs>
<!-- isDone: 0 -->
<rect width="700" height="500" style="fill:#fff;stroke-width:0" />
<use class="p0 borderLine" xlink:href="#bl0"/>
<use class="p1 borderLine" xlink:href="#bl1"/>
<use class="p2 borderLine" xlink:href="#bl2"/>
<use class="q0 outLine" xlink:href="#bl0"/>
<use class="q1 outLine" xlink:href="#bl1"/>
<use class="q2 outLine" xlink:href="#bl2"/>
<circle onclick="fromCircle(4)" class="circle" cx="117.6594" cy="438.6251" r="46.4872" />
<text class="nLabel" x="117.66" y="433.63">92</text>
<text class="belong" x="117.66" y="443.63">(1)</text>
<circle onclick="fromCircle(6)" class="circle" cx="139.9225" cy="341.3037" r="47.4871" />
<text class="nLabel" x="139.92" y="336.30">96</text>
<text class="belong" x="139.92" y="346.30">(1, 2)</text>
<circle onclick="fromCircle(2)" class="circle" cx="271.8051" cy="171.5019" r="157.7204" />
<text class="nLabel" x="271.81" y="166.50">1059</text>
<text class="belong" x="271.81" y="176.50">(2)</text>
<circle onclick="fromCircle(3)" class="circle" cx="240.6861" cy="348.1803" r="8.3946" />
<text class="nLabel" x="240.69" y="343.18">3</text>
<text class="belong" x="240.69" y="353.18">(2, 3)</text>
<circle onclick="fromCircle(1)" class="circle" cx="254.5663" cy="383.4781" r="24.2331" />
<text class="nLabel" x="254.57" y="378.48">25</text>
<text class="belong" x="254.57" y="388.48">(3)</text>
<g id="legendBox">
<rect class="p0 borderLine" x="500.00" y="50.00" width="30.00" height="15.00" />
<rect class="q0" x="500.00" y="50.00" width="30.00" height="15.00" />
<text class="legend" x="540.00" y="65.00">TMS UP</text>
<rect class="p1 borderLine" x="500.00" y="90.00" width="30.00" height="15.00" />
<rect class="q1" x="500.00" y="90.00" width="30.00" height="15.00" />
<text class="legend" x="540.00" y="105.00">Zhou UP</text>
<rect class="p2 borderLine" x="500.00" y="130.00" width="30.00" height="15.00" />
<rect class="q2" x="500.00" y="130.00" width="30.00" height="15.00" />
<text class="legend" x="540.00" y="145.00">Srivastava UP</text>
</g>
</svg>
