<svg xmlns="http://www.w3.org/2000/svg" xmlns:xlink="http://www.w3.org/1999/xlink" width="700" height="500">
<defs>
<style type="text/css"><![CDATA[
  .borderLine {
	   stroke: none;
	   fill-opacity:  0.4 ;
  }
  .outLine {
	   stroke-width:  1 ;
	   fill: none;
  }
  .circle {
	   stroke: #888888;
	   stroke-width: 0.5;
	   fill: none;
    pointer-events: all;
  }
  .nLabel {
	   font-family: Arial;
    pointer-events: none;
	   font-size: 10px;
	   text-anchor: middle;
	   alignment-baseline: central;
  }
  .belong {
	   font-family: Arial;
    pointer-events: none;
	   font-size: 5px;
	   text-anchor: middle;
	   alignment-baseline: central;
  }
  .legend {
    font-family: Arial;
    font-size: 15px;
  }
  #legendBox {
    display:  inline ;
  }
  .p0{
    stroke: none;
    fill: #e6194b;
  }
  .q0{
    fill: none;
    stroke: #e6194b;
  }
  .p1{
    stroke: none;
    fill: #3cb44b;
  }
  .q1{
    fill: none;
    stroke: #3cb44b;
  }
  .p2{
    stroke: none;
    fill: #ffe119;
  }
  .q2{
    fill: none;
    stroke: #ffe119;
  }
]]>
</style>
<symbol id="bl0">
<path d="M 218.46 435.04 L 217.27 438.33 L 215.80 441.55 L 214.13 444.81 L 212.31 448.14 L 210.33 451.50 L 208.19 454.78 L 205.82 457.91 L 203.25 460.99 L 200.44 464.15 L 197.32 467.42 L 193.90 470.60 L 190.21 473.45 L 186.34 475.99 L 182.40 478.31 L 178.58 480.42 L 175.00 482.33 L 171.58 484.03 L 168.16 485.50 L 164.65 486.68 L 161.05 487.63 L 157.43 488.43 L 153.83 489.08 L 150.22 489.58 L 146.61 489.90 L 142.97 490.00 L 139.32 489.94 L 135.67 489.80 L 132.05 489.61 L 128.46 489.31 L 124.95 488.84 L 121.51 488.09 L 118.03 487.11 L 114.34 485.90 L 110.37 484.47 L 106.43 482.85 L 102.84 481.12 L 99.54 479.29 L 96.41 477.32 L 93.34 475.19 L 90.34 472.95 L 87.42 470.65 L 84.61 468.29 L 81.87 465.79 L 79.17 462.98 L 76.54 459.79 L 74.09 456.43 L 71.96 453.13 L 70.06 449.91 L 68.32 446.64 L 66.70 443.26 L 65.20 439.80 L 63.86 436.33 L 62.73 432.91 L 61.77 429.52 L 60.98 426.15 L 60.34 422.75 L 59.83 419.34 L 59.44 415.87 L 59.17 412.33 L 59.01 408.75 L 58.95 405.15 L 59.03 401.57 L 59.27 398.01 L 59.72 394.50 L 60.45 391.07 L 61.39 387.69 L 62.47 384.35 L 63.67 381.04 L 64.96 377.76 L 66.34 374.46 L 67.83 371.14 L 69.44 367.82 L 71.20 364.57 L 73.16 361.40 L 75.34 358.27 L 77.79 355.07 L 80.57 351.77 L 83.64 348.44 L 86.88 345.21 L 90.19 342.25 L 93.46 339.67 L 96.68 337.34 L 99.79 335.13 L 102.80 332.95 L 105.76 330.82 L 108.76 328.81 L 111.86 326.95 L 115.05 325.07 L 118.33 322.88 L 121.70 320.24 L 125.14 317.40 L 128.58 314.65 L 131.92 312.12 L 135.10 309.84 L 138.21 307.96 L 141.46 306.80 L 144.97 306.61 L 148.68 307.11 L 152.48 307.97 L 156.30 309.09 L 160.09 310.60 L 163.75 312.64 L 167.03 315.06 L 169.75 317.66 L 172.05 320.35 L 174.11 323.11 L 176.03 325.97 L 177.94 328.87 L 179.99 331.71 L 182.27 334.44 L 184.74 337.05 L 187.33 339.51 L 190.03 341.83 L 192.83 344.15 L 195.75 346.70 L 198.74 349.63 L 201.54 352.87 L 203.92 356.26 L 206.01 359.71 L 208.03 363.17 L 210.10 366.60 L 212.13 370.00 L 213.95 373.36 L 215.44 376.67 L 216.67 379.95 L 217.78 383.22 L 218.84 386.51 L 219.83 389.83 L 220.71 393.23 L 221.40 396.73 L 221.91 400.29 L 222.19 403.85 L 222.19 407.35 L 221.99 410.80 L 221.67 414.23 L 221.26 417.67 L 220.80 421.13 L 220.33 424.61 L 219.85 428.12 L 219.28 431.62 Z" />
</symbol>
<symbol id="bl1">
<path d="M 296.56 258.87 L 292.31 263.56 L 287.83 267.99 L 283.12 272.25 L 278.18 276.41 L 273.05 280.46 L 267.75 284.35 L 262.26 288.01 L 256.58 291.46 L 250.67 294.70 L 244.51 297.70 L 238.18 300.51 L 231.81 303.15 L 225.42 305.63 L 218.91 308.03 L 212.05 310.48 L 204.80 313.00 L 197.62 315.50 L 190.97 317.84 L 184.72 320.01 L 178.53 322.02 L 172.19 323.82 L 165.67 325.35 L 158.96 326.40 L 152.12 326.74 L 145.38 326.32 L 139.28 324.32 L 134.00 320.86 L 129.31 316.35 L 124.77 311.52 L 120.13 306.78 L 115.28 302.23 L 110.16 297.87 L 104.73 293.68 L 99.21 289.53 L 93.89 285.20 L 88.96 280.54 L 84.18 275.53 L 79.19 270.17 L 73.87 264.45 L 68.65 258.64 L 64.02 252.99 L 59.93 247.48 L 56.24 241.99 L 52.89 236.43 L 49.79 230.79 L 46.92 225.04 L 44.30 219.14 L 41.88 213.07 L 39.66 206.78 L 37.68 200.22 L 35.92 193.47 L 34.41 186.69 L 33.21 179.95 L 32.32 173.27 L 31.83 166.63 L 31.81 160.05 L 32.15 153.54 L 32.74 147.13 L 33.52 140.85 L 34.46 134.65 L 35.55 128.48 L 36.82 122.28 L 38.33 116.07 L 40.21 109.86 L 42.56 103.69 L 45.28 97.60 L 48.25 91.69 L 51.43 86.04 L 54.78 80.60 L 58.30 75.32 L 62.02 70.18 L 65.93 65.13 L 70.03 60.13 L 74.38 55.20 L 78.98 50.40 L 83.88 45.90 L 89.11 41.79 L 94.59 37.99 L 100.20 34.39 L 105.90 30.95 L 111.67 27.69 L 117.51 24.69 L 123.45 22.04 L 129.47 19.69 L 135.53 17.62 L 141.64 15.84 L 147.80 14.29 L 154.03 12.94 L 160.35 11.81 L 166.74 10.90 L 173.16 10.27 L 179.58 10.00 L 185.99 10.04 L 192.35 10.36 L 198.63 10.97 L 204.87 11.83 L 211.08 12.91 L 217.30 14.23 L 223.50 15.78 L 229.65 17.57 L 235.71 19.68 L 241.68 22.02 L 247.56 24.56 L 253.33 27.30 L 258.96 30.28 L 264.44 33.57 L 269.71 37.29 L 274.80 41.32 L 279.75 45.59 L 284.55 50.06 L 289.21 54.70 L 293.75 59.52 L 298.11 64.57 L 302.30 69.81 L 306.23 75.24 L 309.83 80.85 L 313.17 86.57 L 316.26 92.32 L 319.11 98.07 L 321.72 103.87 L 324.05 109.82 L 326.06 116.00 L 327.78 122.35 L 329.23 128.79 L 330.41 135.28 L 331.34 141.77 L 332.02 148.18 L 332.40 154.47 L 332.53 160.71 L 332.42 167.02 L 332.05 173.46 L 331.40 179.97 L 330.45 186.45 L 329.13 192.84 L 327.52 199.15 L 325.67 205.41 L 323.57 211.62 L 321.20 217.84 L 318.46 224.08 L 315.26 230.36 L 311.74 236.59 L 308.07 242.64 L 304.35 248.37 L 300.54 253.79 Z" />
</symbol>
<symbol id="bl2">
<path d="M 451.72 338.02 L 450.61 338.55 L 449.47 339.04 L 448.32 339.48 L 447.15 339.88 L 445.96 340.22 L 444.77 340.53 L 443.56 340.77 L 442.34 340.97 L 441.12 341.12 L 439.89 341.21 L 438.65 341.26 L 437.42 341.26 L 436.19 341.20 L 434.95 341.10 L 433.73 340.94 L 432.52 340.74 L 431.31 340.48 L 430.11 340.18 L 428.93 339.82 L 427.76 339.42 L 426.61 338.97 L 425.48 338.47 L 424.37 337.93 L 423.29 337.34 L 422.23 336.70 L 421.19 336.03 L 420.19 335.32 L 419.22 334.56 L 418.27 333.76 L 417.36 332.92 L 416.49 332.05 L 415.65 331.14 L 414.85 330.20 L 414.09 329.22 L 413.37 328.22 L 412.69 327.19 L 412.06 326.13 L 411.46 325.05 L 410.92 323.94 L 410.42 322.81 L 409.96 321.65 L 409.56 320.49 L 409.20 319.30 L 408.89 318.11 L 408.63 316.90 L 408.42 315.69 L 408.26 314.46 L 408.15 313.23 L 408.09 311.99 L 408.08 310.75 L 408.12 309.51 L 408.22 308.29 L 408.36 307.06 L 408.55 305.84 L 408.80 304.63 L 409.09 303.43 L 409.43 302.23 L 409.82 301.06 L 410.26 299.91 L 410.74 298.77 L 411.28 297.66 L 411.85 296.57 L 412.47 295.49 L 413.14 294.45 L 413.85 293.44 L 414.59 292.45 L 415.38 291.50 L 416.21 290.59 L 417.07 289.70 L 417.97 288.86 L 418.90 288.04 L 419.86 287.27 L 420.86 286.54 L 421.88 285.84 L 422.93 285.19 L 424.01 284.59 L 425.11 284.03 L 426.23 283.52 L 427.38 283.06 L 428.54 282.64 L 429.72 282.26 L 430.91 281.95 L 432.11 281.68 L 433.32 281.44 L 434.55 281.28 L 435.78 281.16 L 437.01 281.08 L 438.24 281.07 L 439.48 281.10 L 440.71 281.17 L 441.93 281.31 L 443.16 281.49 L 444.37 281.71 L 445.57 282.00 L 446.76 282.33 L 447.93 282.70 L 449.09 283.13 L 450.23 283.61 L 451.35 284.12 L 452.45 284.69 L 453.52 285.30 L 454.57 285.96 L 455.59 286.66 L 456.58 287.40 L 457.54 288.17 L 458.46 288.99 L 459.35 289.85 L 460.21 290.73 L 461.03 291.66 L 461.81 292.61 L 462.55 293.60 L 463.25 294.62 L 463.90 295.67 L 464.52 296.74 L 465.09 297.84 L 465.61 298.97 L 466.09 300.10 L 466.52 301.26 L 466.90 302.43 L 467.23 303.62 L 467.52 304.83 L 467.75 306.04 L 467.94 307.26 L 468.07 308.48 L 468.15 309.71 L 468.19 310.95 L 468.17 312.19 L 468.10 313.43 L 467.99 314.66 L 467.82 315.88 L 467.60 317.10 L 467.34 318.31 L 467.02 319.49 L 466.65 320.68 L 466.24 321.85 L 465.77 322.99 L 465.26 324.11 L 464.71 325.22 L 464.11 326.29 L 463.47 327.35 L 462.79 328.39 L 462.06 329.38 L 461.29 330.35 L 460.49 331.28 L 459.64 332.18 L 458.76 333.05 L 457.85 333.88 L 456.90 334.67 L 455.92 335.42 L 454.91 336.14 L 453.87 336.80 L 452.81 337.43 Z" />
</symbol>
</defs>
<!-- isDone: 0 -->
<rect width="700" height="500" style="fill:#fff;stroke-width:0" />
<use class="p0 borderLine" xlink:href="#bl0"/>
<use class="p1 borderLine" xlink:href="#bl1"/>
<use class="p2 borderLine" xlink:href="#bl2"/>
<use class="q0 outLine" xlink:href="#bl0"/>
<use class="q1 outLine" xlink:href="#bl1"/>
<use class="q2 outLine" xlink:href="#bl2"/>
<circle onclick="fromCircle(4)" class="circle" cx="140.0787" cy="408.8333" r="76.5143" />
<text class="nLabel" x="140.08" y="403.83">206</text>
<text class="belong" x="140.08" y="413.83">(1)</text>
<circle onclick="fromCircle(6)" class="circle" cx="147.3333" cy="316.9675" r="9.2336" />
<text class="nLabel" x="147.33" y="311.97">3</text>
<text class="belong" x="147.33" y="321.97">(1, 2)</text>
<circle onclick="fromCircle(2)" class="circle" cx="182.1665" cy="159.9140" r="145.7032" />
<text class="nLabel" x="182.17" y="154.91">747</text>
<text class="belong" x="182.17" y="164.91">(2)</text>
<circle onclick="fromCircle(1)" class="circle" cx="438.5640" cy="311.1612" r="25.0046" />
<text class="nLabel" x="438.56" y="306.16">22</text>
<text class="belong" x="438.56" y="316.16">(3)</text>
<g id="legendBox">
<rect class="p0 borderLine" x="500.00" y="50.00" width="30.00" height="15.00" />
<rect class="q0" x="500.00" y="50.00" width="30.00" height="15.00" />
<text class="legend" x="540.00" y="65.00">TMS DOWN</text>
<rect class="p1 borderLine" x="500.00" y="90.00" width="30.00" height="15.00" />
<rect class="q1" x="500.00" y="90.00" width="30.00" height="15.00" />
<text class="legend" x="540.00" y="105.00">Zhou DOWN</text>
<rect class="p2 borderLine" x="500.00" y="130.00" width="30.00" height="15.00" />
<rect class="q2" x="500.00" y="130.00" width="30.00" height="15.00" />
<text class="legend" x="540.00" y="145.00">Srivastava DOWN</text>
</g>
</svg>
